<?xml version="1.0" standalone="no"?>
<!DOCTYPE svg PUBLIC "-//W3C//DTD SVG 20010904//EN"
 "http://www.w3.org/TR/2001/REC-SVG-20010904/DTD/svg10.dtd">
<svg version="1.0" xmlns="http://www.w3.org/2000/svg"
 width="1024.000000pt" height="1024.000000pt" viewBox="0 0 1024.000000 1024.000000"
 preserveAspectRatio="xMidYMid meet">

<g transform="translate(0.000000,1024.000000) scale(0.100000,-0.100000)"
fill="#000000" stroke="none">
<path d="M6745 8633 c-75 -39 -110 -94 -102 -162 6 -54 48 -99 114 -120 38
-13 47 -12 100 9 153 60 193 224 67 276 -44 19 -142 17 -179 -3z m17 -49 c-32
-22 -53 -68 -55 -119 -1 -25 -6 -43 -12 -42 -17 6 -28 52 -21 83 8 32 70 94
94 94 13 0 12 -3 -6 -16z"/>
<path d="M6207 8526 c-81 -29 -151 -95 -183 -172 -8 -20 -24 -77 -35 -127 -10
-49 -24 -96 -30 -103 -6 -8 -29 -14 -51 -14 -50 0 -96 -24 -104 -54 -3 -13 -4
-52 -2 -86 l3 -61 -40 -14 c-60 -21 -85 -56 -85 -117 0 -49 24 -118 41 -118
20 0 7 -16 -31 -38 -34 -19 -39 -26 -31 -41 6 -10 22 -26 36 -35 l26 -17 -6
-120 c-4 -91 -10 -125 -21 -137 -12 -12 -15 -27 -10 -62 l6 -47 -54 -12 c-116
-26 -275 -168 -339 -303 -49 -104 -87 -219 -87 -267 0 -35 -4 -43 -26 -51 -38
-15 -44 -13 -44 16 0 35 -50 104 -98 134 -21 14 -52 42 -67 64 -45 62 -98 80
-235 80 -104 1 -120 -2 -171 -25 -78 -37 -200 -183 -293 -351 -75 -136 -98
-165 -176 -227 l-51 -41 -90 7 -90 6 -42 -40 c-23 -22 -64 -57 -92 -78 -64
-47 -275 -263 -275 -282 0 -7 12 -36 26 -64 l25 -51 -53 -56 c-77 -82 -210
-266 -251 -347 -22 -43 -57 -91 -92 -125 -31 -30 -78 -82 -103 -115 -26 -33
-78 -94 -116 -135 -37 -41 -94 -109 -126 -150 -31 -41 -94 -109 -139 -151 -89
-83 -102 -113 -53 -126 37 -10 588 -10 687 0 75 8 268 60 343 93 24 10 76 14
197 14 l165 0 -6 -30 c-8 -37 11 -40 50 -9 24 19 31 20 94 10 62 -10 68 -9 82
10 11 14 27 20 50 19 19 -1 138 -1 264 -1 125 1 232 -1 236 -4 29 -18 762 3
794 23 18 10 -35 20 -118 21 l-78 1 7 28 c16 61 20 157 9 182 -13 28 -66 70
-87 70 -7 0 -33 -20 -57 -45 l-44 -45 -2 -103 -2 -102 -32 -3 -31 -3 3 195 c2
126 -1 196 -7 196 -13 1 -21 -63 -30 -242 -7 -133 -10 -148 -26 -148 -16 0
-17 7 -13 68 20 269 20 321 -3 299 -2 -3 -12 -86 -20 -184 -8 -98 -16 -180
-18 -182 -2 -2 -10 -1 -18 2 -25 9 -33 517 -8 517 4 0 45 -16 91 -35 185 -77
373 -121 404 -95 8 5 58 28 112 51 114 46 187 58 212 36 9 -8 49 -30 87 -50
66 -32 77 -35 195 -39 109 -5 135 -2 212 18 48 13 98 26 110 28 13 3 47 12 77
21 32 10 56 13 60 7 7 -11 112 1 194 22 32 8 93 18 135 22 42 4 84 10 93 15
11 6 21 4 29 -6 24 -28 29 -15 32 77 l3 92 55 11 c30 6 67 15 83 18 l27 7 0
-84 c0 -78 10 -110 28 -91 4 4 7 48 7 98 l0 92 -35 -2 c-111 -4 -193 -13 -203
-22 -7 -5 -73 -19 -147 -31 -74 -12 -155 -26 -179 -31 -38 -9 -47 -7 -66 11
-24 22 -45 26 -62 9 -6 -6 -33 -12 -58 -13 -31 -2 -50 -8 -56 -18 -6 -11 -32
-18 -86 -22 -43 -4 -119 -14 -170 -22 l-92 -15 -97 36 c-97 36 -226 59 -339
60 -40 0 -59 -6 -97 -33 -26 -17 -54 -32 -63 -32 -9 0 -82 20 -163 45 -81 24
-166 49 -189 55 -35 9 -43 15 -43 34 0 38 54 51 63 16 7 -27 25 -25 33 4 4 19
14 25 51 30 82 11 91 9 98 -25 9 -41 39 -36 43 9 3 27 7 32 30 32 15 0 51 3
80 6 48 6 52 5 52 -14 0 -11 5 -33 10 -47 9 -23 13 -25 25 -15 8 7 15 27 15
45 l0 32 68 6 c37 4 82 7 100 7 32 0 33 -1 27 -30 -9 -39 3 -90 20 -90 18 0
28 51 16 83 l-11 27 123 0 c67 0 159 -3 204 -6 75 -6 81 -8 70 -25 -15 -23 2
-73 26 -77 20 -4 23 22 7 62 l-10 26 83 0 c89 0 111 -8 101 -33 -9 -25 4 -67
21 -67 15 0 31 62 20 79 -7 12 13 14 68 5 26 -5 37 -12 37 -24 0 -22 25 -44
40 -35 7 4 10 16 7 26 -4 13 0 19 12 19 36 0 121 -31 149 -55 56 -47 85 -25
33 25 -19 17 -26 31 -20 37 5 5 12 106 15 224 5 192 -1 315 -22 457 -4 26 -2
48 5 56 7 8 16 28 21 44 18 64 -67 147 -187 183 -39 11 -43 15 -43 45 0 18 5
36 10 39 7 4 5 14 -5 28 -10 14 -15 45 -15 90 0 85 -24 207 -54 272 -13 28
-55 86 -94 130 -104 119 -173 169 -274 201 l-58 18 0 53 c0 39 -4 55 -15 59
-11 5 -14 15 -10 38 6 28 2 34 -36 59 -24 15 -48 27 -55 27 -11 0 -31 147 -21
156 2 3 11 2 19 -1 11 -4 18 -26 22 -68 10 -94 25 -106 27 -22 1 79 16 56 18
-27 2 -76 21 -56 21 20 0 64 2 71 30 96 34 30 32 39 -12 66 l-30 18 37 17 c20
10 44 29 53 42 39 57 51 65 91 58 46 -8 104 14 120 43 8 14 8 29 1 47 -16 41
-12 83 9 104 11 11 59 31 108 46 61 19 98 36 122 58 133 125 81 382 -94 463
-40 19 -67 24 -130 23 -44 0 -97 -6 -118 -13z m-60 -105 c-47 -48 -93 -103
-102 -121 -24 -46 -30 -30 -10 29 20 61 81 132 137 160 24 11 47 21 52 21 5 0
-30 -40 -77 -89z m427 -94 c9 -27 16 -66 16 -86 0 -51 -26 -134 -48 -155 -18
-16 -18 -14 1 41 14 42 17 72 13 108 -8 65 -23 145 -31 170 -6 16 -3 16 13 -5
11 -13 27 -46 36 -73z m-644 -257 c0 -5 -11 -12 -25 -16 -27 -7 -55 -57 -55
-100 0 -13 -4 -24 -9 -24 -12 0 -23 82 -15 104 11 30 104 62 104 36z m-147
-215 c-46 -32 -55 -134 -16 -178 13 -14 14 -19 4 -15 -26 8 -53 55 -58 101 -5
41 -2 49 25 77 17 16 39 30 48 30 16 0 16 -2 -3 -15z m497 -60 c-7 -8 -19 -15
-27 -15 -10 0 -7 8 9 31 18 24 24 27 26 14 2 -9 -2 -22 -8 -30z m-292 -196
c23 -7 42 -16 42 -20 0 -18 -19 -17 -56 1 -48 25 -147 27 -204 4 -29 -12 -44
-14 -52 -6 -8 8 4 15 38 26 55 18 165 16 232 -5z m-106 -69 c-2 -20 1 -54 6
-78 10 -42 10 -42 -19 -42 -21 0 -29 5 -30 18 0 9 -3 40 -5 67 -5 63 0 77 28
73 20 -3 23 -8 20 -38z m-63 -115 c1 -6 -14 -15 -33 -21 l-34 -10 -5 65 c-3
35 -2 74 3 85 5 15 9 4 12 -37 8 -92 28 -96 29 -6 l1 74 13 -70 c7 -38 14 -75
14 -80z m19 -82 c-4 -39 -28 -42 -28 -4 0 21 5 31 16 31 11 0 14 -8 12 -27z
m90 -6 c3 -27 1 -28 -30 -25 -28 3 -34 7 -36 31 -3 27 -1 28 30 25 28 -3 34
-7 36 -31z m-148 -14 c0 -7 -7 -13 -15 -13 -15 0 -21 31 -8 43 8 8 23 -12 23
-30z m210 7 c35 -35 24 -48 -27 -34 -16 4 -23 14 -23 30 0 30 23 31 50 4z m21
-78 c4 -4 10 -22 14 -41 7 -33 7 -34 -21 -25 -16 5 -89 9 -162 9 l-133 0 3 30
c3 26 8 31 43 37 47 8 247 0 256 -10z m-97 -110 c12 -19 56 -302 57 -362 0
-36 4 -86 8 -112 l8 -48 -80 0 -80 0 6 33 c3 19 2 135 -3 258 -5 123 -6 227
-4 231 7 10 81 10 88 0z m108 -102 c32 -119 54 -239 63 -352 l7 -78 -40 0 -39
0 -7 118 c-8 133 -30 292 -50 370 l-15 53 26 -3 c24 -3 29 -11 55 -108z m-285
23 c-56 -110 -81 -205 -81 -308 -1 -49 3 -102 8 -117 l8 -28 -72 0 c-63 0 -71
2 -66 18 2 9 7 37 11 62 21 148 94 318 172 401 25 27 48 47 50 45 2 -2 -11
-35 -30 -73z m331 24 c73 -137 115 -236 133 -314 31 -131 43 -166 58 -171 35
-11 -21 235 -82 358 -54 110 -54 108 -27 85 80 -69 196 -268 234 -397 15 -51
31 -77 41 -66 11 11 -31 143 -70 224 -45 93 -96 165 -168 242 -23 23 -37 42
-32 42 43 0 257 -206 293 -281 30 -62 56 -200 47 -255 -3 -24 -7 -44 -8 -44
-1 0 -35 14 -76 30 -40 17 -112 37 -160 46 -47 9 -96 17 -107 20 -20 3 -22 12
-28 101 -11 155 -40 299 -81 406 -14 34 10 15 33 -26z m-414 -4 c-79 -115
-144 -300 -147 -414 l-2 -67 -55 -5 c-30 -3 -56 -4 -59 -1 -9 9 20 175 39 228
21 54 101 178 148 230 27 28 80 66 94 66 4 0 -4 -17 -18 -37z m-121 -25 c-4
-7 -26 -40 -49 -73 -78 -112 -111 -202 -123 -328 l-6 -71 -55 -12 c-30 -7 -58
-13 -61 -14 -19 -1 59 242 98 310 32 54 104 133 157 172 43 31 51 34 39 16z
m270 -275 l5 -163 -49 0 c-60 0 -64 6 -63 110 0 89 15 158 58 260 l31 75 6
-60 c4 -33 9 -133 12 -222z m-941 -4 c20 -5 51 -21 68 -36 28 -23 30 -27 15
-43 -8 -9 -15 -26 -15 -37 0 -25 -41 -44 -79 -37 -27 6 -28 8 -18 34 14 37 -3
77 -40 91 -38 14 -65 5 -86 -30 -21 -36 -22 -60 -1 -89 14 -21 14 -23 -11 -32
-17 -7 -32 -24 -42 -50 l-16 -39 -31 21 c-49 33 -96 80 -113 112 -14 26 -13
31 4 54 52 70 145 105 253 97 41 -3 92 -10 112 -16z m-62 -84 c18 -21 -5 -47
-39 -43 -20 2 -27 9 -29 31 -3 24 0 27 26 27 16 0 35 -7 42 -15z m290 -112
c26 -33 25 -39 -7 -68 -21 -18 -24 -24 -12 -25 9 0 23 7 30 16 12 14 14 14 20
-3 4 -10 8 -34 8 -53 0 -30 -6 -40 -40 -65 -40 -30 -39 -46 2 -24 l23 12 -21
-34 c-12 -19 -35 -44 -52 -55 -41 -29 -154 -54 -216 -49 -27 2 -58 4 -68 5
-23 0 -93 73 -105 109 -8 21 -7 36 4 55 7 15 16 44 19 64 10 59 26 91 48 98
11 4 55 7 97 8 66 2 82 6 111 29 71 54 104 50 159 -20z m-616 -18 c39 -56 89
-95 122 -95 11 0 25 -4 33 -9 11 -7 10 -13 -5 -35 -11 -14 -24 -26 -29 -26
-18 0 -81 72 -124 143 -23 37 -41 70 -41 72 0 12 9 2 44 -50z m-44 -55 c37
-73 91 -135 140 -160 20 -10 49 -37 65 -60 29 -42 88 -83 138 -94 25 -6 27
-10 27 -54 -1 -26 -9 -69 -20 -97 -10 -27 -27 -76 -37 -107 -10 -32 -20 -58
-23 -58 -3 0 -14 16 -24 35 -28 51 -90 105 -178 154 -95 52 -184 64 -264 37
-26 -9 -64 -16 -84 -16 -32 0 -41 6 -65 39 l-27 40 66 62 c47 43 86 95 133
173 70 117 103 165 115 165 4 1 21 -26 38 -59z m1280 50 c-125 -15 -134 -15
-125 0 3 6 46 9 98 9 l92 -2 -65 -7z m-146 -8 c8 -13 -185 -45 -198 -32 -17
17 3 24 87 31 45 3 87 7 94 7 6 1 14 -2 17 -6z m-214 -27 c16 -19 14 -21 -27
-30 -26 -5 -33 -3 -33 9 0 13 25 35 41 36 4 0 12 -7 19 -15z m520 -55 c0 -40
-4 -70 -10 -70 -11 0 -14 123 -3 133 12 13 13 7 13 -63z m90 16 c0 -30 3 -61
6 -70 4 -11 0 -16 -12 -16 -17 0 -19 8 -18 63 2 78 2 77 14 77 6 0 10 -24 10
-54z m-155 -21 c0 -64 0 -65 -27 -65 -28 0 -28 1 -28 65 0 64 0 65 28 65 27 0
27 -1 27 -65z m265 61 c0 -3 -4 -8 -10 -11 -5 -3 -10 -1 -10 4 0 6 5 11 10 11
6 0 10 -2 10 -4z m59 -5 c10 -6 12 -23 9 -60 -9 -89 -33 -82 -40 12 -5 57 1
67 31 48z m-859 -18 c0 -12 -18 -26 -50 -40 -50 -22 -50 -22 -61 -2 -13 25
-13 25 37 43 54 20 74 19 74 -1z m390 -48 l0 -65 -40 0 c-22 0 -40 4 -40 10 0
5 7 7 15 4 12 -5 15 4 15 48 0 59 4 68 32 68 16 0 18 -9 18 -65z m550 51 c0
-15 -14 -35 -21 -30 -15 9 -10 34 6 34 8 0 15 -2 15 -4z m-730 -50 c0 -24 3
-51 6 -60 5 -12 0 -16 -20 -16 -23 0 -26 4 -26 34 0 41 15 86 30 86 5 0 10
-20 10 -44z m770 24 c0 -5 -2 -10 -4 -10 -3 0 -8 5 -11 10 -3 6 -1 10 4 10 6
0 11 -4 11 -10z m-900 -60 c0 -49 -1 -50 -30 -50 -28 0 -30 2 -30 40 0 33 4
42 23 50 35 14 37 13 37 -40z m960 41 c0 -6 -4 -13 -10 -16 -5 -3 -10 1 -10 9
0 9 5 16 10 16 6 0 10 -4 10 -9z m76 -17 c19 -5 24 -13 24 -36 0 -28 -2 -30
-27 -23 -34 8 -39 13 -47 49 -6 24 -4 27 9 22 9 -3 28 -9 41 -12z m-1146 -43
c0 -30 -14 -41 -56 -41 -36 0 -31 49 6 63 36 13 50 7 50 -22z m1246 3 c-3 -9
-6 -20 -6 -25 0 -6 -4 -7 -10 -4 -16 10 -12 45 6 45 11 0 14 -5 10 -16z
m-1206 -24 c0 -5 -4 -10 -10 -10 -5 0 -10 5 -10 10 0 6 5 10 10 10 6 0 10 -4
10 -10z m590 -37 c0 -10 3 -27 6 -39 5 -20 0 -20 -253 -33 -236 -11 -378 -21
-506 -36 l-48 -6 31 43 c40 56 3 50 535 81 28 2 92 4 143 5 82 2 92 0 92 -15z
m74 1 c3 -9 6 -25 6 -35 0 -16 -6 -20 -27 -17 -23 2 -29 8 -31 36 -3 28 0 32
21 32 14 0 28 -7 31 -16z m70 -16 c-1 -44 -18 -51 -22 -10 -2 24 -7 32 -18 28
-8 -3 -14 -1 -14 4 0 6 12 10 28 10 24 0 27 -3 26 -32z m116 23 c0 -5 3 -23 6
-40 l7 -31 -51 0 -50 0 -4 40 -4 40 48 0 c27 0 48 -4 48 -9z m60 -41 c0 -33
-3 -40 -20 -40 -18 0 -20 6 -18 40 2 30 7 40 21 40 13 0 17 -9 17 -40z m40 -5
c0 -36 -3 -43 -16 -38 -10 4 -14 13 -10 27 3 11 6 29 6 39 0 9 5 17 10 17 6 0
10 -20 10 -45z m40 0 c0 -25 -4 -45 -10 -45 -5 0 -10 20 -10 45 0 25 5 45 10
45 6 0 10 -20 10 -45z m39 -27 c0 -10 -3 -18 -9 -18 -5 0 -9 21 -9 48 1 42 2
44 9 17 4 -16 8 -38 9 -47z m119 14 c3 -43 22 -60 22 -19 0 12 4 28 9 36 6 10
11 1 16 -28 4 -23 5 -44 3 -47 -3 -2 -40 1 -82 8 l-78 12 7 35 c10 51 19 59
62 52 36 -6 38 -8 41 -49z m-448 12 c0 -8 -4 -14 -10 -14 -5 0 -10 9 -10 21 0
11 5 17 10 14 6 -3 10 -13 10 -21z m620 -45 c0 -43 -3 -50 -17 -47 -14 2 -19
15 -21 51 -3 42 -1 47 17 47 18 0 21 -6 21 -51z m-66 -11 c4 -17 2 -28 -4 -28
-5 0 -10 14 -10 32 0 36 4 35 14 -4z m112 -45 c-15 -15 -28 16 -20 49 l7 33
10 -38 c5 -21 6 -41 3 -44z m64 24 c11 -20 12 -29 3 -38 -21 -21 -43 -2 -43
37 0 41 17 42 40 1z m-450 -11 c63 -9 122 -19 132 -22 9 -2 63 -11 120 -18 92
-12 107 -17 136 -44 29 -27 44 -50 24 -38 -24 15 -321 48 -562 62 -322 19
-774 14 -930 -11 -180 -28 -213 -30 -232 -8 -20 22 -15 32 28 55 21 12 42 16
62 12 17 -3 86 -1 154 6 317 32 861 34 1068 6z m-1386 -32 c9 -3 16 -15 16
-26 0 -11 16 -36 36 -56 l37 -37 -9 -270 c-5 -148 -9 -302 -9 -342 l0 -71 -40
-12 c-22 -7 -47 -18 -56 -26 -14 -13 -17 -13 -22 -1 -8 22 -55 27 -106 11 -60
-18 -64 -18 -51 7 19 35 40 150 50 279 12 155 28 230 74 347 20 50 39 117 42
147 7 57 10 61 38 50z m-854 -41 c3 -3 -24 -30 -60 -62 -36 -31 -108 -97 -160
-147 -52 -49 -111 -100 -132 -112 -33 -21 -40 -21 -85 -10 -26 7 -50 14 -52
15 -3 2 11 19 29 38 24 25 36 31 42 22 5 -8 8 -7 8 6 0 30 30 66 109 130 42
33 95 78 119 99 l42 39 68 -7 c37 -4 69 -9 72 -11z m100 -94 c0 -3 -51 -39
-112 -80 -62 -40 -143 -97 -179 -125 -71 -56 -158 -114 -171 -114 -18 0 -6 40
15 51 12 7 78 66 147 132 69 66 148 142 175 168 l50 48 38 -37 c20 -20 37 -39
37 -43z m1131 -245 c3 -153 6 -279 5 -280 0 -1 -14 -4 -30 -8 l-29 -7 7 283
c4 155 10 286 13 291 3 4 10 6 16 4 9 -3 14 -85 18 -283z m55 234 c-3 -29 -6
-68 -6 -87 0 -58 -7 -30 -14 57 -7 73 -6 82 10 82 14 0 16 -7 10 -52z m154
-177 c0 -125 -3 -249 -6 -275 -6 -44 -8 -46 -40 -46 l-34 0 0 265 c0 170 -4
265 -10 265 -5 0 -10 5 -10 10 0 6 23 10 50 10 l50 0 0 -229z m53 -27 c2 -137
7 -257 11 -266 6 -14 3 -18 -13 -18 -21 0 -21 2 -21 263 0 231 3 287 16 274 2
-2 5 -115 7 -253z m76 184 c0 -40 -4 -93 -8 -118 -6 -38 -8 -29 -13 64 -4 60
-5 113 -2 118 15 24 24 0 23 -64z m-523 10 c-3 -29 -6 -164 -6 -300 l0 -246
-29 -7 c-28 -6 -59 -31 -50 -40 2 -2 36 5 74 16 84 23 115 24 115 4 0 -8 5
-15 10 -15 6 0 10 9 10 20 0 11 4 20 9 20 5 0 23 3 40 6 26 5 31 3 31 -12 0
-16 2 -16 16 4 18 26 52 29 69 5 11 -15 13 -15 24 5 18 33 68 30 82 -4 5 -15
8 -28 7 -29 -2 -1 -66 -8 -143 -15 -77 -7 -156 -15 -175 -17 -19 -3 -53 -6
-75 -7 -22 -1 -50 -8 -62 -14 -44 -24 -50 -17 -42 46 13 93 32 513 25 569 -6
48 -4 52 16 56 61 12 61 11 54 -45z m634 -208 l0 -260 -47 0 -48 0 6 132 c4
73 7 190 8 261 l1 127 40 0 40 0 0 -260z m65 243 c-5 -10 -10 -126 -12 -258
-2 -132 -6 -241 -9 -244 -2 -2 -4 113 -4 257 0 234 2 262 16 262 12 0 14 -5 9
-17z m-1236 -48 c83 -50 133 -100 166 -164 15 -29 15 -45 6 -132 -6 -55 -11
-119 -11 -142 0 -63 -9 -72 -53 -51 -20 10 -40 15 -43 11 -4 -4 -9 -28 -11
-54 -5 -59 14 -99 45 -96 25 3 26 0 12 -28 -13 -24 -66 -26 -91 -3 -15 14 -19
13 -38 -12 -30 -38 -28 -98 4 -130 15 -15 22 -30 18 -37 -19 -30 -87 -116 -90
-113 -2 1 6 38 17 81 11 43 18 87 14 97 -5 17 -9 16 -40 -12 -46 -40 -84 -40
-117 0 -14 17 -28 30 -31 30 -3 0 -12 -16 -20 -35 -13 -30 -20 -35 -48 -35
-44 0 -106 43 -114 78 -11 53 -24 76 -36 64 -18 -18 -38 -14 -38 8 0 25 -2 25
-76 -2 -54 -19 -64 -20 -94 -8 -20 8 -37 25 -46 46 -14 34 -31 44 -70 44 -14
0 -34 4 -44 10 -19 10 -44 67 -32 73 4 3 47 15 96 27 92 25 139 51 121 68 -25
25 -257 -40 -372 -104 -35 -20 -66 -34 -69 -31 -2 2 34 46 82 96 47 51 83 96
79 99 -3 4 -58 -47 -121 -112 -83 -86 -118 -116 -126 -108 -11 11 61 117 139
203 33 37 39 39 92 39 51 0 65 5 126 46 39 25 86 60 105 79 32 30 130 101 271
197 39 26 68 38 92 38 19 0 50 7 68 15 23 10 59 14 114 13 77 -3 85 -5 164
-53z m1406 -192 c-4 -137 -10 -251 -14 -255 -3 -3 -17 -4 -31 -2 l-25 5 0 250
0 249 38 0 39 0 -7 -247z m57 170 c-5 -102 -10 -108 -11 -15 0 45 3 82 7 82 4
0 6 -30 4 -67z m154 25 c-3 -24 -10 -119 -16 -213 -15 -232 -18 -255 -36 -255
-12 0 -14 40 -14 255 l0 255 36 0 35 0 -5 -42z m53 -5 c0 -27 -4 -66 -8 -88
-7 -34 -9 -26 -10 48 -1 52 3 87 9 87 6 0 10 -21 9 -47z m106 -195 c-9 -285
-23 -347 -24 -108 -1 202 8 340 22 340 6 0 6 -86 2 -232z m58 95 c-6 -178 -10
-184 -12 -15 0 78 3 142 7 142 5 0 7 -57 5 -127z m181 67 c0 -19 -7 -131 -14
-248 -12 -184 -16 -212 -29 -210 -10 2 -15 13 -14 28 1 14 5 125 9 248 7 219
8 223 28 220 17 -2 21 -10 20 -38z m109 8 c16 -12 16 -28 3 -247 -8 -128 -17
-235 -20 -238 -3 -3 -16 -3 -30 1 -21 5 -24 11 -21 39 2 17 9 118 15 222 15
250 15 251 53 223z m74 -110 c-4 -62 -7 -177 -7 -255 0 -124 -2 -143 -16 -143
-14 0 -15 25 -9 243 4 133 8 248 10 255 3 6 10 12 16 12 9 0 10 -29 6 -112z
m-750 -145 c-2 -32 -3 -8 -3 52 0 61 1 87 3 58 2 -29 2 -78 0 -110z m-2369 36
c13 -5 22 -17 22 -29 0 -19 -5 -21 -47 -18 -41 3 -49 7 -66 36 l-19 33 43 -7
c24 -4 54 -11 67 -15z m2739 -71 c-2 -13 -4 -5 -4 17 -1 22 1 32 4 23 2 -10 2
-28 0 -40z m-1239 -83 c-2 -59 0 -78 12 -85 11 -7 19 -5 28 7 11 15 12 14 12
-10 0 -24 -4 -27 -35 -27 l-35 0 0 79 c0 73 6 111 16 111 3 0 3 -34 2 -75z
m869 -32 c-2 -16 -4 -3 -4 27 0 30 2 43 4 28 2 -16 2 -40 0 -55z m-641 -51
c-11 -10 -13 3 -7 48 l6 45 3 -44 c2 -23 1 -46 -2 -49z m831 26 c-3 -8 -6 -5
-6 6 -1 11 2 17 5 13 3 -3 4 -12 1 -19z m-343 -50 c12 -48 12 -48 -110 -48
l-115 0 3 28 c3 25 7 27 49 30 43 3 47 1 53 -23 8 -33 22 -32 35 5 8 25 15 30
44 30 27 0 36 -5 41 -22z m104 -15 c3 -32 2 -33 -37 -33 -43 0 -46 5 -35 48 5
19 12 23 38 20 27 -3 31 -7 34 -35z m-360 -6 c3 -26 1 -27 -41 -27 -42 0 -44
1 -40 24 3 15 14 27 27 29 39 8 51 2 54 -26z m462 3 c0 -28 -3 -30 -35 -30
-32 0 -35 2 -35 30 0 28 3 30 35 30 32 0 35 -2 35 -30z m75 -6 c0 -23 -4 -28
-20 -26 -27 5 -27 5 -15 36 13 35 35 28 35 -10z m135 4 l17 -22 12 22 c14 26
31 20 31 -9 0 -10 7 -19 15 -19 8 0 15 9 15 20 0 22 11 24 73 14 32 -6 37 -10
37 -35 l0 -28 -92 5 c-200 10 -209 13 -192 58 9 24 62 20 84 -6z m-2630 -17
c0 -11 -28 -41 -38 -41 -4 0 -13 4 -21 9 -11 7 -7 12 15 25 34 18 44 19 44 7z
m2908 -19 c3 -18 -1 -22 -22 -22 -19 0 -26 5 -26 18 0 39 43 43 48 4z m120 -5
c6 -5 12 -16 12 -23 0 -8 7 -14 15 -14 8 0 15 7 15 16 0 24 35 12 38 -14 2
-12 -1 -22 -6 -22 -12 0 -156 32 -160 36 -2 1 -1 12 3 23 5 17 12 19 38 14 18
-3 38 -10 45 -16z m-3140 -87 c29 -29 48 -40 70 -40 17 0 33 -4 37 -9 8 -14
-34 -25 -48 -13 -7 5 -26 13 -43 16 -17 4 -44 20 -60 37 -24 25 -26 31 -14 39
8 5 16 10 16 10 1 0 20 -18 42 -40z m-200 0 c-7 -11 -16 -20 -21 -20 -4 0 -3
9 3 20 6 11 15 20 20 20 6 0 5 -9 -2 -20z m1722 -4 c0 -8 -14 -15 -35 -18 -39
-5 -51 18 -12 25 41 8 47 7 47 -7z m-100 -26 c0 -5 -9 -10 -20 -10 -11 0 -20
5 -20 10 0 6 9 10 20 10 11 0 20 -4 20 -10z m-141 -17 c26 -7 26 49 -1 -460
l-11 -223 -55 0 -55 0 7 73 c3 39 11 117 16 172 5 55 12 174 16 265 8 186 11
193 83 173z m261 -19 c23 -4 29 -10 26 -22 -23 -78 -17 -96 37 -107 18 -4 82
-20 142 -37 61 -17 124 -32 140 -33 17 -2 36 -3 43 -4 7 -1 12 -14 12 -32 0
-25 -3 -30 -17 -24 -10 3 -69 20 -133 36 -63 17 -166 49 -227 71 l-113 41 0
64 0 65 30 -6 c17 -3 44 -9 60 -12z m-128 -339 l3 -336 -54 3 -55 3 3 70 c1
39 6 176 11 305 5 129 10 247 10 263 0 25 3 27 40 27 l39 0 3 -335z m-1255
305 c16 -12 41 -20 64 -20 30 0 39 -4 45 -22 3 -13 13 -31 21 -40 13 -15 11
-20 -28 -47 -23 -17 -46 -31 -51 -31 -24 0 -71 46 -94 92 -24 47 -24 51 -8 69
21 23 20 23 51 -1z m1010 -72 c-4 -51 -11 -165 -17 -253 -6 -88 -14 -190 -18
-228 l-7 -67 -205 -3 c-146 -2 -212 -6 -229 -16 -17 -9 -26 -10 -34 -2 -6 6
-28 11 -49 11 -25 0 -41 5 -44 15 -4 8 5 53 20 99 14 46 26 91 26 100 0 9 31
36 70 61 39 25 103 72 143 106 l72 61 3 -29 c4 -28 17 -43 38 -43 15 0 150
181 177 238 14 28 27 42 40 42 19 0 20 -5 14 -92z m604 42 c142 -46 230 -83
154 -64 -16 4 -48 10 -70 14 -22 3 -54 14 -71 23 -17 9 -64 25 -105 37 -40 11
-77 24 -83 30 -19 19 19 10 175 -40z m-1995 -40 c-36 -54 -33 -62 17 -60 23 1
46 1 50 1 4 -1 -17 -22 -48 -47 -92 -75 -127 -46 -74 62 27 56 72 111 77 95 2
-7 -8 -30 -22 -51z m2387 45 c20 -4 22 -9 19 -55 -4 -45 -7 -51 -30 -56 -23
-4 -111 -33 -159 -51 -8 -3 -13 3 -13 13 0 13 17 26 50 41 54 23 76 58 65 100
-5 21 -3 23 20 18 14 -3 35 -7 48 -10z m845 -55 c0 -64 0 -64 -39 -74 -25 -5
-27 -3 -34 39 -10 72 -1 86 62 94 7 1 11 -20 11 -59z m-948 30 c0 -22 -40 -43
-69 -38 -11 3 -3 12 24 31 22 15 41 27 42 27 2 0 3 -9 3 -20z m198 -42 c3 -56
2 -58 -20 -49 -38 13 -38 116 0 109 13 -2 18 -16 20 -60z m802 15 c0 -51 -13
-87 -22 -61 -7 21 3 108 13 108 5 0 9 -21 9 -47z m228 -12 c15 0 58 8 95 18
58 15 70 16 74 4 3 -8 4 -15 2 -17 -3 -3 -194 -39 -341 -64 -21 -3 -28 0 -28
11 0 11 14 18 48 23 61 8 112 32 113 53 1 9 4 6 6 -6 3 -17 11 -23 31 -22z
m-398 15 c0 -22 -16 -28 -86 -35 -62 -7 -64 -6 -64 15 0 19 6 23 38 27 87 9
112 7 112 -7z m-182 -27 c3 -18 -10 -23 -91 -35 -47 -6 -49 -6 -45 17 2 19 11
25 38 30 57 11 94 6 98 -12z m-178 -24 c0 -14 -5 -25 -11 -25 -5 0 -7 5 -4 10
4 6 1 17 -5 25 -10 12 -9 15 4 15 10 0 16 -9 16 -25z m370 -27 c0 -26 -3 -28
-42 -28 -24 0 -83 -7 -133 -15 -113 -19 -155 -19 -155 -2 0 9 40 22 124 40 69
15 140 33 158 40 38 16 48 8 48 -35z m-3249 -14 c-11 -43 -10 -50 8 -74 13
-18 16 -31 10 -41 -26 -41 3 -81 64 -88 l45 -6 -49 -62 c-53 -68 -200 -184
-287 -228 -67 -33 -77 -27 -20 13 54 38 104 90 94 99 -4 4 -13 3 -21 -2 -142
-101 -259 -176 -270 -173 -16 3 42 52 164 141 57 41 87 77 66 77 -11 0 -128
-82 -180 -126 -50 -42 -155 -101 -155 -87 0 5 25 30 55 56 30 27 98 101 150
165 194 238 227 278 277 335 28 32 53 56 55 53 3 -3 0 -26 -6 -52z m2744 6
c52 -20 90 -30 108 -26 25 5 27 3 27 -29 0 -19 -2 -35 -5 -35 -2 0 -27 14 -56
30 -28 17 -80 44 -115 60 -35 16 -64 32 -64 35 0 4 6 5 13 2 6 -3 48 -20 92
-37z m-1915 -6 c0 -37 34 -84 60 -84 10 0 25 7 33 15 14 13 19 13 44 0 44 -23
86 -18 160 21 l68 36 -40 -42 c-22 -23 -70 -61 -106 -86 -64 -43 -68 -44 -95
-29 -16 8 -41 15 -56 15 -41 0 -165 28 -196 44 -15 8 -43 31 -62 51 l-35 36
33 28 c31 24 41 27 113 26 l79 0 0 -31z m-550 -12 c22 -11 36 -26 38 -39 2
-13 13 -29 24 -38 21 -14 21 -14 -8 -25 -80 -31 -284 -53 -284 -30 0 9 179
150 190 149 3 0 21 -8 40 -17z m322 -87 c62 -71 104 -88 231 -93 59 -3 107 -7
107 -11 -1 -11 -201 -139 -300 -191 -33 -17 -189 -43 -265 -44 -86 -1 -85 20
2 70 71 41 138 102 148 136 12 34 -2 31 -47 -14 -80 -79 -350 -198 -525 -231
-40 -8 -41 -1 -5 26 67 53 128 117 174 185 36 54 54 72 71 72 68 0 285 78 342
123 11 9 22 17 24 17 2 0 21 -20 43 -45z m1545 -167 c17 -16 23 -32 23 -67 0
-44 -14 -48 -22 -6 -2 10 -17 29 -35 41 -29 20 -30 22 -15 38 21 20 21 20 49
-6z m-1303 -141 c5 -37 7 -69 5 -70 -8 -6 -249 5 -249 12 0 4 19 17 43 29 23
12 71 40 107 62 35 22 69 39 75 37 5 -2 14 -34 19 -70z"/>
<path d="M4750 6670 c0 -11 5 -20 10 -20 6 0 10 9 10 20 0 11 -4 20 -10 20 -5
0 -10 -9 -10 -20z"/>
<path d="M4712 6473 c-8 -27 -20 -63 -28 -81 -8 -18 -14 -34 -14 -36 0 -3 24
-3 53 -1 28 1 69 -4 91 -11 60 -22 77 -15 21 7 -27 11 -51 22 -52 23 -2 1 3
17 9 34 12 30 16 32 63 33 l50 2 -55 10 c-40 8 -61 18 -78 39 -13 15 -29 28
-36 28 -6 0 -17 -21 -24 -47z m48 -24 c0 -6 -4 -7 -10 -4 -5 3 -10 11 -10 16
0 6 5 7 10 4 6 -3 10 -11 10 -16z m-13 -46 c-9 -9 -19 -14 -23 -11 -10 10 6
28 24 28 15 0 15 -1 -1 -17z"/>
<path d="M4930 6460 c0 -6 17 -10 37 -10 43 0 41 5 -4 13 -19 4 -33 2 -33 -3z"/>
<path d="M4906 6321 c5 -5 27 -6 49 -1 l40 8 -49 1 c-30 1 -46 -3 -40 -8z"/>
<path d="M3880 6134 c0 -6 9 -19 20 -29 15 -14 17 -21 9 -32 -9 -11 -8 -12 5
-7 9 3 16 9 16 13 0 11 -49 66 -50 55z"/>
<path d="M3850 6065 c4 -20 11 -39 14 -43 9 -8 -5 62 -15 72 -4 5 -4 -8 1 -29z"/>
<path d="M3794 6045 c-7 -18 21 -65 39 -65 8 0 7 4 -3 10 -13 8 -13 13 -1 32
10 18 10 20 0 11 -20 -19 -32 -16 -26 7 6 23 -1 27 -9 5z"/>
<path d="M3745 6010 c-3 -6 1 -7 9 -4 18 7 21 14 7 14 -6 0 -13 -4 -16 -10z"/>
<path d="M3749 5971 c10 -18 6 -31 -11 -31 -5 0 -7 4 -4 9 3 5 -1 14 -8 21
-11 9 -20 8 -40 -2 l-26 -14 25 -37 c29 -41 40 -47 32 -16 -4 15 1 23 21 30
14 5 31 8 38 5 7 -3 20 5 31 17 18 22 18 22 -3 4 -18 -15 -23 -15 -32 -4 -7 8
-9 16 -6 19 2 3 -2 8 -11 12 -12 4 -14 2 -6 -13z m-25 -10 c3 -5 -1 -14 -8
-20 -16 -13 -32 2 -21 19 8 12 22 13 29 1z"/>
<path d="M3643 5913 c-7 -3 -13 -9 -13 -14 0 -5 6 -8 13 -6 7 1 11 -6 9 -18
-5 -31 -21 -42 -33 -25 -9 13 -10 13 -6 0 7 -27 36 -23 43 5 5 20 11 24 28 20
18 -5 19 -5 4 5 -10 6 -21 17 -25 24 -4 7 -14 11 -20 9z"/>
<path d="M5984 5387 c-9 -25 0 -62 16 -62 10 0 15 10 15 34 0 36 -21 54 -31
28z"/>
<path d="M3285 4450 c-114 -16 -274 -42 -343 -56 -26 -5 -45 -43 -30 -61 12
-15 25 -446 17 -593 -7 -140 -6 -142 109 -165 67 -14 124 -16 295 -13 117 3
219 8 228 12 24 11 49 60 55 110 6 41 4 48 -23 74 -32 33 -63 38 -283 46 -118
5 -140 10 -140 36 0 16 14 17 209 12 l210 -5 20 34 c17 26 21 47 19 93 -4 84
-24 97 -149 98 -52 0 -111 4 -131 8 -22 4 -36 4 -32 -1 7 -12 -18 -11 -49 0
-18 7 -30 5 -46 -6 -38 -26 -46 -12 -43 70 l3 75 37 6 c20 3 59 6 86 6 27 0
89 5 138 11 75 10 92 15 108 37 39 48 17 143 -40 173 -40 22 -52 22 -225 -1z
m219 -76 c3 -9 6 -25 6 -35 0 -18 -6 -20 -52 -17 -58 3 -67 14 -38 46 24 26
75 30 84 6z m-464 -50 c0 -3 -5 -14 -11 -25 -9 -17 -16 -57 -19 -109 -2 -35
-17 17 -24 78 l-6 62 30 0 c17 0 30 -3 30 -6z m544 -343 c6 -9 -15 -61 -25
-61 -12 0 -16 59 -5 64 18 7 24 7 30 -3z m-24 -290 c0 -36 -12 -51 -39 -51
-23 0 -26 4 -27 35 0 33 1 35 33 35 26 0 33 -4 33 -19z m-550 -21 c0 -5 -4
-10 -10 -10 -5 0 -10 5 -10 10 0 6 5 10 10 10 6 0 10 -4 10 -10z"/>
<path d="M6126 4429 c-66 -11 -125 -24 -133 -30 -7 -6 -13 -30 -13 -54 l0 -42
-40 38 c-50 48 -128 72 -227 72 -85 -1 -122 -18 -170 -81 -70 -93 -79 -197
-23 -286 26 -41 42 -52 152 -105 96 -46 127 -66 142 -91 18 -32 18 -32 -3 -53
-27 -27 -137 -35 -196 -14 -40 14 -40 15 -47 76 -12 106 -65 167 -206 234 -56
27 -104 42 -145 47 -60 6 -61 12 -4 24 18 4 44 -1 74 -14 25 -11 49 -20 53
-20 13 0 90 135 90 158 0 61 -174 110 -281 79 -100 -30 -186 -142 -196 -257
-7 -77 9 -122 62 -168 48 -42 85 -56 208 -77 44 -8 88 -22 97 -31 14 -14 12
-18 -13 -39 -61 -54 -147 -42 -215 29 -24 25 -52 48 -63 51 -27 9 -109 -51
-129 -93 -9 -19 -21 -31 -30 -29 -8 2 -14 8 -13 14 1 5 5 95 8 198 5 176 7
190 26 203 12 8 27 29 34 47 18 42 5 143 -20 162 -14 10 -64 13 -197 13 l-178
0 -12 -27 c-6 -16 -14 -69 -16 -120 -4 -105 0 -111 83 -115 l47 -3 -6 -35 c-4
-19 -9 -100 -13 -178 -6 -142 -6 -144 -31 -153 -34 -13 -36 -8 -57 119 -19
118 -67 330 -91 405 -13 39 -23 51 -57 67 -46 23 -106 26 -129 8 -19 -16 -97
-162 -128 -240 -20 -52 -40 -75 -40 -48 0 5 -29 52 -64 103 -35 52 -74 113
-85 135 -12 23 -30 46 -41 52 -29 15 -131 6 -142 -13 -4 -9 -15 -62 -23 -119
-38 -273 -88 -570 -100 -600 -4 -10 1 -24 15 -38 21 -21 30 -22 117 -18 80 3
98 7 109 23 8 11 12 25 10 32 -3 7 0 52 6 100 l11 86 21 -25 c12 -14 33 -49
49 -77 15 -29 37 -55 50 -59 12 -4 57 -6 100 -4 l78 4 30 60 c35 69 44 66 55
-17 10 -72 37 -95 111 -95 32 0 73 4 91 9 31 9 32 9 32 -24 0 -18 8 -43 18
-55 17 -21 32 -24 142 -32 67 -5 157 -7 198 -6 63 3 77 6 86 23 6 11 12 22 13
24 2 2 11 -3 20 -12 29 -25 73 -39 153 -47 130 -13 252 23 323 94 l37 36 43
-33 c59 -45 124 -62 232 -62 94 0 133 13 183 58 l22 20 0 -26 c0 -44 26 -50
250 -53 113 -1 213 0 222 2 23 7 41 65 40 132 l0 54 21 -20 c12 -12 54 -36 92
-54 60 -28 81 -33 145 -33 85 0 122 15 183 73 34 33 37 34 37 14 0 -29 29 -42
109 -49 117 -10 132 2 149 117 l8 55 20 -33 c10 -18 33 -54 49 -80 l30 -47 95
-6 c52 -4 99 -3 104 1 20 19 155 549 172 681 6 42 4 49 -17 62 -13 8 -58 22
-98 31 -60 13 -77 14 -87 4 -11 -12 -46 -184 -60 -295 -4 -29 -9 -53 -13 -52
-7 0 -81 99 -133 178 -21 31 -50 61 -65 68 -37 16 -118 16 -130 1 -5 -7 -18
-50 -28 -95 -10 -46 -22 -83 -26 -83 -4 0 -10 17 -14 37 -10 55 -39 105 -83
145 -49 44 -60 50 -141 77 -153 50 -251 8 -326 -139 -68 -134 -89 -342 -47
-450 12 -30 22 -58 22 -61 0 -4 -17 -3 -37 2 -21 4 -55 11 -75 14 l-38 6 0
183 c0 180 0 183 24 205 27 25 39 90 37 201 -1 49 -5 68 -18 78 -22 16 -82 14
-227 -9z m-30 -101 c-13 -18 -24 -37 -23 -43 0 -5 -7 -11 -16 -13 -14 -3 -17
4 -17 36 0 47 4 52 47 52 l34 0 -25 -32z m524 -7 c-25 -22 -46 -38 -48 -36 -9
9 32 55 49 55 10 0 21 5 24 10 3 6 9 10 13 10 4 0 -13 -18 -38 -39z m960 9 c0
-5 -4 -10 -10 -10 -5 0 -10 5 -10 10 0 6 5 10 10 10 6 0 10 -4 10 -10z m-2987
-16 c9 -10 -12 -46 -24 -39 -14 9 -11 45 4 45 8 0 17 -3 20 -6z m1301 -9 c21
-16 15 -45 -9 -45 -12 0 -15 -6 -10 -20 3 -11 2 -20 -2 -20 -16 0 -75 68 -71
81 3 8 14 2 31 -17 15 -16 27 -23 27 -16 0 6 8 12 18 12 16 1 16 1 0 11 -18
10 -25 29 -10 29 4 0 15 -7 26 -15z m-1612 -13 c-7 -2 -10 -8 -6 -13 3 -5 0
-9 -5 -9 -13 0 -13 3 -5 24 3 9 11 13 17 9 8 -5 7 -8 -1 -11z m2548 3 c38 -20
74 -65 61 -78 -7 -7 -26 4 -55 31 -25 23 -50 42 -56 42 -5 0 -10 5 -10 10 0
14 27 12 60 -5z m-1469 -12 c9 -9 6 -21 -11 -47 -12 -20 -24 -36 -27 -36 -3 0
-27 14 -54 32 -47 30 -58 46 -41 62 10 11 120 2 133 -11z m-1554 -30 c-3 -10
-5 -4 -5 12 0 17 2 24 5 18 2 -7 2 -21 0 -30z m2192 -46 c6 -6 35 -14 64 -17
l52 -5 7 -75 c4 -41 9 -130 10 -198 3 -132 0 -142 -49 -142 -21 0 -23 4 -23
63 0 48 -6 76 -26 114 -28 58 -58 80 -222 164 -116 59 -136 80 -98 104 20 14
28 14 45 3 12 -7 21 -16 21 -20 0 -5 15 -7 33 -6 25 2 31 0 29 -14 -2 -12 6
-20 23 -24 30 -7 51 15 87 89 l23 48 6 -36 c3 -20 11 -41 18 -48z m-1129 44
c0 -5 -9 -11 -20 -14 -13 -3 -20 0 -20 9 0 8 9 14 20 14 11 0 20 -4 20 -9z
m1773 -77 c-11 -17 -19 -22 -21 -14 -3 7 3 19 14 27 26 19 27 17 7 -13z m148
-46 c48 -59 58 -79 59 -113 0 -39 -41 -100 -82 -121 -29 -15 -32 -15 -57 3
-35 26 -71 81 -71 107 0 66 62 166 102 166 8 0 30 -19 49 -42z m-966 -138 c3
-5 2 -10 -4 -10 -5 0 -13 5 -16 10 -3 6 -2 10 4 10 5 0 13 -4 16 -10z m-1555
-90 c0 -5 -4 -10 -10 -10 -5 0 -10 5 -10 10 0 6 5 10 10 10 6 0 10 -4 10 -10z
m-52 -57 c-16 -39 -28 -51 -28 -28 0 16 26 55 36 55 2 0 -2 -12 -8 -27z m802
-62 c0 -5 -7 -14 -15 -21 -8 -7 -15 -19 -15 -26 0 -21 -17 -17 -23 6 -3 13 2
25 16 35 24 17 37 19 37 6z m-858 -43 c-7 -7 -12 -8 -12 -2 0 6 3 14 7 17 3 4
9 5 12 2 2 -3 -1 -11 -7 -17z m3334 -26 c-11 -10 -15 4 -8 28 l7 25 3 -23 c2
-13 1 -26 -2 -30z m-3001 -9 c7 -25 -1 -28 -42 -17 -28 8 -30 34 -3 34 11 0
20 5 20 12 0 17 16 -2 25 -29z m1115 -8 c0 -8 6 -15 13 -18 23 -8 -7 -26 -35
-20 -31 6 -32 10 -18 48 9 23 13 25 25 15 8 -7 15 -18 15 -25z m-140 -4 c-16
-31 -32 -36 -18 -7 6 14 15 26 20 26 5 0 4 -9 -2 -19z m603 13 c18 -7 10 -51
-15 -78 -10 -11 -18 -25 -19 -30 -1 -6 -5 4 -9 23 -8 34 5 91 20 91 5 0 15 -2
23 -6z m-1489 -20 c23 -9 20 -41 -4 -47 -17 -4 -20 0 -20 24 0 31 1 32 24 23z
m334 -52 c11 -32 -1 -74 -20 -67 -9 4 -12 20 -10 50 5 51 16 58 30 17z"/>
</g>
</svg>
