<?xml version="1.0" standalone="no"?>
<!DOCTYPE svg PUBLIC "-//W3C//DTD SVG 20010904//EN"
 "http://www.w3.org/TR/2001/REC-SVG-20010904/DTD/svg10.dtd">
<svg version="1.0" xmlns="http://www.w3.org/2000/svg"
 width="1024.000000pt" height="1024.000000pt" viewBox="0 0 1024.000000 1024.000000"
 preserveAspectRatio="xMidYMid meet">

<g transform="translate(0.000000,1024.000000) scale(0.100000,-0.100000)"
fill="#000000" stroke="none">
<path d="M4847 8098 c-8 -45 -74 -237 -87 -253 -8 -9 -8 -32 -1 -76 7 -41 7
-67 1 -73 -13 -13 -13 -46 0 -46 13 0 -53 -131 -74 -149 -19 -16 -21 -42 -4
-59 23 -23 34 -112 22 -167 l-12 -50 -1 52 c-1 28 -6 55 -11 58 -20 12 -30
-48 -30 -175 0 -129 0 -130 -24 -136 -49 -12 -60 -3 -71 59 -12 68 -27 83 -95
92 -62 8 -127 -18 -161 -66 -19 -27 -24 -47 -24 -94 l0 -60 -58 -7 c-107 -14
-167 -66 -167 -147 0 -76 36 -111 117 -111 28 0 53 -10 53 -21 0 -17 -41 -29
-124 -38 -102 -10 -147 -38 -178 -109 -48 -107 15 -198 164 -238 145 -38 246
12 341 170 52 87 67 96 106 73 28 -17 43 -17 104 0 15 4 17 -4 17 -69 0 -87
-19 -390 -24 -396 -3 -2 -57 15 -121 37 -269 95 -332 104 -430 61 -51 -22
-154 -116 -193 -178 -33 -50 -105 -249 -117 -320 -4 -26 -3 -48 4 -56 7 -8 7
-23 1 -46 -18 -63 -34 -286 -23 -328 10 -39 9 -42 -24 -74 -26 -25 -33 -39
-30 -58 14 -69 28 -105 50 -129 14 -14 27 -42 29 -61 3 -19 7 -41 9 -48 3 -9
-20 -21 -66 -36 -124 -41 -280 -112 -280 -127 0 -17 44 -21 100 -8 60 14 276
30 312 23 20 -4 30 -11 27 -19 -9 -21 26 -47 55 -41 63 13 285 27 352 22 116
-9 941 -27 967 -21 19 5 23 11 18 30 -6 23 -4 23 82 29 106 8 253 23 347 36
111 15 221 12 257 -6 41 -21 116 -14 156 15 30 21 39 22 284 20 139 0 367 -5
505 -10 244 -8 255 -9 305 -35 44 -22 61 -26 121 -22 67 4 70 5 111 48 22 25
45 44 50 42 16 -5 46 10 46 23 0 8 -10 21 -22 29 -20 14 -16 15 58 14 70 -1
86 2 140 29 70 36 84 60 84 139 0 97 -48 159 -109 139 -21 -6 -29 9 -11 20 6
3 10 24 10 45 0 32 -6 43 -32 63 -31 23 -44 25 -208 32 -96 4 -210 10 -252 14
l-77 6 -65 109 c-36 60 -66 119 -66 131 0 33 -20 45 -71 45 -34 0 -52 -5 -61
-17 -16 -22 -52 -43 -74 -43 -14 0 -15 18 -8 183 10 204 7 489 -5 497 -5 3
-16 20 -25 38 -24 46 -85 87 -174 116 -110 35 -121 37 -237 37 -131 0 -227
-29 -287 -88 l-38 -37 3 -74 4 -73 -34 60 c-18 33 -45 69 -58 79 -14 11 -25
23 -25 27 0 4 -7 13 -16 20 -17 12 -19 36 -8 118 3 28 2 53 -4 59 -6 6 -3 30
9 70 11 33 19 70 19 83 0 26 -9 24 210 55 126 18 181 30 141 30 -7 0 -9 5 -6
10 3 6 0 10 -8 10 -30 0 -274 20 -303 25 -27 5 -32 12 -48 60 -22 71 -54 107
-116 134 -72 31 -139 37 -178 17 -18 -9 -32 -21 -32 -26 0 -6 -6 -10 -14 -10
-22 0 -85 -79 -98 -122 -9 -32 -16 -39 -45 -44 -46 -9 -59 6 -39 44 21 41 20
54 -5 86 -13 16 -34 28 -57 32 l-37 6 4 129 c3 123 2 129 -17 129 -25 0 -32
-48 -32 -230 l0 -138 -25 -4 c-14 -3 -28 -1 -31 4 -3 4 -2 102 2 216 6 189 5
209 -10 222 -14 11 -19 11 -25 1 -5 -7 -12 -110 -16 -229 -6 -206 -12 -241
-37 -226 -14 9 -8 57 9 76 14 15 14 21 4 27 -10 7 -11 42 -5 171 7 156 6 162
-12 158 -10 -2 -20 -13 -22 -25 l-3 -22 -40 21 c-66 34 -179 21 -218 -26 -18
-22 -31 -5 -31 42 l0 32 148 0 c81 1 167 5 192 11 25 6 55 10 67 10 14 -1 23
6 25 19 3 20 4 20 40 -5 20 -14 39 -25 42 -25 17 0 1 36 -37 82 -24 30 -42 59
-40 65 4 11 -95 180 -121 205 -7 7 -16 41 -19 75 -4 35 -11 71 -17 80 -5 10
-21 49 -35 88 -40 108 -97 195 -129 195 -8 0 -16 -15 -19 -32z m113 -243 c0
-4 -134 7 -139 11 -2 2 7 30 21 61 14 32 29 67 33 78 6 16 15 4 46 -64 22 -46
39 -84 39 -86z m-130 -82 c0 -16 3 -38 6 -50 5 -19 2 -23 -15 -23 -18 0 -21 6
-21 43 0 24 3 47 7 50 14 14 23 6 23 -20z m66 -23 c1 -28 -3 -50 -7 -50 -5 0
-9 23 -9 50 0 65 15 65 16 0z m54 5 c0 -25 -4 -45 -10 -45 -5 0 -10 15 -10 33
0 18 -5 38 -12 45 -9 9 -7 12 10 12 19 0 22 -5 22 -45z m59 -32 c1 -7 -3 -13
-9 -13 -5 0 -10 15 -9 33 0 27 2 29 9 12 5 -11 9 -26 9 -32z m25 -86 c3 -13
24 -44 46 -70 l40 -45 -31 -7 c-21 -5 -36 -3 -45 6 -14 15 -44 119 -37 132 8
14 21 7 27 -16z m-74 -23 c0 -14 7 -41 15 -61 19 -44 19 -43 -4 -43 -22 0 -31
26 -31 93 0 30 4 46 10 42 6 -3 10 -17 10 -31z m-114 -41 l-1 -68 -47 -3 c-48
-3 -60 6 -34 27 8 6 23 34 35 61 31 73 49 66 47 -17z m73 -41 c9 -17 7 -20
-14 -25 -14 -2 -27 -2 -29 2 -2 3 1 35 7 71 l11 65 7 -46 c4 -26 12 -56 18
-67z m211 -72 c0 -5 -2 -10 -4 -10 -3 0 -8 5 -11 10 -3 6 -1 10 4 10 6 0 11
-4 11 -10z m-43 -52 c-2 -13 -4 -5 -4 17 -1 22 1 32 4 23 2 -10 2 -28 0 -40z
m-47 35 c0 -5 3 -18 6 -30 5 -20 2 -23 -20 -23 -22 0 -26 4 -26 30 0 23 4 30
20 30 11 0 20 -3 20 -7z m-200 -39 c0 -17 -5 -24 -20 -24 -14 0 -20 7 -20 24
0 23 17 38 33 29 4 -2 7 -15 7 -29z m80 6 c0 -25 -4 -30 -23 -30 -31 0 -35 5
-29 35 3 18 11 25 28 25 20 0 24 -5 24 -30z m50 5 c0 -14 -4 -25 -10 -25 -5 0
-10 11 -10 25 0 14 5 25 10 25 6 0 10 -11 10 -25z m-210 -10 c0 -14 -4 -25
-10 -25 -5 0 -10 11 -10 25 0 14 5 25 10 25 6 0 10 -11 10 -25z m380 -1 c0
-14 -4 -23 -10 -19 -5 3 -10 15 -10 26 0 10 5 19 10 19 6 0 10 -12 10 -26z
m-193 -163 c17 -1 73 -51 73 -64 0 -7 -14 -12 -32 -12 -23 0 -33 -5 -33 -15 0
-10 12 -16 33 -18 17 -2 32 -6 32 -10 0 -20 -43 -73 -71 -88 -32 -16 -33 -16
-50 5 -21 26 -29 27 -29 1 0 -29 -17 -25 -56 14 -31 31 -45 66 -26 66 4 0 8
16 8 36 0 52 48 94 101 89 21 -1 43 -3 50 -4z m-432 -131 c9 -8 15 -29 15 -55
0 -54 17 -69 73 -63 l44 5 -1 -80 c-1 -78 -2 -81 -26 -87 -36 -8 -34 -44 3
-48 l27 -3 0 -109 0 -109 -46 -7 c-30 -4 -54 -2 -69 6 -44 23 -71 5 -129 -83
-113 -174 -184 -207 -330 -153 -85 31 -113 50 -133 90 -28 59 2 138 66 170 15
8 60 17 101 21 96 8 129 21 137 53 8 33 -14 49 -83 58 -62 7 -84 29 -84 80 0
38 37 87 77 102 16 6 54 13 85 17 32 4 61 11 64 17 4 6 6 33 5 61 -2 57 14 88
62 118 36 22 114 22 142 -1z m182 -102 c-2 -24 -4 -5 -4 42 0 47 2 66 4 43 2
-24 2 -62 0 -85z m333 -3 c0 -21 -5 -25 -31 -25 l-30 0 28 25 c35 30 33 30 33
0z m-204 -31 c0 -1 -16 -4 -33 -7 -31 -6 -33 -5 -33 23 l0 29 34 -22 c18 -12
33 -22 32 -23z m470 -19 c33 -13 36 -18 29 -42 -16 -67 -17 -89 -2 -102 18
-15 44 -17 75 -7 20 7 22 4 22 -23 0 -24 -4 -31 -20 -31 -10 0 -44 -20 -74
-45 -31 -25 -65 -45 -76 -45 -18 0 -20 7 -20 69 0 39 4 72 10 76 5 3 7 12 3
21 -6 15 6 144 13 144 3 0 21 -7 40 -15z m-269 -67 c-2 -13 -4 -5 -4 17 -1 22
1 32 4 23 2 -10 2 -28 0 -40z m-93 20 c9 -36 7 -48 -9 -48 -10 0 -15 11 -15
35 0 39 14 47 24 13z m54 -10 c-4 -46 -28 -49 -28 -4 0 26 4 36 16 36 11 0 14
-8 12 -32z m-155 -5 c6 -34 1 -43 -24 -43 -20 0 -23 10 -13 48 9 31 31 28 37
-5z m47 -9 c0 -13 -4 -24 -10 -24 -5 0 -10 14 -10 31 0 17 4 28 10 24 6 -3 10
-17 10 -31z m-175 -9 c0 -16 -6 -30 -12 -32 -9 -3 -13 7 -13 32 0 25 4 35 13
33 6 -3 12 -17 12 -33z m65 5 c0 -16 -4 -30 -10 -30 -5 0 -10 14 -10 30 0 17
5 30 10 30 6 0 10 -13 10 -30z m394 -53 c17 -13 18 -25 10 -173 l-9 -159 -2
130 c-3 148 -7 175 -28 175 -8 0 -15 2 -15 4 0 2 -3 11 -6 20 -8 20 24 22 50
3z m-82 -182 l-3 -185 -27 0 -27 0 11 143 c15 176 23 227 38 227 8 0 10 -53 8
-185z m-67 138 c-11 -84 -25 -235 -25 -278 0 -25 -5 -45 -10 -45 -6 0 -8 21
-5 53 3 28 7 108 10 177 2 69 4 126 5 128 0 1 7 2 15 2 12 0 14 -8 10 -37z
m-80 -140 c-4 -93 -11 -175 -16 -183 -5 -9 -9 62 -9 168 0 160 2 182 16 182
14 0 15 -18 9 -167z m-65 -18 c0 -135 -3 -175 -13 -175 -10 0 -12 31 -9 140 5
149 0 190 -22 190 -11 0 -15 -35 -21 -165 -6 -129 -10 -165 -21 -165 -11 0
-13 32 -11 170 l2 169 30 4 c71 9 65 25 65 -168z m1164 154 l51 -1 -70 -13
c-38 -8 -82 -16 -97 -19 -25 -5 -28 -2 -28 21 0 25 1 26 46 19 26 -3 70 -6 98
-7z m-1298 -140 c-4 -78 -10 -154 -13 -170 -13 -66 -18 -19 -15 141 3 148 5
170 19 170 14 0 15 -15 9 -141z m828 31 c6 -20 1 -31 -20 -50 l-26 -25 6 65
c4 36 10 79 14 95 6 28 6 28 12 -15 4 -25 10 -56 14 -70z m-154 -2 c0 -65 15
-95 59 -125 19 -13 42 -40 51 -61 10 -20 27 -45 38 -56 19 -16 19 -20 7 -33
-21 -20 -19 -41 8 -66 23 -22 23 -23 19 -264 l-4 -242 -90 2 -91 2 6 160 c7
164 3 209 -17 202 -15 -5 -23 -65 -31 -255 -5 -89 -10 -160 -14 -157 -9 10 -1
357 10 413 8 39 18 58 39 74 16 12 27 25 24 29 -2 4 12 11 33 14 63 11 72 15
78 37 11 32 -7 39 -85 36 -82 -3 -106 -20 -82 -58 11 -18 9 -25 -11 -53 -42
-55 -49 -97 -50 -291 l-2 -183 -35 12 -35 12 -2 401 -3 400 30 7 c17 4 54 27
82 51 29 24 55 44 60 44 4 0 8 -24 8 -52z m340 -90 c28 -45 25 -75 -9 -109
-65 -64 -181 -10 -181 85 0 35 41 55 113 56 54 0 58 -2 77 -32z m64 -145 c-3
-31 -8 -60 -13 -63 -12 -8 -14 -381 -2 -414 6 -15 8 -51 5 -82 l-7 -54 -76 0
-77 0 -1 40 c-2 29 2 40 13 40 19 0 18 16 -1 24 -22 8 -18 36 5 36 26 0 26 17
-1 25 -16 5 -18 9 -8 21 9 11 9 18 1 26 -17 17 -15 39 6 55 12 10 14 16 5 19
-18 8 -16 24 2 24 22 0 18 18 -5 25 -23 7 -27 25 -5 25 8 0 15 5 15 10 0 6 -7
10 -15 10 -21 0 -19 14 6 36 l21 19 -24 5 c-31 8 -30 34 2 38 54 6 70 13 87
38 16 25 16 27 0 39 -15 11 -15 14 7 34 14 13 30 36 36 52 19 45 28 34 24 -28z
m-734 -18 c0 -21 -5 -25 -30 -25 -25 0 -30 4 -30 25 0 21 5 25 30 25 25 0 30
-4 30 -25z m-103 -17 c-3 -7 -5 -2 -5 12 0 14 2 19 5 13 2 -7 2 -19 0 -25z
m-107 2 c0 -11 -4 -20 -9 -20 -14 0 -23 18 -16 30 10 17 25 11 25 -10z m50 5
c0 -8 -4 -15 -10 -15 -5 0 -10 7 -10 15 0 8 5 15 10 15 6 0 10 -7 10 -15z
m-120 -10 c0 -8 -9 -15 -20 -15 -20 0 -26 11 -13 23 12 13 33 7 33 -8z m-80
-10 c0 -8 -4 -15 -10 -15 -5 0 -10 7 -10 15 0 8 5 15 10 15 6 0 10 -7 10 -15z
m1717 7 c8 -5 3 -13 -16 -23 -26 -15 -29 -15 -55 7 l-27 24 43 0 c24 0 48 -4
55 -8z m-748 -18 c2 -2 -12 -4 -32 -4 -20 0 -39 5 -42 11 -5 7 5 8 32 3 21 -4
40 -8 42 -10z m-609 -79 l0 -65 -39 0 -38 0 4 53 c6 73 9 77 43 77 l30 0 0
-65z m-161 18 c-1 -21 -5 -51 -9 -68 -6 -23 -8 -15 -9 38 -1 39 3 67 9 67 6 0
9 -17 9 -37z m53 -23 c-2 -33 -7 -60 -10 -60 -4 0 -5 27 -4 60 2 33 7 60 10
60 4 0 5 -27 4 -60z m-174 -12 c-3 -58 -5 -63 -27 -66 -23 -4 -24 -3 -18 54 5
51 17 73 40 74 4 0 7 -28 5 -62z m72 2 c0 -47 -3 -60 -15 -60 -12 0 -15 13
-15 60 0 47 3 60 15 60 12 0 15 -13 15 -60z m-150 -15 c0 -51 -3 -65 -15 -65
-16 0 -20 42 -9 99 11 53 24 34 24 -34z m1591 54 c19 -7 37 -15 41 -18 7 -6 0
-116 -32 -516 -5 -71 -12 -150 -14 -175 -1 -25 -3 83 -2 240 l1 285 -55 0
c-30 0 -85 -4 -122 -8 -56 -6 -68 -5 -68 7 0 10 18 16 68 21 110 11 171 31
178 60 13 50 1 58 -79 50 -39 -4 -91 -11 -115 -15 -40 -7 -43 -6 -40 14 7 46
159 81 239 55z m274 -29 l20 -9 -20 0 c-11 0 -38 4 -60 8 l-40 9 40 0 c22 0
49 -3 60 -8z m-585 -222 l24 -58 -29 -102 c-16 -57 -29 -104 -30 -105 -1 -2
-15 2 -31 8 l-29 12 -2 226 -1 226 37 -75 c21 -41 48 -101 61 -132z m280 163
c0 -16 -13 -21 -82 -31 -46 -6 -95 -14 -110 -17 -21 -4 -28 -2 -28 10 0 23 16
30 95 43 107 18 125 17 125 -5z m140 -11 c0 -11 -7 -20 -15 -20 -8 0 -15 9
-15 20 0 11 7 20 15 20 8 0 15 -9 15 -20z m175 7 c54 -2 91 -8 113 -21 19 -9
32 -19 30 -20 -1 -2 -37 2 -78 10 -41 7 -105 13 -142 14 -55 0 -68 3 -68 15 0
12 7 15 33 10 17 -3 68 -7 112 -8z m-1515 -178 c0 -108 3 -140 13 -137 13 5
23 80 27 208 l3 75 6 -70 c4 -39 10 -76 15 -83 11 -18 16 -192 5 -192 -5 0
-55 20 -112 44 -56 24 -112 46 -124 50 -22 7 -23 12 -22 99 0 51 4 101 9 112
6 13 9 -18 9 -87 1 -60 5 -108 10 -108 10 0 17 36 27 150 4 41 9 69 11 63 3
-7 0 -58 -6 -115 -5 -56 -7 -106 -4 -111 12 -20 22 13 33 103 15 128 21 140
65 140 l35 0 0 -141z m1470 120 c63 -5 131 -12 150 -17 l35 -8 -1 -95 c-3
-157 -30 -476 -41 -466 -5 6 -4 361 1 434 l3 42 -41 6 c-23 3 -75 7 -116 8
l-75 2 -7 -80 c-3 -44 -9 -154 -12 -243 -3 -90 -8 -168 -12 -173 -3 -5 -23 -9
-44 -9 l-40 0 5 108 c9 175 25 424 31 470 5 40 8 43 27 37 12 -4 74 -11 137
-16z m-1680 -99 c0 -55 -4 -100 -9 -100 -35 0 -39 11 -34 93 6 98 8 107 28
107 12 0 15 -17 15 -100z m-72 7 c3 -68 1 -77 -15 -77 -39 0 -46 15 -40 78 6
70 12 84 35 80 14 -3 18 -18 20 -81z m-78 8 c0 -63 -1 -64 -22 -56 -20 8 -23
14 -19 57 4 56 7 64 27 64 11 0 14 -15 14 -65z m-429 18 c32 -19 46 -43 25
-43 -8 0 -16 -10 -19 -22 -6 -23 -9 -23 -162 -23 -85 0 -155 1 -155 2 0 1 25
21 55 44 88 67 187 83 256 42z m1983 -8 c-4 -8 -18 -15 -33 -16 -14 0 -61 -4
-103 -7 -60 -6 -78 -5 -78 5 0 9 17 13 53 14 28 0 70 4 92 8 63 14 75 13 69
-4z m-1669 -81 c280 -101 265 -94 265 -118 1 -19 2 -19 13 -5 11 14 24 11 122
-34 143 -64 242 -101 389 -143 117 -33 166 -55 166 -74 0 -15 -60 -12 -76 4
-8 8 -40 24 -71 35 -32 12 -65 26 -73 31 -29 19 -60 29 -103 33 -23 2 -55 12
-70 22 -16 10 -38 15 -52 12 -18 -3 -29 1 -35 13 -5 9 -22 22 -37 28 -33 13
-121 27 -146 24 -10 -1 -20 5 -24 13 -3 9 -22 24 -42 34 -41 21 -138 44 -152
36 -5 -3 -13 -20 -18 -38 -10 -31 -10 -31 -8 12 2 43 0 46 -38 68 -54 31 -109
45 -171 45 -45 0 -53 3 -57 21 -3 12 -9 32 -12 45 -7 21 -6 22 21 11 16 -6
110 -40 209 -75z m-248 -101 c7 -111 2 -129 -28 -111 -19 12 -20 19 -15 88 4
41 9 95 13 120 5 41 7 43 16 20 5 -14 12 -66 14 -117z m1913 112 c0 -24 -2
-25 -80 -26 -44 -1 -86 -2 -92 -3 -7 -1 -14 9 -16 21 -3 21 1 22 80 26 46 1
89 4 96 5 7 1 12 -9 12 -23z m400 -19 c0 -69 -10 -74 -127 -60 l-53 7 0 38 0
38 83 4 c45 1 85 4 90 5 4 1 7 -13 7 -32z m-2390 -64 l0 -38 -97 4 c-54 2
-133 -1 -176 -5 l-77 -9 2 35 3 36 105 6 c58 3 135 6 173 7 l67 2 0 -38z m144
11 c-11 -45 -24 -51 -24 -10 0 26 4 37 15 37 12 0 14 -7 9 -27z m127 10 c53
-15 60 -19 54 -37 -3 -12 -9 -38 -12 -59 -5 -33 -9 -38 -27 -33 -12 3 -38 9
-58 12 l-38 7 0 63 c0 37 4 64 10 64 6 0 38 -8 71 -17z m1719 -2 c0 -16 -13
-19 -110 -27 -94 -8 -110 -7 -108 5 2 10 23 15 79 18 61 3 98 9 137 22 1 1 2
-7 2 -18z m0 -70 c0 -38 -11 -41 -131 -41 -96 0 -99 1 -99 23 0 21 4 22 83 23
45 1 93 6 107 12 37 16 40 15 40 -17z m390 -26 l0 -45 -37 0 c-21 0 -62 3 -90
6 -52 7 -53 8 -53 39 0 17 3 35 7 38 3 4 44 7 90 7 l83 0 0 -45z m-1875 -5
c48 -21 70 -44 61 -66 -5 -13 -15 -15 -48 -10 -66 11 -98 34 -98 74 0 37 3 37
85 2z m-521 -72 c-2 -46 -8 -105 -12 -133 l-7 -50 -45 4 c-25 1 -46 4 -48 5
-1 2 4 35 13 75 8 40 15 97 15 127 l0 54 45 0 45 0 -6 -82z m-128 15 c-10 -87
-28 -173 -36 -178 -5 -3 -41 -2 -82 1 l-75 7 8 46 c5 25 16 74 25 108 l17 62
41 4 c22 2 56 4 75 5 l33 2 -6 -57z m-210 37 l24 0 -20 -50 c-11 -28 -23 -75
-26 -106 -5 -42 -10 -54 -21 -50 -8 4 -26 6 -39 6 -32 0 -32 25 2 130 19 63
29 80 41 76 8 -3 25 -6 39 -6z m794 -77 c44 -15 123 -16 137 -2 7 7 19 1 40
-20 35 -34 105 -49 153 -33 28 10 30 9 30 -13 0 -13 2 -30 6 -38 4 -11 -43 -2
-183 34 -103 27 -203 49 -220 49 -41 0 -63 -37 -63 -106 0 -98 99 -145 403
-189 95 -14 219 -32 277 -40 199 -29 212 -26 224 58 l6 42 48 0 47 0 -2 35
c-1 34 -1 35 12 11 15 -28 7 -59 -40 -151 l-27 -53 -108 7 c-183 11 -352 37
-660 103 -204 44 -280 71 -353 128 -69 55 -89 107 -63 162 9 19 16 42 16 52 0
16 6 17 53 10 73 -10 135 -27 139 -40 7 -21 38 4 44 37 l6 34 22 -33 c12 -18
37 -37 56 -44z m1545 48 c-15 -14 -225 -26 -225 -13 0 7 35 12 93 15 50 1 103
4 117 5 14 1 20 -2 15 -7z m-1255 -30 c49 -23 47 -47 -4 -44 -48 3 -86 27 -86
53 0 17 4 19 28 14 15 -4 43 -14 62 -23z m1586 -1 l54 0 0 -50 0 -50 -44 0
c-24 0 -63 3 -87 6 l-44 6 4 50 c3 50 3 50 33 44 17 -3 55 -6 84 -6z m-1073
-20 c71 0 90 -14 33 -24 -36 -7 -124 10 -141 27 -7 6 -2 8 15 3 14 -3 55 -6
93 -6z m267 -7 c0 -16 -9 -18 -80 -15 -44 2 -80 7 -80 12 0 5 35 11 78 13 42
1 78 4 80 5 1 1 2 -6 2 -15z m149 6 c17 -6 31 -17 31 -25 0 -8 -2 -14 -5 -14
-14 0 -65 32 -65 40 0 12 0 12 39 -1z m311 -4 c0 -32 -23 -121 -34 -127 -6 -4
-43 -8 -82 -8 l-70 0 4 63 c2 34 6 63 7 65 3 3 111 17 158 21 9 0 17 -6 17
-14z m-1940 -91 c-7 -41 -18 -77 -23 -81 -6 -4 -8 0 -5 9 3 8 12 50 19 93 7
44 14 74 17 66 2 -7 -1 -47 -8 -87z m832 69 c22 -20 23 -46 2 -64 -20 -17 -34
2 -34 49 0 36 6 39 32 15z m143 -48 c27 -26 33 -55 12 -55 -14 0 -58 28 -69
44 -28 40 20 49 57 11z m645 -32 c0 -60 -75 -100 -100 -54 -14 26 -4 48 26 55
14 4 26 16 30 31 5 21 8 22 25 12 12 -8 19 -23 19 -44z m-1071 -2 c148 -40
422 -108 541 -133 63 -14 65 -15 68 -48 l3 -33 -53 6 c-54 6 -219 31 -449 66
-131 21 -246 56 -280 87 -12 11 -19 30 -19 56 0 49 2 49 189 -1z m928 21 c-28
-30 -22 -89 12 -122 34 -34 47 -88 28 -114 -10 -14 -21 -16 -64 -10 l-51 6 -4
52 c-2 28 -12 67 -21 85 -9 19 -17 39 -17 46 0 7 -9 20 -20 30 -11 10 -20 22
-20 26 0 5 35 10 78 12 42 1 81 4 86 5 5 1 2 -6 -7 -16z m198 -130 c-6 -9 -65
-19 -65 -11 0 5 5 9 11 9 14 0 39 62 41 102 0 18 4 4 8 -32 3 -36 6 -66 5 -68z
m-783 93 l18 -24 -33 10 c-17 5 -34 9 -36 9 -2 0 2 7 9 15 17 20 22 19 42 -10z
m218 -7 c46 -32 51 -50 10 -38 -39 11 -60 28 -60 46 0 20 12 17 50 -8z m1230
0 c0 -20 -19 -22 -119 -12 -95 10 -77 29 29 29 80 0 90 -2 90 -17z m-1310 -38
c0 -5 -7 -7 -15 -4 -8 4 -15 8 -15 10 0 2 7 4 15 4 8 0 15 -4 15 -10z m241
-41 c10 -20 9 -21 -33 -14 -23 5 -49 8 -55 8 -7 0 -13 4 -13 9 0 4 4 8 9 8 5
0 12 9 16 20 6 19 8 19 35 5 16 -8 34 -25 41 -36z m679 28 c0 -10 -30 -16
-110 -23 -95 -8 -110 -7 -110 6 0 12 11 14 52 12 41 -2 148 9 166 17 1 0 2 -5
2 -12z m-2343 -7 l66 0 -7 -32 c-4 -18 -10 -70 -13 -115 l-6 -83 -82 0 -82 0
5 25 c3 20 7 23 17 15 8 -6 33 -10 57 -8 41 3 44 5 57 46 7 23 10 53 7 66 -10
40 -95 59 -116 26 -11 -18 -12 -5 -4 39 5 23 11 30 21 27 8 -4 44 -6 80 -6z
m2937 -7 c4 -4 27 -6 53 -4 30 2 49 -2 54 -11 14 -22 11 -23 -41 -20 -32 3
-50 0 -50 -7 0 -6 16 -43 35 -81 24 -48 31 -70 22 -70 -13 0 -67 117 -67 145
0 8 -7 15 -15 15 -21 0 -19 -18 10 -69 14 -24 23 -46 21 -48 -3 -3 -12 9 -20
26 -28 53 -80 84 -165 97 l-76 12 108 1 c64 1 107 5 107 11 0 12 13 13 24 3z
m-2771 -25 c8 -27 9 -27 -30 -21 -24 4 -33 11 -33 24 0 29 56 26 63 -3z m2379
-9 c-41 -5 -113 -16 -160 -24 -48 -9 -118 -20 -157 -26 -84 -11 -167 -50 -250
-116 -89 -72 -81 -109 23 -112 20 -1 32 -6 32 -15 0 -13 -78 -26 -161 -26 -49
0 -47 6 42 125 107 145 101 141 273 165 81 12 155 19 163 16 9 -4 21 -2 27 3
11 10 86 16 191 18 39 0 34 -1 -23 -8z m573 -101 c28 -42 43 -74 36 -76 -26
-9 -9 -31 27 -36 20 -3 74 -13 118 -21 45 -8 92 -15 105 -15 l24 1 -25 15
c-23 14 -21 15 45 9 171 -14 185 -16 185 -37 0 -11 5 -28 10 -39 13 -24 19
-24 -97 7 -114 31 -272 36 -360 12 -29 -9 -58 -11 -65 -7 -22 14 -209 10 -302
-6 -48 -8 -125 -29 -173 -45 -58 -20 -106 -30 -146 -30 -54 0 -64 4 -108 39
-47 37 -51 39 -77 25 -39 -20 -50 -18 -54 11 -4 30 -22 34 -26 7 -4 -22 -48
-27 -71 -8 -11 8 -15 8 -18 -1 -7 -19 -53 -16 -53 2 0 12 14 15 64 15 41 0 68
5 73 13 4 6 10 44 13 82 4 62 7 70 27 73 20 3 21 1 12 -35 -14 -64 -11 -101
10 -113 11 -5 70 -10 132 -10 145 0 149 3 149 115 0 77 1 83 23 89 53 14 55
12 58 -79 3 -59 9 -88 19 -97 19 -17 321 -9 327 8 6 18 -16 22 -156 30 l-131
7 -5 33 c-3 19 -8 50 -11 71 l-5 36 85 -6 c50 -3 88 -2 91 4 4 5 10 9 14 9 14
0 88 -114 84 -127 -3 -8 5 -13 21 -13 17 0 29 -8 38 -27 9 -19 22 -29 40 -31
27 -3 27 -2 16 28 -6 17 -17 34 -24 37 -8 3 -14 14 -14 24 0 11 -11 42 -25 69
-22 44 -23 49 -7 53 49 13 59 7 107 -65z m-3144 42 c18 0 9 -40 -12 -51 -28
-14 -42 0 -33 35 4 18 11 25 21 22 8 -3 19 -6 24 -6z m187 -13 c8 -6 12 -27
10 -56 -3 -45 -4 -46 -40 -49 l-38 -3 0 59 c0 32 3 62 7 65 8 8 42 -1 61 -16z
m136 7 c17 -16 21 -77 10 -133 -6 -30 -8 -31 -61 -31 -49 0 -54 2 -48 18 17
40 24 89 18 125 -6 37 -5 37 30 37 20 0 43 -7 51 -16z m386 -9 c54 -15 111
-28 360 -80 168 -35 381 -65 458 -65 35 0 72 -5 83 -10 26 -15 25 -72 -2 -110
-15 -19 -20 -38 -17 -59 4 -28 1 -34 -27 -47 -29 -13 -55 -49 -55 -74 0 -5 12
-22 26 -39 18 -22 35 -31 55 -31 29 0 30 -2 27 -37 -3 -33 -7 -38 -30 -41 -24
-3 -28 0 -28 22 0 16 -14 41 -33 63 -26 28 -42 37 -73 39 -54 3 -55 4 -9 18
54 17 46 31 -18 31 -28 1 -64 4 -79 9 -18 5 -43 3 -75 -8 -33 -11 -83 -16
-175 -16 -122 0 -130 1 -168 26 -62 41 -118 43 -194 5 -67 -33 -126 -49 -126
-35 0 5 6 47 14 94 8 47 20 135 27 197 11 101 11 114 -5 137 -20 31 -14 32 64
11z m1848 -69 l1 -74 -52 -6 c-29 -3 -77 -2 -107 2 l-55 7 0 58 c0 56 1 57 30
62 26 4 137 20 171 24 6 1 11 -27 12 -73z m-2025 38 l77 -7 0 -42 c0 -23 -3
-56 -6 -74 l-6 -31 -77 6 c-42 3 -93 10 -114 16 -33 8 -38 12 -33 31 3 12 6
45 6 73 l0 52 38 -9 c20 -4 72 -11 115 -15z m1689 -79 l-4 -55 -64 0 c-35 0
-64 3 -64 8 0 4 9 21 19 38 16 26 69 56 111 63 3 1 3 -24 2 -54z m-360 21 l27
-6 -22 -49 c-14 -30 -30 -51 -42 -54 -11 -2 -28 -8 -37 -11 -15 -7 -15 -3 -2
51 21 81 22 83 36 79 7 -3 25 -7 40 -10z m179 -22 c-12 -15 -21 -33 -21 -40 0
-8 -11 -14 -25 -14 -34 0 -32 9 12 47 46 39 62 42 34 7z m-2018 -51 c29 4 45
2 42 -3 -4 -6 -18 -10 -32 -10 -15 0 -50 -14 -80 -30 l-53 -30 0 44 0 44 37
-10 c21 -6 59 -8 86 -5z m1702 -65 c-4 -24 -16 -65 -26 -91 -11 -26 -19 -67
-19 -90 0 -23 -5 -49 -11 -57 -8 -11 -9 0 -5 40 3 30 6 94 6 142 l0 87 28 4
c15 2 29 5 30 6 2 0 1 -18 -3 -41z m2015 23 c21 -40 1 -44 -24 -6 -14 21 -14
25 -2 25 9 0 20 -9 26 -19z m-3480 -10 c-95 -23 -129 -37 -136 -56 -10 -25 1
-28 35 -11 42 22 162 46 224 45 79 -1 162 -21 162 -39 0 -12 -29 -17 -140 -27
-77 -7 -163 -16 -191 -21 -39 -6 -56 -5 -73 6 -27 19 -124 42 -174 42 -49 0
-40 15 27 45 38 16 73 22 135 24 47 1 87 4 90 6 2 3 29 5 60 4 l56 -1 -75 -17z
m3283 -47 c45 -14 100 -30 122 -36 66 -18 75 -32 75 -110 l0 -68 -29 0 c-32 0
-60 -25 -45 -40 6 -6 22 -6 42 0 18 5 39 7 46 4 26 -10 39 26 40 106 1 89 16
106 42 45 44 -105 -11 -175 -140 -175 -53 0 -66 3 -66 15 0 28 -49 112 -80
139 -61 50 -203 31 -319 -44 -34 -22 -64 -40 -66 -40 -3 0 -5 15 -5 34 0 45
-16 86 -34 86 -8 0 -15 13 -18 35 -2 20 0 35 7 35 5 0 24 7 40 16 74 39 256
38 388 -2z m-1141 -34 c57 -38 65 -40 134 -40 l74 0 0 -74 0 -75 -67 6 c-72 6
-177 -14 -220 -42 -20 -13 -22 -13 -30 8 -4 12 -6 69 -4 127 2 82 6 108 19
118 23 18 28 16 94 -28z m-1815 8 c-3 -8 -6 -5 -6 6 -1 11 2 17 5 13 3 -3 4
-12 1 -19z m1217 -47 c8 -7 50 -4 135 10 68 11 127 17 130 13 3 -3 6 -20 7
-37 0 -18 4 -39 8 -48 5 -12 -6 -19 -55 -34 -44 -13 -73 -29 -101 -57 -42 -42
-74 -48 -131 -25 -50 21 -62 42 -59 105 3 65 44 156 50 109 2 -14 9 -30 16
-36z m1271 -8 c-4 -38 -11 -82 -16 -100 l-10 -32 -39 39 c-49 49 -101 66 -155
51 -60 -16 -100 -45 -118 -84 -15 -32 -19 -34 -49 -28 l-33 7 -5 78 c-3 48 -1
80 5 81 41 11 340 53 378 54 l49 1 -7 -67z m-835 52 c0 -18 -64 -127 -68 -116
-5 15 48 121 61 121 4 0 7 -2 7 -5z m-100 -14 c0 -6 -4 -13 -10 -16 -5 -3 -10
1 -10 9 0 9 5 16 10 16 6 0 10 -4 10 -9z m50 5 c0 -18 -33 -75 -40 -71 -12 8
-12 17 0 49 5 14 16 26 25 26 8 0 15 -2 15 -4z m-2314 -55 c-5 -8 -13 -8 -29
1 -21 11 -21 11 -2 18 23 9 41 -3 31 -19z m59 -139 c-12 -12 -13 7 -7 83 l7
80 3 -79 c2 -43 0 -81 -3 -84z m143 129 c10 -12 12 -34 7 -81 -3 -36 -9 -68
-13 -71 -4 -3 -26 -4 -49 -1 l-43 4 0 67 c0 36 -3 76 -7 89 -6 23 -5 23 43 17
27 -4 55 -15 62 -24z m462 19 c0 -5 -4 -10 -8 -10 -5 0 -59 -7 -120 -15 -61
-8 -119 -12 -127 -9 -31 12 -13 23 53 29 37 3 74 8 82 9 36 8 120 5 120 -4z
m1695 -43 c-15 -36 -35 -57 -35 -37 0 18 43 96 47 84 2 -6 -3 -27 -12 -47z
m-1988 -11 l50 -25 118 19 c65 11 120 18 121 17 8 -7 -9 -46 -18 -41 -16 10
-106 6 -130 -7 -13 -6 -44 -28 -69 -49 -46 -39 -63 -43 -159 -41 l-46 1 1 79
0 78 41 -2 c23 -2 64 -15 91 -29z m2883 -50 c0 -40 -19 -106 -30 -106 -7 0 -2
110 6 149 8 36 24 7 24 -43z m-3240 24 c0 -32 -9 -37 -28 -18 -19 19 -15 48 8
48 16 0 20 -7 20 -30z m1730 -10 c0 -46 -16 -52 -46 -19 -19 21 -18 21 5 40
34 28 41 24 41 -21z m626 -7 c-11 -11 -19 6 -11 24 8 17 8 17 12 0 3 -10 2
-21 -1 -24z m693 23 c30 -16 91 -80 91 -96 0 -6 7 -10 16 -10 9 0 14 -6 12
-12 -6 -18 -61 -25 -245 -31 l-163 -5 0 24 c0 22 4 24 44 24 38 0 46 4 51 23
23 74 125 118 194 83z m-2074 -6 c14 -6 0 -9 -45 -8 -47 0 -58 2 -40 8 33 11
60 11 85 0z m321 -49 c-4 -6 -24 -15 -46 -21 -40 -11 -79 -6 -115 14 -16 9 -3
12 70 16 100 6 100 6 91 -9z m179 -3 l26 -23 -21 -40 c-14 -26 -19 -51 -16
-72 3 -21 0 -33 -10 -37 -7 -3 -178 -2 -379 1 -389 7 -394 7 -381 55 3 13 26
44 50 69 43 43 49 46 113 52 129 13 188 9 216 -13 38 -30 92 -50 134 -50 36 0
68 13 153 61 46 25 83 24 115 -3z m-841 -9 c14 -11 26 -28 26 -36 0 -13 -5
-11 -25 7 -48 45 -116 26 -150 -41 -18 -35 -2 -63 20 -35 15 20 15 20 15 -1 0
-27 34 -55 67 -55 17 0 36 10 52 28 l24 29 -7 -30 c-4 -16 -17 -41 -29 -53
-18 -20 -29 -23 -62 -19 -49 7 -89 48 -105 107 -13 47 -32 49 -41 4 l-7 -29
-1 32 c-1 26 6 37 47 66 56 41 66 45 113 46 23 1 46 -7 63 -20z m106 7 c0 -2
-7 -9 -15 -16 -13 -11 -14 -10 -9 4 5 14 24 23 24 12z m2718 -16 c-78 -61 -48
-190 44 -190 36 0 76 38 84 79 4 17 17 38 31 46 20 13 23 22 18 43 -6 26 -6
26 13 8 11 -9 23 -29 26 -43 9 -33 -34 -126 -68 -148 -35 -23 -96 -30 -139
-16 -40 13 -97 63 -117 101 -12 23 -9 27 49 82 34 32 67 58 73 58 6 0 -1 -9
-14 -20z m122 -10 c6 -11 9 -20 7 -20 -2 0 -12 9 -22 20 -10 11 -13 20 -7 20
6 0 16 -9 22 -20z m-1432 -20 c-5 -17 -7 -43 -4 -58 5 -25 5 -25 -11 5 -13 26
-14 37 -5 58 17 36 33 32 20 -5z m550 14 c16 -5 22 -14 22 -35 0 -27 -2 -29
-42 -29 -24 0 -94 -3 -157 -7 -113 -6 -113 -6 -100 15 11 18 49 39 99 56 22 7
151 7 178 0z m-423 -43 c10 -18 -16 -23 -34 -7 -10 9 -23 16 -29 16 -13 0 -16
13 -6 23 7 7 60 -18 69 -32z m-669 4 c24 -25 25 -27 10 -48 -9 -12 -19 -30
-22 -39 -3 -9 -12 -19 -20 -22 -11 -4 -12 -2 -4 14 14 26 12 60 -4 93 -13 24
-13 27 0 27 8 0 26 -11 40 -25z m744 -11 c0 -32 -25 -80 -45 -88 -9 -3 -29 -6
-43 -6 -25 1 -26 1 -7 12 43 24 75 62 75 90 0 17 4 27 10 23 6 -3 10 -17 10
-31z m-1791 23 c-2 -1 -13 -9 -24 -17 -19 -14 -19 -14 -6 3 7 9 18 17 24 17 6
0 8 -1 6 -3z m56 -7 c8 -13 -5 -13 -25 0 -13 8 -13 10 2 10 9 0 20 -4 23 -10z
m-402 -15 c123 0 127 -1 107 -17 -32 -26 -85 -32 -173 -21 -59 8 -85 17 -101
33 l-21 21 30 -8 c17 -4 88 -8 158 -8z m3263 -9 c7 -28 -2 -49 -17 -41 -12 8
-12 65 1 65 5 0 12 -11 16 -24z m-3103 -19 c-3 -21 1 -46 11 -65 18 -36 10
-41 -37 -23 -34 13 -43 42 -19 61 10 9 24 26 31 38 16 31 21 27 14 -11z m1566
10 c44 -8 72 -7 91 0 27 10 30 9 39 -20 l11 -30 -61 7 c-34 3 -96 6 -138 6
-65 1 -74 2 -58 14 9 7 17 21 17 31 0 13 5 15 18 10 9 -5 46 -13 81 -18z
m1611 -15 c0 -28 -16 -52 -34 -52 -6 0 -5 5 2 12 7 7 12 25 12 40 0 15 5 28
10 28 6 0 10 -13 10 -28z m-2020 -8 c0 -8 -4 -12 -10 -9 -5 3 -10 13 -10 21 0
8 5 12 10 9 6 -3 10 -13 10 -21z m1790 -25 c0 -11 -38 -11 -150 -1 l-85 7 85
5 c97 6 150 2 150 -11z m-3110 -28 c0 -5 3 -18 7 -28 6 -17 5 -17 -15 1 -26
22 -28 36 -7 36 8 0 15 -4 15 -9z m452 -33 c-7 -7 -12 -8 -12 -2 0 6 3 14 7
17 3 4 9 5 12 2 2 -3 -1 -11 -7 -17z"/>
<path d="M4857 7223 c-10 -10 -8 -88 3 -117 16 -44 43 -32 75 33 28 60 29 96
1 85 -8 -3 -18 -14 -21 -25 -7 -22 -25 -26 -25 -5 0 17 -24 38 -33 29z"/>
<path d="M6417 6140 c-15 -10 -17 -24 -11 -138 3 -70 8 -138 11 -152 6 -25 6
-25 13 5 4 17 8 81 9 143 l1 112 83 0 c83 0 121 10 97 25 -21 13 -183 17 -203
5z"/>
<path d="M6672 6118 c5 -15 48 -18 48 -3 0 6 -11 11 -26 13 -18 3 -25 0 -22
-10z"/>
<path d="M4616 5388 c-19 -59 -11 -187 12 -210 6 -6 72 -21 149 -34 106 -19
193 -26 379 -31 132 -3 252 -3 267 1 38 9 44 45 18 100 -12 24 -29 47 -38 50
-9 4 -91 18 -182 32 -91 14 -256 43 -367 64 -221 44 -233 45 -238 28z m138
-49 c5 -8 -26 -129 -34 -129 -5 0 -20 4 -34 10 -24 9 -26 14 -26 68 0 32 2 61
5 64 6 5 84 -6 89 -13z m92 -17 c7 -4 9 -32 6 -72 l-4 -66 -35 4 c-33 4 -35 6
-29 36 4 17 9 48 13 69 5 37 23 47 49 29z m159 -28 c8 -3 11 -22 8 -57 -6 -75
-4 -73 -69 -67 l-59 5 2 45 c4 88 8 93 60 85 25 -4 51 -9 58 -11z m109 -39
c-4 -8 -8 -15 -10 -15 -2 0 -4 7 -4 15 0 8 4 15 10 15 5 0 7 -7 4 -15z m52
-16 c-3 -17 -6 -42 -6 -55 0 -23 -3 -24 -61 -24 -59 0 -61 1 -55 23 3 12 6 29
6 37 0 9 12 2 29 -19 33 -40 48 -35 57 17 8 44 12 52 26 52 6 0 8 -12 4 -31z
m134 5 c28 -5 40 -26 22 -38 -5 -3 -30 -2 -58 2 -41 6 -50 11 -52 31 -3 21 -1
22 27 17 17 -3 45 -9 61 -12z m94 -45 c19 -32 16 -45 -7 -36 -14 5 -30 67 -17
67 3 0 14 -14 24 -31z m-91 -29 c9 0 17 -3 17 -7 0 -5 -25 -6 -55 -5 -30 2
-55 9 -55 14 0 7 14 8 38 4 20 -3 45 -6 55 -6z"/>
<path d="M4051 5066 c-18 -21 -24 -72 -12 -95 13 -23 50 -28 69 -9 16 16 15
83 0 95 -24 18 -47 22 -57 9z m39 -62 c0 -8 -4 -14 -10 -14 -5 0 -10 9 -10 21
0 11 5 17 10 14 6 -3 10 -13 10 -21z"/>
<path d="M7120 4584 c-90 -14 -149 -28 -180 -44 -26 -13 -41 -15 -60 -8 -14 5
-83 7 -160 4 -74 -4 -191 -8 -260 -11 -69 -3 -126 -9 -128 -14 -1 -4 -6 -44
-10 -87 l-8 -79 -33 72 c-30 65 -38 74 -75 88 -22 8 -65 16 -95 17 l-54 3 -37
-73 c-25 -50 -39 -69 -43 -58 -8 19 -105 64 -157 72 l-38 6 -19 -53 c-11 -30
-46 -132 -78 -226 -32 -95 -61 -173 -65 -173 -4 0 -11 16 -15 36 -18 100 -99
353 -123 388 -14 21 -28 33 -30 27 -6 -17 -73 -13 -93 5 -28 25 -86 35 -194
34 -155 -1 -283 -19 -299 -41 -12 -18 -13 -18 -32 2 -28 32 -113 69 -160 69
-56 0 -132 -15 -236 -47 -84 -25 -88 -27 -88 -55 l0 -29 -47 36 c-25 19 -72
42 -102 50 -31 9 -78 22 -106 29 -60 17 -206 7 -274 -18 -24 -9 -52 -16 -62
-16 -11 0 -19 -3 -20 -7 -2 -23 -11 -649 -10 -707 1 -38 6 -75 12 -83 12 -14
130 -18 187 -7 39 8 44 20 51 129 l6 90 102 12 c113 13 145 26 208 84 l43 40
7 -78 c3 -43 9 -94 11 -113 3 -19 7 -60 11 -90 9 -90 33 -104 131 -75 58 18
72 36 72 93 0 58 16 66 81 39 30 -12 56 -24 59 -27 3 -3 14 -7 25 -7 12 -1 51
-14 88 -28 54 -22 70 -25 82 -15 13 11 15 7 15 -26 0 -70 -7 -68 245 -67 171
0 229 4 235 13 4 7 11 35 14 62 9 69 -8 93 -78 109 l-54 12 -7 181 c-4 99 -5
201 -3 226 3 42 5 45 35 48 31 3 32 2 38 -45 4 -26 20 -113 37 -193 16 -80 35
-181 43 -225 9 -44 18 -87 21 -95 3 -8 8 -26 10 -40 8 -41 26 -50 112 -57 l82
-6 34 38 35 38 120 -6 c84 -3 123 -1 129 7 5 6 24 57 42 114 l33 103 69 -7
c134 -13 129 -10 155 -94 12 -41 23 -82 23 -91 0 -8 6 -24 14 -34 12 -17 25
-19 97 -16 46 1 88 6 93 11 5 5 2 36 -7 72 -32 135 -80 308 -114 411 -19 60
-33 110 -31 113 3 2 45 7 95 10 l90 7 6 -51 c3 -27 4 -160 2 -294 -5 -306 -10
-292 117 -286 71 3 93 8 103 22 22 29 28 123 26 362 l-2 231 62 7 c34 3 63 5
64 4 4 -7 -18 -355 -29 -461 -9 -89 -9 -123 0 -134 9 -14 32 -15 170 -9 236
10 386 24 398 36 5 5 20 10 33 10 30 0 43 28 43 89 0 38 -4 53 -17 59 -10 5
-94 12 -188 16 -93 4 -174 11 -179 16 -4 4 -9 44 -10 87 l-1 78 170 -4 c197
-4 190 -7 206 90 15 96 2 103 -248 115 l-143 7 0 44 c0 38 3 43 23 43 12 0 87
5 166 10 176 11 185 16 179 102 -6 88 -6 88 -182 87 -83 -1 -162 -3 -176 -5z
m320 -65 c0 -5 -4 -9 -10 -9 -5 0 -10 7 -10 16 0 8 5 12 10 9 6 -3 10 -10 10
-16z m-442 -22 c-24 -19 -28 -30 -28 -72 0 -63 -7 -55 -15 18 -6 53 -5 58 17
66 42 17 54 11 26 -12z m-2388 -7 c-19 -13 -30 -13 -30 0 0 6 10 10 23 10 18
0 19 -2 7 -10z m-151 -45 c-20 -13 -39 -31 -42 -40 -9 -23 -24 -18 -29 10 -5
22 0 26 41 39 66 20 70 19 30 -9z m1929 8 c-9 -10 -18 -25 -21 -33 -3 -8 -6 0
-6 18 -1 26 3 32 21 32 19 0 20 -2 6 -17z m-1448 -12 c0 -11 -39 -21 -45 -11
-2 4 -2 10 2 14 10 9 43 7 43 -3z m-1140 -5 c0 -2 -3 -11 -6 -20 -9 -23 -24
-20 -24 4 0 11 7 20 15 20 8 0 15 -2 15 -4z m3088 -77 c-7 -5 -26 -8 -43 -8
l-30 1 33 9 c21 6 32 16 32 28 0 30 15 35 18 6 2 -16 -2 -32 -10 -36z m-1550
10 c-2 -19 -10 -25 -38 -27 l-35 -2 25 15 c19 11 21 14 8 15 -25 0 -22 15 5
27 27 13 40 3 35 -28z m596 13 c2 -4 -7 -32 -20 -62 -20 -44 -24 -48 -18 -20
4 19 8 47 8 63 1 25 19 37 30 19z m-1843 -64 c84 -28 115 -78 84 -138 -10 -20
-22 -30 -30 -26 -8 3 -17 1 -19 -3 -6 -9 -144 -6 -154 4 -4 4 -7 39 -7 78 l0
72 35 12 c45 15 50 15 91 1z m949 -228 l0 -240 -26 -10 c-38 -15 -46 -12 -39
11 6 17 -6 35 -60 89 l-68 68 22 30 c43 61 62 122 64 209 l2 83 53 0 52 0 0
-240z m-333 197 c27 -27 9 -63 -39 -81 -69 -25 -91 -24 -105 3 -23 41 -16 78
15 90 36 14 110 7 129 -12z m1431 -136 c10 -28 9 -32 -3 -27 -9 3 -15 0 -15
-9 0 -8 -9 -15 -20 -15 -24 0 -25 8 -4 60 18 45 25 43 42 -9z m1318 -8 c-5
-12 -10 -13 -18 -5 -8 8 -8 15 3 28 15 18 25 4 15 -23z m-1605 -80 c-12 -20
-14 -14 -5 12 4 9 9 14 11 11 3 -2 0 -13 -6 -23z m-88 -295 c-13 -12 -25 -19
-29 -15 -10 10 16 37 34 37 13 0 12 -4 -5 -22z m187 2 c0 -15 -6 -20 -27 -19
-16 0 -22 3 -13 6 8 3 19 12 23 19 11 19 17 17 17 -6z m500 -11 c14 -26 13
-29 -14 -29 -23 0 -42 32 -30 51 7 12 33 -1 44 -22z m-620 6 c0 -9 -9 -15 -24
-15 -28 0 -43 16 -24 23 26 11 48 7 48 -8z m1093 -10 c-3 -9 -8 -14 -10 -11
-3 3 -2 9 2 15 9 16 15 13 8 -4z m-329 -16 c3 1 6 -2 6 -6 0 -18 -25 -6 -28
12 -2 15 -1 16 6 7 5 -8 12 -13 16 -13z m-1069 -39 c3 -5 1 -10 -4 -10 -6 0
-11 5 -11 10 0 6 2 10 4 10 3 0 8 -4 11 -10z m115 -5 c-7 -9 -15 -13 -17 -11
-7 7 7 26 19 26 6 0 6 -6 -2 -15z"/>
</g>
</svg>
