<?xml version="1.0" standalone="no"?>
<!DOCTYPE svg PUBLIC "-//W3C//DTD SVG 20010904//EN"
 "http://www.w3.org/TR/2001/REC-SVG-20010904/DTD/svg10.dtd">
<svg version="1.0" xmlns="http://www.w3.org/2000/svg"
 width="1024.000000pt" height="1024.000000pt" viewBox="0 0 1024.000000 1024.000000"
 preserveAspectRatio="xMidYMid meet">

<g transform="translate(0.000000,1024.000000) scale(0.100000,-0.100000)"
fill="#000000" stroke="none">
<path d="M4850 8106 c0 -13 -11 -48 -24 -77 -13 -30 -29 -77 -35 -106 -7 -29
-21 -62 -32 -74 -10 -12 -16 -26 -13 -30 13 -21 22 -115 12 -126 -6 -7 -7 -24
-4 -38 7 -27 -39 -130 -68 -154 -20 -17 -20 -39 -2 -60 18 -21 29 -121 17
-152 -9 -23 -10 -23 -10 8 -1 17 -5 34 -10 38 -21 13 -31 -40 -31 -169 l0
-135 -34 -7 c-19 -3 -39 -3 -45 0 -5 4 -13 31 -17 62 -8 66 -27 83 -106 90
-43 4 -60 1 -92 -18 -62 -36 -81 -69 -81 -141 l0 -62 -55 -6 c-70 -8 -135 -41
-155 -79 -17 -33 -20 -96 -5 -134 9 -25 58 -46 110 -46 14 0 32 -5 40 -10 25
-16 -1 -30 -76 -41 -38 -6 -84 -12 -102 -15 -71 -11 -141 -113 -129 -189 9
-55 44 -95 111 -126 73 -34 163 -46 225 -29 57 15 129 83 184 173 53 88 67 97
107 73 30 -17 45 -17 104 1 18 5 18 0 13 -103 -4 -60 -9 -167 -13 -237 -5 -87
-10 -127 -18 -124 -6 2 -90 31 -186 63 -269 89 -335 81 -475 -58 -83 -84 -100
-113 -149 -260 -42 -125 -53 -183 -38 -200 7 -9 6 -33 -4 -78 -20 -94 -29
-271 -16 -308 10 -28 8 -33 -25 -62 -37 -34 -37 -36 -15 -124 6 -21 23 -51 37
-67 17 -17 25 -34 21 -44 -3 -9 1 -29 9 -44 l14 -29 -67 -22 c-130 -44 -287
-115 -287 -130 0 -22 36 -24 124 -6 102 21 323 22 315 2 -8 -22 26 -48 55 -42
78 16 320 27 391 17 97 -13 920 -25 939 -13 8 6 11 18 7 30 -6 19 -1 20 91 27
112 7 247 21 348 35 108 14 209 12 241 -5 45 -23 115 -19 157 10 l37 24 503
-8 504 -9 49 -25 c27 -13 63 -28 80 -31 51 -11 122 12 163 54 20 21 48 40 64
44 36 9 35 45 -3 58 -8 3 23 5 70 4 79 0 89 2 143 33 36 21 62 44 68 60 16 40
12 126 -7 166 -20 43 -47 59 -85 51 -27 -5 -28 -4 -19 14 12 22 13 80 2 95
-17 25 -65 45 -104 45 -24 0 -136 5 -250 12 l-208 12 -65 113 c-36 62 -65 121
-65 131 0 52 -86 64 -139 19 -18 -15 -44 -27 -58 -27 l-25 0 9 168 c11 223 9
492 -4 500 -6 4 -17 21 -26 39 -39 76 -160 131 -334 154 -147 19 -291 -16
-366 -89 -38 -37 -38 -38 -35 -105 2 -37 2 -67 1 -67 -1 0 -17 29 -37 64 -20
36 -45 68 -56 71 -11 4 -20 11 -20 17 0 6 -7 16 -15 22 -17 12 -19 43 -9 119
3 27 2 53 -3 58 -6 6 -3 29 8 62 10 29 18 67 19 85 0 17 4 32 10 32 15 0 344
51 347 53 1 2 -2 8 -6 15 -5 9 -52 16 -142 23 -214 14 -203 10 -223 78 -23 76
-64 116 -146 142 -103 32 -130 27 -202 -34 -55 -46 -86 -93 -103 -153 -2 -8
-63 -12 -73 -5 -12 7 -11 14 2 39 9 17 16 38 16 46 0 26 -44 67 -79 74 l-33 7
1 128 c2 119 1 127 -17 127 -25 0 -32 -39 -32 -200 0 -151 -4 -170 -36 -170
l-23 0 2 222 c2 198 0 223 -14 226 -9 2 -19 -5 -23 -14 -4 -10 -10 -114 -13
-231 -5 -190 -8 -213 -23 -213 -13 0 -16 7 -12 33 2 17 10 38 16 46 8 11 8 15
-2 19 -10 3 -11 40 -6 169 7 159 6 165 -12 161 -11 -2 -20 -13 -22 -26 l-3
-23 -36 22 c-26 16 -50 22 -94 21 -60 -1 -89 -11 -125 -44 l-22 -19 -6 36 c-4
21 -5 39 -3 42 3 2 83 8 179 12 96 4 183 13 193 18 10 6 26 8 36 6 12 -3 18 2
21 16 3 21 3 21 40 -4 20 -14 39 -25 42 -25 18 0 1 40 -34 81 -22 26 -40 55
-40 65 0 18 -17 48 -90 160 -36 54 -48 83 -53 125 -10 85 -93 280 -142 333
-31 33 -55 34 -55 2z m73 -172 l33 -80 -65 4 c-36 3 -67 6 -69 7 -2 2 11 37
29 79 18 42 33 75 35 74 1 -2 18 -39 37 -84z m-29 -179 c-2 -64 -14 -70 -14
-7 0 29 3 52 8 52 4 0 6 -20 6 -45z m54 0 c1 -25 -3 -45 -8 -45 -6 0 -10 15
-10 33 0 18 -5 38 -12 45 -9 9 -8 12 8 12 16 0 20 -7 22 -45z m-118 6 c0 -16
3 -36 6 -45 4 -12 0 -16 -15 -16 -18 0 -21 6 -21 45 0 33 4 45 15 45 10 0 15
-10 15 -29z m180 -38 c0 -7 -4 -13 -10 -13 -5 0 -10 12 -10 28 0 21 2 24 10
12 5 -8 10 -21 10 -27z m26 -95 c9 -18 33 -50 53 -71 l36 -38 -45 3 -45 3 -16
60 c-22 80 -13 102 17 43z m-191 -56 l0 -67 -47 -3 c-27 -2 -48 0 -48 3 0 4
11 21 25 39 14 18 25 36 25 39 0 19 21 57 32 57 9 0 13 -19 13 -68z m70 -34
c6 -25 5 -28 -17 -28 l-24 0 10 68 c10 66 11 66 17 27 3 -22 9 -52 14 -67z
m58 20 c15 -46 15 -48 -2 -48 -22 0 -31 27 -30 90 0 48 3 45 32 -42z m114
-150 c-2 -13 -4 -5 -4 17 -1 22 1 32 4 23 2 -10 2 -28 0 -40z m-47 28 c0 -8 3
-21 6 -30 5 -12 0 -16 -20 -16 -22 0 -26 4 -26 30 0 23 4 30 20 30 11 0 20 -6
20 -14z m-125 -26 c0 -18 -6 -26 -22 -28 -20 -3 -23 1 -23 28 0 27 3 31 23 28
16 -2 22 -10 22 -28z m55 5 c0 -14 -4 -25 -10 -25 -5 0 -10 11 -10 25 0 14 5
25 10 25 6 0 10 -11 10 -25z m-210 -16 c0 -10 -4 -19 -10 -19 -5 0 -10 12 -10
26 0 14 4 23 10 19 6 -3 10 -15 10 -26z m75 6 c0 -11 -8 -21 -17 -23 -14 -3
-18 3 -18 23 0 20 4 26 18 23 9 -2 17 -12 17 -23z m305 -1 c0 -14 -4 -23 -10
-19 -5 3 -10 15 -10 26 0 10 5 19 10 19 6 0 10 -12 10 -26z m-164 -178 c13 -9
28 -25 34 -35 9 -17 6 -20 -22 -23 -44 -4 -44 -31 -1 -38 l32 -5 -16 -32 c-8
-18 -31 -43 -51 -55 l-35 -22 -15 22 c-18 27 -32 28 -32 2 0 -28 -13 -25 -54
14 -35 32 -47 66 -25 66 7 0 9 9 6 22 -7 26 15 71 45 92 26 19 99 14 134 -8z
m-461 -116 c9 -8 15 -29 15 -56 0 -35 5 -47 25 -60 20 -13 31 -14 56 -5 38 13
48 7 31 -19 -7 -12 -8 -21 -2 -25 6 -3 10 -28 10 -55 0 -45 -2 -49 -31 -59
-39 -13 -37 -45 4 -49 l27 -3 0 -109 0 -109 -47 -7 c-29 -4 -53 -3 -65 5 -48
30 -79 10 -142 -96 -51 -86 -124 -150 -182 -159 -51 -7 -115 6 -191 41 -83 37
-108 94 -75 169 28 62 65 82 166 91 97 9 136 26 136 60 0 29 -23 43 -86 52
-26 3 -55 14 -66 25 -26 26 -23 80 7 117 28 32 62 46 143 56 62 8 72 22 65 85
-6 52 19 93 71 116 35 16 108 13 131 -6z m182 -107 c-2 -21 -4 -6 -4 32 0 39
2 55 4 38 2 -18 2 -50 0 -70z m329 -8 c-3 -8 -15 -15 -27 -15 l-22 0 24 26
c23 24 37 19 25 -11z m-212 -12 c16 -9 14 -11 -18 -15 -34 -4 -36 -3 -36 26 0
27 1 28 18 14 9 -8 26 -20 36 -25z m474 -24 c35 -12 48 -39 33 -68 -31 -57 7
-109 67 -92 31 9 32 8 32 -18 0 -23 -5 -30 -27 -34 -16 -3 -50 -24 -77 -46
-26 -23 -57 -41 -67 -41 -17 0 -19 8 -19 64 0 36 5 68 10 71 6 4 8 15 5 26 -6
17 3 149 10 149 1 0 16 -5 33 -11z m-261 -71 c-2 -13 -4 -5 -4 17 -1 22 1 32
4 23 2 -10 2 -28 0 -40z m-94 5 c5 -25 3 -33 -8 -33 -15 0 -22 50 -8 63 8 9 9
8 16 -30z m55 4 c2 -19 -1 -27 -12 -27 -11 0 -16 10 -16 31 0 38 24 35 28 -4z
m-158 -12 c0 -29 -4 -35 -21 -35 -15 0 -19 4 -15 16 3 9 6 24 6 35 0 10 7 19
15 19 10 0 15 -11 15 -35z m50 -7 c0 -10 -4 -18 -10 -18 -5 0 -10 15 -10 33 0
24 3 28 10 17 5 -8 10 -23 10 -32z m-180 -32 c-15 -15 -21 -2 -13 35 l7 34 8
-30 c4 -17 3 -34 -2 -39z m70 34 c0 -16 -4 -30 -10 -30 -5 0 -10 14 -10 30 0
17 5 30 10 30 6 0 10 -13 10 -30z m403 -59 c5 -5 4 -75 -1 -157 l-9 -149 -2
136 c-1 101 -5 139 -14 148 -8 6 -16 8 -19 6 -3 -3 -8 4 -11 16 -5 18 -3 20
21 14 15 -3 31 -10 35 -14z m-95 -173 l-3 -183 -23 -3 -24 -4 7 124 c4 68 11
139 16 158 5 19 9 47 9 63 0 15 5 27 10 27 7 0 10 -63 8 -182z m-72 90 c-4
-46 -11 -125 -15 -176 -4 -51 -11 -95 -15 -99 -3 -3 -4 13 -1 38 2 24 7 106
11 182 4 84 10 137 16 137 7 0 8 -28 4 -82z m-72 -70 c-10 -227 -22 -247 -23
-40 -1 156 1 182 14 182 13 0 14 -19 9 -142z m-64 -43 c0 -110 -4 -175 -10
-175 -6 0 -10 60 -10 160 0 136 -2 162 -15 167 -9 3 -18 3 -21 0 -3 -2 -8 -77
-11 -166 -5 -122 -9 -161 -19 -161 -10 0 -12 37 -11 170 l2 169 30 4 c71 9 65
25 65 -168z m1150 154 l55 -1 -60 -14 c-92 -20 -125 -19 -125 7 0 19 4 21 38
15 20 -3 62 -6 92 -7z m-1285 -131 c-12 -216 -23 -235 -24 -40 -1 152 1 172
15 172 15 0 16 -14 9 -132z m829 11 c5 -11 -2 -22 -19 -33 l-26 -17 6 48 c3
26 9 64 12 83 6 35 6 35 14 -15 4 -27 10 -57 13 -66z m-154 12 c0 -68 13 -96
59 -128 23 -16 42 -39 46 -55 3 -14 18 -39 31 -53 18 -20 22 -31 15 -38 -18
-18 -12 -54 12 -74 22 -18 22 -19 19 -255 l-4 -238 -89 0 -90 0 3 178 c3 152
1 177 -12 177 -19 0 -26 -46 -36 -247 -4 -87 -10 -158 -13 -158 -4 0 -6 28 -4
63 1 34 4 127 6 207 4 154 15 198 57 220 11 6 18 15 15 20 -3 4 14 11 37 15
57 10 78 22 78 46 0 27 -28 35 -101 29 -71 -6 -93 -25 -71 -61 11 -17 10 -24
-12 -49 -43 -51 -50 -92 -50 -287 -1 -195 -1 -194 -51 -171 l-25 11 0 398 1
398 29 6 c17 4 54 27 82 51 29 24 55 44 60 44 4 0 8 -22 8 -49z m315 -67 c25
-10 47 -62 40 -95 -19 -85 -147 -91 -190 -9 -25 49 -20 79 18 95 33 15 104 19
132 9z m87 -189 c-3 -16 -8 -35 -13 -40 -11 -15 -11 -388 0 -418 5 -14 7 -50
4 -81 l-6 -56 -76 0 -77 0 -1 40 c-2 29 2 40 13 40 19 0 18 16 -1 24 -22 8
-18 36 5 36 26 0 26 17 -1 25 -16 5 -18 9 -8 21 9 11 9 18 1 26 -17 17 -15 39
6 54 15 12 15 15 2 23 -12 9 -12 11 3 17 23 9 21 21 -5 30 -21 6 -21 7 -3 20
18 14 18 14 0 28 -18 13 -18 14 3 27 27 17 28 29 2 29 -11 0 -20 5 -20 10 0 6
-1 13 -2 16 -2 4 15 9 37 11 57 5 109 64 70 79 -12 5 -7 15 20 47 19 22 35 48
36 56 1 9 4 5 9 -9 4 -14 5 -38 2 -55z m-734 3 c-4 -31 -58 -40 -58 -10 0 25
8 32 37 32 20 0 24 -5 21 -22z m-101 -20 c-3 -7 -5 -2 -5 12 0 14 2 19 5 13 2
-7 2 -19 0 -25z m-107 8 c0 -8 -4 -17 -9 -21 -12 -7 -24 12 -16 25 9 15 25 12
25 -4z m47 -8 c-3 -8 -6 -5 -6 6 -1 11 2 17 5 13 3 -3 4 -12 1 -19z m-117 -3
c0 -8 -9 -15 -20 -15 -20 0 -26 11 -13 23 12 13 33 7 33 -8z m-80 -5 c0 -5 -4
-10 -10 -10 -5 0 -10 5 -10 10 0 6 5 10 10 10 6 0 10 -4 10 -10z m1717 2 c8
-5 3 -13 -16 -23 -26 -15 -29 -15 -55 7 l-27 24 43 0 c24 0 48 -4 55 -8z
m-777 -12 l25 -8 -25 -1 c-14 0 -32 4 -40 9 -13 9 -13 10 0 9 8 -1 26 -5 40
-9z m-580 -85 l0 -65 -38 0 -38 0 4 43 c6 79 10 87 42 87 l30 0 0 -65z m-167
-7 c-8 -84 -13 -86 -13 -5 0 37 4 67 9 67 5 0 7 -28 4 -62z m-116 -16 c-4 -50
-7 -57 -26 -60 -22 -3 -22 -2 -15 55 11 94 48 98 41 5z m73 8 c0 -47 -3 -60
-15 -60 -12 0 -15 13 -15 60 0 47 3 60 15 60 12 0 15 -13 15 -60z m97 -17 c-2
-16 -4 -3 -4 27 0 30 2 43 4 28 2 -16 2 -40 0 -55z m-247 2 c0 -51 -3 -65 -15
-65 -16 0 -20 42 -9 99 11 53 24 34 24 -34z m1600 49 l41 -17 -6 -51 c-3 -28
-10 -112 -15 -186 -13 -188 -30 -392 -34 -410 -2 -8 -1 94 2 227 4 172 2 246
-6 256 -12 13 -27 13 -194 -8 -37 -4 -48 -3 -48 8 0 10 26 17 95 25 124 14
150 26 150 72 l0 35 -50 0 c-27 0 -81 -4 -118 -9 -64 -7 -69 -6 -65 11 4 23
106 62 165 62 24 1 61 -6 83 -15z m260 -24 c10 -7 1 -8 -30 -4 -56 8 -64 14
-19 14 19 0 41 -5 49 -10z m-599 -179 l41 -94 -27 -106 c-16 -58 -29 -107 -30
-108 -1 -2 -15 2 -31 9 l-30 11 1 223 c0 254 -6 249 76 65z m299 121 c0 -16
-14 -21 -87 -31 -49 -7 -96 -15 -105 -17 -13 -4 -18 0 -18 15 0 21 10 24 122
41 84 12 88 12 88 -8z m140 -12 c0 -11 -7 -20 -15 -20 -8 0 -15 9 -15 20 0 11
7 20 15 20 8 0 15 -9 15 -20z m288 -14 c42 -22 37 -29 -9 -15 -19 5 -82 13
-141 16 -60 3 -108 10 -108 15 0 5 51 7 113 5 82 -2 121 -8 145 -21z m-1628
-157 c0 -108 3 -140 13 -137 14 5 24 75 28 193 l2 80 8 -65 c14 -105 27 -265
23 -269 -2 -2 -52 16 -111 41 -60 26 -118 49 -130 53 -21 6 -23 12 -22 68 0
34 5 85 9 112 7 38 8 26 5 -51 -4 -82 -2 -104 10 -114 12 -10 15 -9 16 6 0 15
2 14 10 -5 16 -41 28 -12 43 103 15 114 21 126 69 126 l27 0 0 -141z m-123 94
c-3 -10 -5 -4 -5 12 0 17 2 24 5 18 2 -7 2 -21 0 -30z m1631 22 c74 -5 152
-24 152 -37 0 -4 -16 -4 -35 -1 -29 5 -35 3 -35 -12 0 -15 6 -17 35 -12 l36 6
-6 -87 c-19 -266 -35 -435 -41 -441 -3 -3 -4 103 -1 236 l6 242 -32 6 c-18 3
-70 7 -117 8 l-85 2 -7 -66 c-3 -37 -9 -134 -12 -215 -3 -82 -8 -166 -12 -186
-6 -36 -9 -38 -44 -38 l-38 0 4 103 c6 146 23 414 30 465 l5 42 62 -5 c34 -2
95 -7 135 -10z m-1718 -96 c0 -88 -2 -100 -16 -95 -9 3 -19 6 -22 6 -7 0 -4
155 3 178 3 6 11 12 20 12 12 0 15 -17 15 -101z m-80 10 c0 -70 -2 -80 -16
-75 -9 3 -20 6 -26 6 -14 0 0 133 16 142 23 15 26 6 26 -73z m-70 6 c0 -63 -1
-64 -22 -56 -20 8 -23 14 -19 57 3 45 13 63 34 64 4 0 7 -29 7 -65z m-450 24
c27 -11 51 -27 54 -35 3 -9 1 -12 -4 -9 -5 3 -15 -5 -22 -19 l-11 -26 -138 0
c-75 0 -146 -3 -156 -6 -27 -9 45 53 89 76 34 18 93 36 126 39 7 1 35 -8 62
-20z m2000 -13 c0 -10 -26 -16 -102 -23 -57 -5 -105 -8 -107 -6 -1 1 0 6 4 12
3 6 30 11 58 12 29 0 70 4 92 8 22 5 43 9 48 10 4 0 7 -5 7 -13z m-1507 -140
c85 -30 107 -42 107 -57 0 -16 3 -17 18 -8 13 8 40 0 130 -41 108 -48 294
-114 449 -159 46 -14 76 -28 83 -41 9 -17 6 -19 -22 -18 -18 1 -40 9 -50 18
-10 9 -44 24 -75 34 -32 10 -65 24 -74 32 -14 13 -110 37 -127 32 -4 -2 -19 6
-35 16 -16 11 -37 16 -52 14 -18 -4 -29 1 -40 18 -10 16 -31 26 -72 34 -32 6
-65 15 -74 19 -8 5 -22 5 -31 0 -11 -6 -18 -4 -21 6 -12 29 -166 85 -200 72
-8 -3 -19 3 -25 13 -23 38 -182 88 -234 75 -22 -6 -26 -2 -31 22 -3 15 -8 35
-12 45 -5 12 26 4 137 -36 79 -29 191 -69 251 -90z m184 82 c-2 -13 -4 -5 -4
17 -1 22 1 32 4 23 2 -10 2 -28 0 -40z m-590 -135 c5 -88 4 -103 -9 -103 -35
0 -40 25 -29 130 6 55 11 106 12 113 0 7 5 1 11 -13 5 -14 12 -71 15 -127z
m1913 125 c0 -22 -4 -23 -96 -26 -89 -4 -96 -2 -92 15 3 15 16 19 88 24 47 3
88 6 93 7 4 1 7 -8 7 -20z m395 -44 l-7 -47 -60 7 c-34 3 -72 6 -84 6 -21 0
-24 5 -24 40 l0 39 88 3 c48 2 89 2 91 1 2 -1 0 -23 -4 -49z m-2387 -39 l-3
-35 -173 -4 c-172 -3 -174 -3 -168 18 3 12 6 26 6 31 0 7 43 12 112 14 62 1
115 4 117 7 2 2 29 4 58 4 l54 0 -3 -35z m147 13 c-12 -39 -25 -44 -25 -10 0
22 5 32 16 32 11 0 14 -6 9 -22z m121 5 c57 -15 64 -20 59 -38 -3 -11 -9 -37
-12 -58 -4 -29 -9 -37 -21 -32 -9 3 -35 9 -59 12 l-43 6 0 63 c0 35 3 64 6 64
3 0 35 -8 70 -17z m1724 -7 c0 -9 -22 -15 -77 -20 -112 -9 -145 -8 -141 6 3 7
36 13 88 15 47 3 87 6 89 9 10 10 41 3 41 -10z m0 -65 c0 -35 -22 -41 -147
-41 -81 0 -84 1 -81 22 3 20 8 22 63 20 33 0 80 5 105 12 25 7 48 14 53 15 4
0 7 -12 7 -28z m390 -27 l0 -46 -87 7 c-49 4 -90 9 -92 11 -2 1 0 19 3 39 l7
35 84 0 85 0 0 -46z m-2003 14 c-3 -8 -6 -5 -6 6 -1 11 2 17 5 13 3 -3 4 -12
1 -19z m136 -25 c82 -41 76 -85 -10 -64 -60 15 -83 36 -83 73 0 34 10 33 93
-9z m-527 -55 c-4 -66 -7 -90 -22 -165 -3 -18 -11 -23 -37 -23 -53 0 -56 7
-41 80 7 36 14 88 14 116 0 28 3 54 7 57 3 4 23 7 44 7 l38 0 -3 -72z m-132 0
c-4 -34 -12 -87 -18 -117 -10 -49 -14 -56 -33 -55 -13 0 -48 1 -79 2 l-57 2 7
50 c4 27 14 75 24 107 18 58 18 58 62 64 25 3 58 7 73 7 l28 2 -7 -62z m-207
38 c20 5 20 4 -3 -63 -13 -37 -24 -83 -24 -100 0 -32 -2 -33 -40 -33 -49 0
-51 9 -15 127 23 74 28 82 44 74 10 -6 27 -8 38 -5z m743 -47 c0 -4 18 -14 40
-23 45 -18 122 -21 150 -6 15 8 20 6 25 -9 9 -28 85 -55 138 -49 41 5 44 3 54
-23 8 -22 8 -29 0 -29 -7 0 -100 23 -207 50 -178 45 -196 48 -217 35 -12 -9
-25 -28 -29 -43 -3 -15 -7 -32 -9 -39 -7 -23 15 -80 42 -105 51 -49 190 -82
528 -128 39 -5 117 -16 175 -24 132 -18 151 -11 163 56 l9 47 46 3 c40 3 47 7
53 28 4 14 8 18 9 10 4 -27 -1 -44 -36 -117 l-34 -71 -82 4 c-259 14 -727 95
-908 158 -69 24 -173 93 -190 127 -14 25 -12 82 2 129 12 37 16 40 48 40 45 0
141 -26 150 -40 12 -19 39 1 46 33 6 29 7 30 20 12 8 -10 14 -22 14 -26z
m1590 21 c0 -5 -15 -10 -33 -10 -19 0 -68 -3 -110 -6 -54 -5 -77 -4 -77 4 0 7
35 12 98 15 53 1 103 4 110 5 6 1 12 -2 12 -8z m-1237 -37 c39 -20 29 -39 -19
-35 -48 4 -84 26 -84 51 0 18 4 18 38 9 20 -6 50 -17 65 -25z m1565 7 l62 0 0
-50 c0 -57 4 -55 -109 -44 l-61 7 0 50 c0 46 1 49 23 43 12 -3 50 -6 85 -6z
m-1008 -29 c0 -16 -62 -21 -108 -10 -74 18 -67 24 23 21 47 -2 85 -7 85 -11z
m359 8 c17 -6 31 -17 31 -25 0 -8 -3 -14 -6 -14 -12 0 -64 34 -64 42 0 10 1
10 39 -3z m311 1 c0 -34 -25 -117 -38 -127 -9 -7 -44 -13 -79 -13 l-63 0 0 64
0 64 68 7 c37 4 72 8 77 10 20 7 35 5 35 -5z m-1936 -59 c-4 -28 -9 -50 -11
-47 -3 3 -2 28 2 56 4 28 9 49 12 47 2 -3 1 -28 -3 -56z m1476 47 c0 -10 -20
-12 -75 -10 -97 5 -98 22 0 22 53 0 75 -4 75 -12z m-630 -48 c0 -26 -24 -42
-38 -28 -13 13 -16 60 -5 71 10 10 43 -23 43 -43z m118 -7 c25 -22 39 -63 21
-63 -19 0 -79 49 -79 66 0 19 33 18 58 -3z m648 -57 c-10 -53 -74 -78 -96 -37
-13 26 -3 51 22 51 13 0 24 11 31 30 11 30 12 30 30 11 15 -15 18 -27 13 -55z
m-931 -21 c143 -37 307 -77 365 -89 l105 -22 3 -32 c4 -38 1 -39 -132 -17 -50
8 -154 23 -231 35 -355 52 -435 82 -435 166 0 35 1 36 33 32 17 -3 149 -35
292 -73z m787 53 c-7 -7 -12 -29 -12 -51 0 -29 7 -46 29 -67 32 -32 46 -90 28
-114 -9 -12 -23 -15 -63 -10 l-51 6 -6 57 c-5 59 -49 171 -67 171 -5 0 -10 4
-10 10 0 8 147 20 159 12 3 -1 -1 -8 -7 -14z m186 -129 c-29 -19 -35 -8 -17
28 10 21 20 53 21 73 1 19 3 6 5 -29 3 -45 0 -67 -9 -72z m-762 83 c-3 -2 -17
-1 -31 2 -22 6 -25 9 -14 22 10 13 14 12 30 -2 11 -10 17 -19 15 -22z m203 14
c15 -8 33 -22 40 -30 12 -14 10 -16 -11 -16 -29 0 -68 26 -68 46 0 18 4 18 39
0z m1241 -6 c0 -23 -7 -23 -112 -13 -38 3 -68 10 -68 14 0 4 35 10 78 12 42 1
83 4 90 5 6 1 12 -7 12 -18z m-2358 -32 c-6 -6 -7 0 -4 19 5 21 7 23 10 9 2
-10 0 -22 -6 -28z m1288 -48 c13 -23 15 -23 -49 -9 -45 9 -49 12 -36 26 8 8
15 19 15 24 0 15 58 -19 70 -41z m679 16 c-2 -2 -52 -7 -111 -10 -86 -6 -108
-5 -108 6 0 10 16 12 62 10 35 -1 83 1 108 6 25 4 47 4 49 -1 1 -4 1 -10 0
-11z m-2336 -1 c49 -6 57 -9 52 -23 -4 -9 -9 -59 -12 -109 l-6 -93 -78 0 c-70
0 -79 2 -79 18 0 16 7 18 55 14 l55 -4 15 35 c19 46 19 91 0 107 -20 17 -86
21 -104 7 -12 -10 -13 -9 -7 8 5 11 8 28 8 38 -1 12 5 16 21 13 12 -3 48 -8
80 -11z m2986 -7 c38 3 49 1 54 -12 5 -13 -2 -16 -43 -16 -62 0 -63 -8 -14
-96 25 -45 31 -64 22 -64 -14 0 -68 116 -68 145 0 8 -7 15 -15 15 -20 0 -19
-13 5 -60 l20 -40 -44 45 c-25 24 -56 47 -70 50 -79 16 -80 20 -6 23 41 2 79
7 84 12 6 6 14 6 18 2 5 -5 31 -7 57 -4z m-2827 -21 c4 -20 1 -22 -29 -19 -24
3 -33 9 -33 23 0 30 56 26 62 -4z m2411 -4 c-7 -2 -21 -2 -30 0 -10 3 -4 5 12
5 17 0 24 -2 18 -5z m-113 -14 c-64 -11 -92 -11 -85 1 3 6 34 9 68 9 l62 -2
-45 -8z m-106 -8 c6 -9 -40 -21 -107 -27 -98 -9 -185 -48 -276 -124 -58 -48
-75 -80 -51 -95 5 -3 32 -9 60 -12 54 -6 73 -33 23 -33 -16 0 -58 -3 -95 -7
-59 -5 -68 -4 -68 10 0 18 134 200 171 233 18 16 53 25 144 38 66 10 125 19
130 21 21 7 64 5 69 -4z m759 -80 c39 -60 43 -71 31 -82 -8 -7 -11 -16 -6 -21
9 -9 156 -35 247 -44 49 -5 49 -5 25 11 -25 16 -24 16 20 11 25 -3 79 -8 122
-12 l76 -6 5 -37 c2 -20 4 -37 3 -38 -1 -1 -41 9 -89 22 -122 33 -207 40 -302
24 -45 -7 -140 -12 -215 -10 -156 2 -265 -14 -393 -59 -56 -20 -105 -30 -141
-30 -51 0 -62 4 -107 40 -49 38 -51 39 -79 25 -40 -21 -48 -19 -52 10 -4 30
-22 34 -26 7 -2 -14 -11 -19 -30 -18 -15 1 -33 5 -40 10 -8 5 -18 4 -25 -3
-16 -16 -47 -13 -47 5 0 12 11 15 59 13 80 -3 89 6 93 94 3 65 5 72 24 75 21
3 21 2 8 -55 -19 -83 -8 -98 86 -107 88 -8 169 1 193 22 14 12 17 32 17 99 0
72 2 83 18 83 9 0 27 3 38 6 21 6 22 2 25 -80 3 -60 8 -89 19 -98 11 -10 54
-12 173 -10 142 3 158 5 155 20 -4 19 -71 29 -206 31 -82 1 -85 4 -95 95 l-5
49 83 -7 c52 -4 86 -2 90 4 3 5 9 10 13 10 12 -1 87 -111 87 -128 0 -11 7 -16
20 -15 13 1 27 -10 40 -30 18 -29 54 -44 56 -24 2 24 -15 67 -27 67 -8 0 -14
9 -14 20 0 11 -10 40 -22 65 -19 40 -20 47 -8 55 35 23 56 11 103 -59z m-3149
36 c24 -17 11 -47 -21 -47 -19 0 -24 4 -19 16 3 9 6 22 6 30 0 17 11 18 34 1z
m324 5 c17 -12 26 -71 18 -126 l-7 -46 -55 0 c-55 0 -64 6 -42 28 7 7 12 41
12 82 l0 70 31 0 c16 0 36 -4 43 -8z m-130 -14 c7 -7 12 -31 12 -54 0 -44 -10
-54 -56 -54 -23 0 -24 3 -24 60 0 59 0 60 28 60 15 0 33 -5 40 -12z m518 -3
c83 -24 471 -105 583 -121 58 -8 154 -19 214 -24 59 -5 112 -12 118 -16 15 -9
3 -83 -17 -105 -10 -11 -14 -31 -13 -54 3 -33 0 -38 -28 -50 -32 -13 -53 -41
-53 -69 0 -26 50 -76 76 -76 23 0 25 -3 22 -37 -2 -27 -8 -39 -20 -41 -10 -2
-18 2 -18 8 0 51 -75 123 -122 120 -42 -4 -43 1 -4 13 65 20 58 38 -16 38 -34
0 -79 1 -98 1 -19 1 -59 -4 -89 -10 -67 -15 -277 -16 -286 -2 -4 6 -25 20 -47
31 -53 27 -116 22 -190 -14 -57 -28 -103 -38 -103 -22 0 9 6 54 36 267 12 87
12 145 -1 153 -12 7 -13 25 -2 25 5 0 31 -7 58 -15z m1851 -69 l2 -74 -57 -4
c-31 -1 -79 -1 -107 2 l-50 5 0 57 0 57 40 6 c22 3 67 10 100 14 33 5 62 9 65
10 3 0 6 -32 7 -73z m-2033 39 l86 -7 0 -37 c0 -20 -3 -53 -6 -73 l-7 -37 -61
5 c-33 3 -85 10 -114 16 -48 9 -53 12 -48 31 3 12 6 45 6 74 l0 52 29 -9 c16
-4 68 -11 115 -15z m1693 -132 c-3 -2 -32 -3 -66 -1 l-61 3 17 35 c13 26 30
39 63 51 l45 17 3 -50 c2 -28 1 -52 -1 -55z m-351 71 l22 -6 -22 -48 c-13 -29
-29 -50 -41 -53 -11 -2 -27 -7 -36 -11 -14 -6 -14 0 0 59 17 68 24 73 77 59z
m175 -20 c-12 -15 -21 -33 -21 -40 0 -8 -11 -14 -25 -14 -34 0 -32 7 13 46 45
40 61 44 33 8z m-2036 -55 l60 -1 -44 -9 c-24 -5 -62 -20 -83 -34 l-38 -25 0
41 c0 38 2 41 23 35 12 -3 49 -6 82 -7z m1720 -61 c-4 -24 -14 -56 -23 -73 -8
-16 -18 -57 -22 -90 -6 -49 -8 -36 -9 67 l-1 127 28 4 c15 2 29 5 30 6 2 0 1
-18 -3 -41z m2015 21 c7 -11 9 -24 5 -27 -7 -7 -35 25 -35 40 0 16 19 8 30
-13z m-3502 -12 c-83 -22 -137 -52 -121 -68 5 -4 42 4 83 18 80 28 200 36 293
20 37 -7 47 -12 47 -28 0 -16 -7 -19 -50 -19 -27 0 -113 -7 -190 -16 -126 -14
-143 -15 -164 -1 -25 17 -119 37 -175 37 -35 1 -35 1 -16 16 40 32 92 46 185
51 52 3 97 7 99 9 2 2 25 4 50 3 43 0 40 -1 -41 -22z m3212 -22 c52 -7 259
-72 278 -87 7 -7 12 -36 12 -79 0 -69 0 -69 -27 -69 -36 0 -57 -14 -50 -33 4
-11 18 -13 59 -9 29 2 57 8 62 13 6 5 10 47 10 94 1 47 4 85 7 85 10 0 36 -34
44 -58 3 -13 4 -41 0 -63 -10 -58 -59 -89 -141 -89 l-61 0 -37 75 c-45 91 -67
105 -163 105 -76 -1 -149 -25 -227 -78 -26 -18 -49 -32 -52 -32 -2 0 -4 18 -4
41 0 47 -14 79 -35 79 -10 0 -15 11 -15 33 0 28 6 35 41 51 23 10 75 22 117
26 76 7 95 7 182 -5z m-1050 -55 c56 -38 63 -40 134 -40 l76 0 0 -72 0 -73
-103 0 c-84 -1 -111 -4 -152 -23 -47 -22 -50 -22 -63 -5 -7 10 -11 27 -8 38 3
11 6 59 7 107 1 77 4 87 23 96 11 6 22 11 24 11 2 1 30 -17 62 -39z m-1813 8
c-3 -8 -6 -5 -6 6 -1 11 2 17 5 13 3 -3 4 -12 1 -19z m2487 -55 c-3 -38 -10
-83 -16 -101 l-10 -34 -29 35 c-32 39 -84 67 -126 67 -49 0 -131 -45 -154 -85
-19 -31 -26 -36 -53 -33 l-31 3 0 79 0 80 170 27 c94 15 189 27 213 28 l43 1
-7 -67z m-1270 8 c8 -7 50 -4 136 9 132 21 145 18 134 -26 -3 -12 -1 -31 5
-42 9 -17 4 -21 -50 -36 -43 -12 -70 -27 -100 -57 -39 -39 -44 -41 -86 -36
-25 3 -57 14 -72 25 -24 18 -26 26 -26 89 0 52 5 76 20 98 19 28 20 29 23 8 2
-12 9 -26 16 -32z m409 -8 c-28 -64 -43 -85 -43 -63 0 18 53 120 62 120 4 0
-5 -26 -19 -57z m-73 38 c0 -6 -4 -13 -10 -16 -5 -3 -10 1 -10 9 0 9 5 16 10
16 6 0 10 -4 10 -9z m50 2 c-1 -5 -9 -23 -19 -42 -22 -41 -39 -25 -21 20 11
25 41 42 40 22z m-2310 -41 c0 -14 -11 -21 -26 -15 -21 8 -17 23 6 23 11 0 20
-4 20 -8z m181 -8 c20 -6 31 -51 23 -96 -13 -77 -9 -74 -59 -70 l-45 4 0 73
c0 40 -3 81 -7 91 -5 15 -2 16 33 10 21 -4 46 -9 55 -12z m479 6 c0 -5 -6 -10
-12 -10 -7 -1 -62 -7 -123 -15 -92 -11 -112 -11 -124 0 -11 11 0 14 65 20 44
3 86 8 94 9 35 8 100 5 100 -4z m1695 -40 c-10 -22 -22 -40 -27 -40 -12 0 -10
9 14 51 28 49 37 42 13 -11z m-2304 -71 l-11 -34 5 34 c3 18 6 48 7 65 l1 31
4 -31 c2 -18 -1 -47 -6 -65z m228 63 c-25 -32 -24 -77 2 -103 18 -18 23 -19
42 -6 28 19 38 59 22 91 -16 31 -15 31 34 6 38 -19 40 -19 157 -1 66 11 120
18 122 16 1 -1 0 -9 -3 -18 -5 -11 -20 -15 -63 -14 -63 2 -123 -26 -171 -77
-22 -24 -31 -26 -105 -26 l-81 0 0 78 0 78 32 0 31 0 -19 -24z m2960 -100 c-5
-31 -9 -58 -9 -59 0 -2 -3 -3 -8 -3 -6 0 1 149 8 170 1 3 6 -8 10 -23 5 -16 5
-53 -1 -85z m-3229 68 c0 -33 -11 -38 -30 -15 -15 18 -6 45 15 45 10 0 15 -10
15 -30z m1730 -15 c0 -40 -8 -43 -41 -16 -20 16 -21 21 -10 35 7 9 22 16 32
16 15 0 19 -7 19 -35z m626 -2 c-11 -11 -17 4 -9 23 7 18 8 18 11 1 2 -10 1
-21 -2 -24z m711 12 c13 -9 36 -34 51 -55 15 -22 32 -39 39 -40 7 0 10 -6 7
-14 -6 -16 -78 -24 -276 -29 -128 -3 -128 -3 -128 20 0 21 5 23 44 23 38 0 46
4 52 23 24 79 140 118 211 72z m-2078 -1 c2 -2 -25 -3 -60 -3 -49 1 -57 3 -34
9 27 6 84 3 94 -6z m-679 -26 c0 -5 -4 -8 -10 -8 -5 0 -10 10 -10 23 0 18 2
19 10 7 5 -8 10 -18 10 -22z m1173 -26 c16 -17 16 -20 -4 -57 -13 -26 -18 -51
-15 -72 4 -30 2 -33 -30 -39 -19 -3 -58 -3 -87 0 -28 3 -184 7 -345 8 -318 1
-327 3 -304 53 6 14 30 45 52 69 l41 44 124 7 124 7 44 -32 c77 -55 181 -52
249 7 39 35 118 37 151 5z m-843 -7 c35 -32 24 -50 -12 -20 -25 21 -38 25 -62
21 -54 -11 -112 -85 -86 -110 8 -8 15 -6 26 8 14 19 14 19 14 -1 0 -22 43 -63
66 -63 7 0 27 12 45 27 l32 27 -8 -25 c-3 -13 -18 -35 -33 -48 -50 -45 -127
-9 -155 73 -8 22 -18 49 -22 58 -5 13 5 25 42 48 40 26 55 31 91 27 24 -3 52
-13 62 -22z m646 10 c-12 -9 -42 -15 -76 -15 -34 0 -64 6 -76 15 -17 13 -10
14 76 14 86 0 93 -1 76 -14z m-546 1 c0 -2 -7 -9 -15 -16 -13 -11 -14 -10 -9
4 5 14 24 23 24 12z m2703 -31 c-33 -33 -35 -39 -30 -82 13 -117 151 -127 173
-14 4 21 14 36 26 39 20 5 34 44 23 64 -4 7 3 3 16 -9 30 -30 29 -79 -5 -137
-62 -106 -207 -96 -286 20 l-24 37 62 58 c67 63 103 82 45 24z m137 5 c6 -11
9 -20 7 -20 -2 0 -12 9 -22 20 -10 11 -13 20 -7 20 6 0 16 -9 22 -20z m-1431
-11 c-6 -12 -9 -34 -7 -50 6 -36 1 -37 -12 -4 -10 28 2 75 20 75 7 0 7 -7 -1
-21z m540 5 c26 -6 31 -11 31 -35 0 -29 -1 -29 -57 -29 -32 0 -102 -3 -157 -7
l-98 -6 13 22 c29 46 169 74 268 55z m-1091 -30 c25 -17 29 -56 7 -74 -8 -7
-15 -19 -15 -26 0 -8 -3 -14 -8 -14 -4 0 -7 21 -7 48 0 26 -4 55 -9 65 -10 21
2 22 32 1z m657 0 c14 -9 23 -20 20 -24 -5 -9 -74 21 -75 33 0 12 30 8 55 -9z
m95 -20 c0 -32 -25 -80 -45 -88 -23 -8 -74 -7 -55 2 57 26 102 85 84 113 -4 8
-3 10 4 5 7 -4 12 -18 12 -32z m-1929 -11 c-4 -28 -6 -32 -9 -15 -3 22 3 52
11 52 1 0 1 -17 -2 -37z m138 34 c-2 -1 -13 -9 -24 -17 -19 -14 -19 -14 -6 3
7 9 18 17 24 17 6 0 8 -1 6 -3z m-356 -22 c130 0 153 -8 86 -32 -42 -16 -182
-7 -221 13 -36 19 -49 39 -17 28 13 -5 81 -9 152 -9z m3273 -9 c7 -28 -2 -49
-17 -41 -12 8 -12 65 1 65 5 0 12 -11 16 -24z m-3103 -20 c-3 -21 1 -46 10
-65 17 -34 10 -39 -36 -22 -34 13 -43 41 -19 61 11 8 25 25 31 38 16 31 21 28
14 -12z m1529 14 c45 -14 111 -14 135 -2 19 11 22 9 32 -20 l11 -31 -53 7
c-28 3 -90 6 -137 6 -73 1 -82 3 -67 14 9 7 17 21 17 31 0 12 5 15 18 10 9 -4
29 -11 44 -15z m1648 -19 c0 -9 -7 -26 -16 -37 -14 -18 -15 -18 -8 6 4 14 7
33 6 43 0 9 3 15 9 12 5 -4 9 -14 9 -24z m-2020 -1 c0 -5 -2 -10 -4 -10 -3 0
-8 5 -11 10 -3 6 -1 10 4 10 6 0 11 -4 11 -10z m1790 -31 c0 -7 -34 -8 -107
-3 -60 3 -110 8 -112 10 -2 2 46 4 107 4 73 0 112 -4 112 -11z m-3110 -28 c0
-5 3 -18 7 -28 6 -17 5 -17 -15 1 -26 22 -28 36 -7 36 8 0 15 -4 15 -9z m460
-21 c0 -5 -5 -10 -11 -10 -5 0 -7 5 -4 10 3 6 8 10 11 10 2 0 4 -4 4 -10z"/>
<path d="M4846 7215 c-9 -25 13 -119 31 -133 15 -11 20 -9 35 10 24 33 51 106
44 123 -7 19 -31 9 -44 -18 -10 -22 -10 -22 -18 -2 -13 34 -38 45 -48 20z"/>
<path d="M6417 6139 c-16 -9 -17 -23 -11 -147 3 -75 8 -144 10 -152 13 -39 24
25 24 143 l0 127 88 0 c48 0 93 4 101 9 37 24 -172 43 -212 20z"/>
<path d="M4617 5393 c-10 -17 -16 -140 -9 -173 10 -46 31 -55 183 -80 158 -27
629 -41 654 -20 21 17 19 53 -5 100 -21 41 -44 52 -130 65 -193 27 -328 50
-473 80 -174 36 -213 41 -220 28z m121 -52 c11 -7 11 -19 1 -70 -12 -65 -14
-66 -53 -51 -24 9 -26 14 -26 70 l0 60 33 0 c17 0 38 -4 45 -9z m107 -19 c6
-4 9 -36 7 -73 l-4 -66 -31 6 c-18 4 -32 11 -32 16 0 6 4 36 8 68 8 57 23 71
52 49z m158 -29 c12 -3 16 -10 12 -21 -3 -9 -9 -35 -12 -59 l-6 -43 -43 0
c-78 0 -81 5 -63 90 l11 51 41 -6 c23 -4 50 -9 60 -12z m104 -45 c-3 -8 -6 -5
-6 6 -1 11 2 17 5 13 3 -3 4 -12 1 -19z m59 0 c-3 -13 -6 -38 -6 -55 l0 -33
-61 0 c-52 0 -60 2 -55 16 3 9 6 25 6 37 1 20 4 18 30 -13 29 -34 31 -34 45
-16 8 11 15 28 15 37 0 25 11 49 22 49 6 0 8 -10 4 -22z m122 -3 c43 -7 47
-11 34 -32 -5 -8 -23 -10 -57 -5 -42 6 -51 11 -53 31 -3 18 0 22 15 18 10 -3
37 -9 61 -12z m115 -67 c4 -12 1 -18 -7 -18 -16 0 -26 21 -26 53 0 21 0 21 13
2 8 -11 17 -28 20 -37z m-84 -14 c2 -2 -21 -4 -52 -4 -33 0 -57 4 -57 10 0 10
98 4 109 -6z"/>
<path d="M4249 4589 c-38 -4 -106 -23 -155 -42 -58 -23 -98 -34 -116 -30 -24
5 -27 2 -34 -32 -8 -42 2 -478 17 -699 12 -200 15 -203 178 -172 100 19 106
27 106 135 l0 88 63 12 c132 24 212 70 273 154 l29 40 0 -68 c0 -95 18 -189
44 -227 49 -74 185 -114 350 -105 148 8 185 28 232 119 39 78 54 162 61 343 9
244 -11 352 -70 376 -37 16 -145 13 -166 -4 -11 -10 -13 -51 -8 -235 3 -127 1
-238 -4 -257 -13 -45 -52 -75 -99 -75 -87 0 -112 118 -70 330 25 124 25 152 3
179 -22 26 -159 63 -220 59 -34 -2 -47 3 -70 26 -63 63 -210 100 -344 85z m89
-329 c17 -11 32 -27 32 -35 0 -19 -73 -54 -112 -55 -26 0 -68 30 -68 48 0 12
80 59 105 61 6 1 25 -8 43 -19z m-162 -547 c-11 -29 -17 -6 -9 33 7 36 8 37
11 11 2 -16 1 -36 -2 -44z"/>
<path d="M7101 4555 c-71 -20 -110 -45 -164 -105 l-44 -49 -14 32 c-27 63 -60
68 -322 52 -126 -8 -129 -9 -139 -34 -5 -14 -8 -59 -6 -100 3 -65 6 -76 31
-97 19 -16 40 -24 66 -24 l38 0 7 -61 c3 -34 6 -93 6 -130 0 -58 -3 -70 -20
-79 -25 -13 -159 -18 -221 -7 -44 7 -47 10 -53 45 -3 20 -6 80 -6 132 0 96
-23 320 -36 353 -15 39 -102 63 -188 53 -58 -8 -76 -28 -76 -86 0 -60 -10 -63
-48 -15 -24 31 -56 55 -101 78 -63 31 -70 32 -186 32 -133 0 -262 -24 -288
-53 -8 -9 -17 -46 -21 -82 -8 -89 -9 -721 0 -743 11 -30 79 -56 178 -69 201
-25 354 30 433 158 10 17 12 14 12 -22 1 -52 31 -91 75 -99 18 -4 118 -2 222
3 111 6 194 6 200 1 6 -5 105 -10 220 -11 l209 -2 27 49 c15 28 28 58 28 67 0
15 10 12 68 -17 160 -83 317 -67 444 45 51 44 83 110 94 188 7 52 6 53 -36 92
-24 22 -45 38 -48 36 -2 -3 -22 2 -44 10 -22 8 -42 14 -44 14 -2 0 -19 -25
-39 -55 -38 -61 -63 -75 -131 -75 -55 0 -87 28 -105 91 -16 59 1 124 41 162
41 37 115 39 149 3 71 -76 261 -9 261 91 0 41 -51 116 -107 157 -97 72 -221
99 -322 71z m-281 -186 c0 -11 -4 -17 -10 -14 -5 3 -10 13 -10 21 0 8 5 14 10
14 6 0 10 -9 10 -21z m-246 -48 c2 -3 -16 -4 -40 -2 -24 1 -44 6 -44 10 0 8
79 1 84 -8z m880 -12 c-8 -14 -34 -10 -34 5 0 9 7 12 20 9 11 -3 17 -9 14 -14z
m-1776 -39 c37 -23 42 -54 12 -70 -31 -17 -135 -17 -154 0 -26 21 -17 73 14
81 47 13 95 9 128 -11z m1136 -323 c5 -27 4 -37 -3 -32 -6 3 -11 22 -11 42 0
44 5 41 14 -10z m-1089 -37 c44 -36 -99 -91 -169 -64 -9 4 -21 15 -27 25 -23
45 148 79 196 39z"/>
</g>
</svg>
