<?xml version="1.0" standalone="no"?>
<!DOCTYPE svg PUBLIC "-//W3C//DTD SVG 20010904//EN"
 "http://www.w3.org/TR/2001/REC-SVG-20010904/DTD/svg10.dtd">
<svg version="1.0" xmlns="http://www.w3.org/2000/svg"
 width="1024.000000pt" height="1024.000000pt" viewBox="0 0 1024.000000 1024.000000"
 preserveAspectRatio="xMidYMid meet">

<g transform="translate(0.000000,1024.000000) scale(0.100000,-0.100000)"
fill="#000000" stroke="none">
<path d="M5773 8172 c-24 -24 -40 -30 -96 -36 -55 -6 -69 -12 -79 -29 -6 -12
-17 -26 -24 -30 -8 -4 -14 -15 -14 -23 0 -11 -4 -12 -19 -4 -29 15 -29 14 -21
-32 6 -30 18 -51 40 -69 30 -26 31 -27 11 -34 -28 -8 -27 -31 2 -47 20 -11
118 -14 187 -6 26 3 37 -17 54 -99 7 -31 6 -32 -31 -35 l-38 -3 32 -31 c31
-31 32 -31 26 -107 -5 -65 -9 -76 -26 -81 -12 -3 -27 0 -34 6 -22 18 -63 0
-85 -38 l-21 -36 -14 34 c-11 24 -12 38 -4 50 19 31 12 56 -22 82 -19 15 -39
26 -46 26 -15 0 -105 51 -109 62 -2 5 -12 13 -23 19 -16 8 -21 6 -29 -17 l-10
-27 -25 29 c-13 15 -27 25 -31 21 -4 -4 0 -15 8 -24 8 -10 18 -32 21 -49 5
-26 2 -33 -19 -42 -13 -7 -24 -19 -24 -29 0 -14 3 -13 23 5 13 12 29 22 35 22
19 0 -16 -48 -39 -55 -40 -13 -65 37 -34 69 20 20 19 23 -10 30 -40 10 -31 29
11 21 24 -4 34 -3 29 4 -3 6 -26 11 -51 11 -50 0 -61 -23 -20 -41 20 -10 23
-16 19 -48 -6 -46 17 -75 54 -68 21 4 24 1 19 -17 -18 -63 -76 -299 -86 -349
-9 -47 -16 -60 -40 -72 -36 -19 -40 -19 -40 1 0 9 11 27 25 40 27 24 33 62 13
82 -9 9 -8 16 5 30 23 26 21 37 -10 62 -22 17 -38 21 -74 18 l-46 -5 0 41 c-1
23 -3 50 -5 60 -2 16 5 21 35 28 56 12 97 36 107 63 12 31 4 52 -20 58 -15 4
-17 12 -13 44 5 35 2 43 -22 61 -15 12 -34 22 -41 22 -8 0 -14 6 -14 14 0 21
-24 38 -37 25 -6 -6 -27 -12 -47 -15 -34 -4 -36 -3 -36 25 0 43 -10 61 -38 72
-18 7 -31 6 -46 -5 -12 -8 -34 -12 -48 -9 -32 6 -63 -34 -56 -72 5 -24 -5 -34
-16 -16 -9 14 -59 20 -80 9 -18 -10 -19 -45 -1 -91 6 -15 4 -17 -19 -11 -57
14 -102 -21 -58 -45 43 -25 44 -27 31 -48 -7 -11 -9 -28 -6 -37 8 -19 41 -20
135 -4 66 11 69 11 91 -11 23 -23 23 -27 -1 -92 -13 -35 -15 -36 -38 -23 -33
18 -80 17 -104 -1 -27 -20 -42 -19 -66 5 -17 17 -23 18 -39 8 -15 -9 -33 -8
-84 6 -91 25 -110 14 -105 -57 3 -51 3 -52 -27 -55 -71 -6 -102 -21 -120 -58
-13 -29 -15 -42 -6 -60 8 -18 7 -31 -1 -50 -11 -23 -10 -29 11 -45 13 -11 30
-19 38 -19 10 0 12 -6 8 -20 -8 -24 18 -70 40 -70 13 0 41 -37 33 -45 -2 -2
-28 12 -58 31 -30 20 -81 49 -113 65 -46 24 -57 34 -52 47 25 61 27 74 15 103
-9 21 -22 32 -42 36 -21 4 -33 16 -47 48 -24 54 -51 70 -93 56 -17 -6 -46 -11
-64 -11 -31 0 -34 -3 -34 -28 0 -21 -7 -32 -25 -40 -25 -12 -33 -36 -15 -47
20 -12 10 -25 -20 -25 -34 0 -50 -22 -50 -69 0 -33 22 -51 61 -51 21 0 21 -1
6 -18 -24 -27 -22 -89 3 -97 15 -5 18 -12 14 -34 -5 -22 0 -32 21 -50 15 -11
36 -21 46 -21 24 0 56 36 64 71 4 16 10 27 15 24 4 -3 6 -14 3 -24 -3 -10 0
-22 6 -25 18 -11 13 -24 -11 -28 -27 -4 -52 -84 -45 -147 l5 -43 -47 -20
c-149 -64 -187 -93 -176 -136 13 -52 29 -59 82 -33 27 13 87 49 135 81 93 62
154 85 258 96 l65 6 -2 -63 c-1 -35 -5 -76 -8 -91 -5 -19 -2 -31 14 -47 12
-12 21 -28 21 -36 0 -22 45 -48 71 -40 12 4 29 26 41 52 l20 45 40 -79 c22
-43 48 -92 59 -108 10 -17 32 -71 50 -120 17 -50 54 -134 81 -188 28 -54 47
-102 42 -106 -5 -4 -45 -32 -88 -62 -49 -33 -108 -87 -154 -139 -186 -213
-230 -334 -220 -605 4 -105 8 -129 32 -181 34 -75 122 -190 194 -254 l55 -49
-21 -79 c-12 -44 -22 -82 -22 -86 0 -16 36 -3 98 35 37 23 93 58 126 77 l58
36 -6 45 c-4 25 -9 99 -13 164 -3 71 -10 116 -16 114 -5 -1 -18 -32 -29 -67
-11 -36 -23 -69 -27 -73 -16 -16 -139 202 -165 292 -21 71 -21 211 0 282 26
87 84 188 148 257 51 55 134 122 149 122 3 0 15 -17 28 -37 33 -55 59 -83 101
-104 45 -23 138 -25 197 -4 22 8 41 13 41 12 0 -1 -7 -20 -15 -42 -8 -22 -14
-63 -15 -91 0 -93 55 -344 80 -359 4 -3 4 -22 -1 -42 -21 -92 1 -101 26 -10
37 135 97 314 126 377 51 107 135 302 149 345 7 22 30 82 51 134 22 51 39 100
39 107 0 26 28 14 59 -23 17 -21 31 -31 31 -23 0 25 -39 80 -56 80 -12 0 -14
5 -9 18 4 9 13 32 20 51 10 28 44 59 66 61 3 0 14 -55 23 -122 10 -68 21 -129
25 -136 10 -17 -43 -221 -74 -291 -14 -30 -30 -75 -35 -98 -6 -24 -36 -103
-67 -176 -53 -123 -197 -527 -210 -589 -8 -43 14 -34 35 15 l19 42 21 -49 c12
-27 20 -52 16 -55 -3 -3 -117 -6 -252 -7 l-247 -1 -66 -67 c-80 -81 -100 -113
-79 -126 26 -16 141 -39 260 -51 161 -17 526 -17 620 -1 103 18 320 75 410
108 174 62 457 227 572 333 l69 64 60 -18 c86 -26 96 -11 36 53 -25 27 -59 76
-75 109 -38 75 -52 87 -83 73 -13 -6 -82 -23 -154 -39 -92 -20 -130 -32 -130
-42 0 -10 20 -15 75 -19 41 -3 75 -9 74 -15 -1 -18 -147 -125 -171 -125 -6 0
-33 39 -60 86 -35 64 -83 125 -181 229 -73 79 -138 145 -146 148 -8 3 -16 30
-20 68 -8 68 -31 121 -75 171 -37 44 -59 107 -66 198 l-6 75 47 29 c26 17 62
44 79 62 48 48 150 69 335 68 115 -1 161 -5 222 -22 84 -23 171 -63 206 -96
88 -79 125 -320 75 -482 -13 -39 -32 -83 -44 -98 -14 -18 -18 -31 -12 -37 5
-5 64 -8 134 -7 l124 3 18 70 c10 39 23 117 29 175 19 177 -23 348 -114 461
-38 48 -169 149 -238 184 -94 48 -192 66 -376 72 -110 4 -201 1 -254 -6 -65
-10 -85 -10 -90 0 -16 25 -41 289 -56 579 -3 63 -10 124 -16 136 -12 27 33
231 62 279 25 41 82 85 110 85 13 0 27 12 38 30 21 36 28 37 36 6 8 -31 25
-37 76 -24 29 8 48 20 58 38 18 31 62 50 115 50 47 0 81 14 128 51 23 18 83
45 156 68 182 60 209 74 216 110 8 39 -3 69 -40 103 l-29 28 -59 -30 c-33 -16
-140 -55 -239 -87 -131 -42 -190 -66 -223 -91 -49 -37 -72 -37 -28 1 33 28 28
58 -11 76 -28 12 -52 3 -100 -40 -20 -19 -21 -19 -39 1 -13 15 -30 20 -64 20
-94 -1 -187 -71 -179 -137 4 -31 2 -34 -36 -44 -34 -9 -42 -8 -53 6 -10 15 -9
22 7 42 26 33 35 105 21 155 -12 37 -11 41 18 74 17 19 31 45 31 57 -1 20 -3
19 -29 -11 -20 -23 -33 -31 -46 -26 -14 6 -16 3 -10 -14 3 -12 2 -22 -2 -22
-5 0 -18 39 -30 88 -16 65 -19 89 -10 94 151 88 164 105 151 185 -7 46 -13 59
-29 61 -11 2 -29 18 -40 35 -29 46 -81 49 -122 9z m95 2 c27 -19 28 -39 3 -96
-10 -24 -22 -63 -26 -86 -4 -24 -12 -42 -20 -42 -10 0 -12 16 -10 63 l4 62
-11 -57 c-6 -32 -15 -58 -20 -58 -4 0 -8 1 -8 3 0 1 -7 34 -15 74 -12 56 -13
78 -3 97 19 43 30 29 24 -31 -4 -40 -3 -50 3 -33 5 14 9 44 10 67 1 53 27 67
69 37z m-128 -71 c0 -25 15 -91 34 -150 5 -17 3 -23 -7 -23 -8 0 -26 27 -41
60 -33 73 -43 79 -16 10 24 -61 24 -66 5 -50 -45 37 -115 129 -109 144 6 16
34 23 34 8 0 -5 7 -17 16 -28 15 -18 15 -18 5 3 -15 29 -14 43 2 43 7 0 21
-15 29 -32 l16 -33 -5 38 c-5 33 -3 37 16 37 16 0 21 -6 21 -27z m210 -24 c15
-56 7 -81 -35 -114 -46 -34 -69 -28 -60 17 10 45 43 121 58 130 21 13 26 9 37
-33z m-360 -29 c0 -5 7 -10 15 -10 14 0 68 -70 61 -78 -3 -2 -26 6 -51 17 -34
15 -44 17 -35 6 7 -8 38 -22 69 -32 62 -19 86 -33 55 -33 -47 0 -123 31 -148
61 -26 31 -38 75 -14 51 18 -18 28 -15 28 8 0 11 5 20 10 20 6 0 10 -4 10 -10z
m245 -130 c-3 -5 -13 -10 -21 -10 -8 0 -12 5 -9 10 3 6 13 10 21 10 8 0 12 -4
9 -10z m-132 -16 c52 -15 -21 -36 -92 -27 -44 6 -51 16 -23 32 15 10 70 7 115
-5z m87 6 c0 -5 -5 -10 -11 -10 -5 0 -7 5 -4 10 3 6 8 10 11 10 2 0 4 -4 4
-10z m-810 -151 c0 -30 -21 -113 -32 -124 -6 -6 -7 8 -3 38 5 32 4 47 -4 47
-7 0 -11 -21 -11 -54 0 -46 -3 -56 -25 -70 -19 -12 -23 -13 -19 -2 3 8 -9 42
-26 76 -31 61 -33 93 -6 103 8 3 18 -5 25 -19 12 -28 31 -24 31 6 0 10 8 23
17 29 23 13 53 -4 53 -30z m1919 -55 c33 -42 27 -51 -39 -57 -86 -7 -202 -52
-254 -98 -45 -40 -83 -55 -104 -41 -43 29 89 117 263 176 28 9 61 23 75 31 34
19 35 19 59 -11z m-1802 -19 c-3 -7 -30 -33 -59 -56 -48 -38 -50 -41 -23 -35
17 4 47 25 69 47 l39 41 26 -20 c56 -42 24 -102 -69 -128 -86 -25 -95 -24 -95
10 -1 21 -8 35 -27 46 l-27 16 38 41 c21 23 51 45 67 48 16 3 36 10 44 14 17
9 25 -2 17 -24z m718 24 c4 -6 5 -12 2 -15 -7 -7 -37 7 -37 17 0 13 27 11 35
-2z m-990 -57 c33 -49 32 -62 -3 -29 -15 15 -35 27 -43 27 -7 -1 12 -24 43
-53 62 -56 65 -78 11 -70 -56 9 -143 161 -100 176 24 8 68 -16 92 -51z m1043
-7 c16 -35 15 -67 -4 -115 -34 -84 -55 -32 -38 94 7 51 25 60 42 21z m-418
-10 c7 -8 8 -15 2 -15 -5 0 -15 7 -22 15 -7 8 -8 15 -2 15 5 0 15 -7 22 -15z
m134 -50 c31 -29 30 -48 -4 -53 -16 -3 -30 4 -42 20 -41 54 -5 80 46 33z m750
17 c6 -10 -51 -66 -77 -75 -11 -4 -20 -1 -24 10 -12 30 84 92 101 65z m-1606
-29 c45 -27 46 -28 20 -31 -52 -6 -28 -22 32 -22 33 0 60 -4 60 -9 0 -10 -148
-26 -158 -16 -3 3 -1 15 6 26 11 17 9 23 -12 44 -23 22 -24 35 -4 35 5 0 30
-12 56 -27z m718 -23 c11 -54 4 -62 -37 -40 -14 8 -19 21 -19 50 0 35 3 40 23
40 20 0 25 -7 33 -50z m1042 23 c-37 -40 -42 -66 -18 -88 15 -13 29 -16 56
-12 25 4 34 3 27 -4 -5 -5 -41 -9 -79 -7 l-69 3 -3 33 c-3 26 3 39 24 59 48
44 102 58 62 16z m232 12 c-33 -19 -49 -19 -24 0 10 8 26 14 34 14 9 0 4 -6
-10 -14z m-1222 -37 c-2 -30 -8 -43 -18 -43 -10 0 -16 13 -18 43 -3 37 -1 42
18 42 19 0 21 -5 18 -42z m662 23 c-14 -27 -57 -56 -119 -80 -43 -18 -53 -19
-57 -7 -10 26 17 57 69 82 29 13 67 24 85 24 29 0 32 -2 22 -19z m-1220 -6 c0
-8 -5 -15 -11 -15 -6 0 -9 -7 -5 -15 3 -9 0 -15 -9 -15 -15 0 -21 40 -8 53 12
13 33 7 33 -8z m1260 -34 c0 -20 -40 -51 -65 -51 -9 0 -26 -10 -38 -22 -34
-34 -73 -50 -86 -35 -15 19 -2 31 66 62 34 15 71 38 84 51 24 25 39 23 39 -5z
m-990 9 c52 -33 -115 -100 -184 -74 -33 13 -14 21 42 18 31 -1 45 0 30 2 -31
6 -38 24 -10 24 9 0 33 9 52 19 40 23 49 24 70 11z m326 -26 c-3 -9 -6 -31 -6
-49 0 -26 -5 -34 -24 -39 -33 -8 -40 -45 -20 -98 22 -55 32 -68 55 -68 12 0
19 -7 19 -19 0 -18 -34 -34 -75 -36 -5 0 -16 -4 -23 -9 -18 -11 -36 8 -28 29
5 15 9 15 24 4 15 -12 15 -11 -1 8 -17 19 -17 30 -8 116 12 109 18 127 37 127
8 0 20 11 26 25 12 27 34 35 24 9z m-146 -14 c11 -11 29 -20 41 -20 14 0 19
-5 16 -14 -3 -7 -9 -50 -12 -95 -4 -44 -11 -81 -14 -81 -4 0 -16 7 -27 15 -34
26 -40 16 -6 -11 20 -16 32 -34 32 -50 0 -29 -13 -31 -40 -4 -11 11 -20 25
-20 30 0 6 -4 10 -10 10 -17 0 -11 -17 16 -49 19 -23 22 -31 11 -31 -20 0 -77
-48 -77 -65 0 -7 -7 -18 -15 -25 -13 -11 -15 -8 -15 15 0 39 86 395 95 395 3
0 14 -9 25 -20z m200 0 c5 0 14 -25 21 -55 14 -61 24 -69 34 -26 8 38 48 81
75 81 11 0 20 -5 20 -10 0 -24 -56 -119 -70 -120 -9 0 -21 -5 -28 -12 -8 -8
-15 -8 -29 3 -17 13 -17 13 -1 -6 17 -21 19 -60 2 -61 -5 0 -24 -4 -42 -8 -22
-5 -38 -4 -45 3 -15 15 -5 22 43 28 29 4 38 9 31 16 -6 6 -11 20 -11 32 0 11
-9 34 -20 50 -25 38 -28 100 -4 91 9 -3 19 -6 24 -6z m772 -27 c6 -47 2 -53
-18 -25 -10 15 -26 22 -47 22 l-32 1 35 19 c49 27 57 25 62 -17z m-1422 7 c0
-5 -2 -10 -4 -10 -3 0 -8 5 -11 10 -3 6 -1 10 4 10 6 0 11 -4 11 -10z m877
-12 c32 -30 29 -43 -14 -73 -47 -32 -68 -33 -53 -4 7 11 9 23 6 26 -3 4 -11
-8 -17 -25 -6 -18 -17 -32 -25 -32 -8 0 -14 3 -14 6 0 14 74 124 83 124 6 0
21 -10 34 -22z m-834 -15 c11 -10 -13 -33 -34 -33 -12 0 -19 7 -19 20 0 14 7
20 23 20 13 0 27 -3 30 -7z m995 -44 c13 -20 10 -25 -29 -65 -44 -45 -59 -53
-59 -32 0 17 -41 58 -58 58 -12 0 -9 7 8 25 13 14 30 23 36 21 7 -3 25 -1 41
4 42 13 47 12 61 -11z m172 -14 c0 -37 -8 -43 -28 -23 -20 20 -15 58 8 58 16
0 20 -7 20 -35z m-1086 9 c13 -34 5 -83 -17 -111 -13 -15 -27 -37 -31 -47 -3
-10 -9 -16 -13 -12 -3 3 0 17 7 31 7 14 11 27 8 30 -3 3 -11 -8 -18 -25 -12
-28 -16 -30 -44 -24 -38 8 -43 16 -52 73 -8 51 4 77 34 74 11 -1 26 4 32 12
17 21 86 20 94 -1z m1256 -3 c0 -13 -9 -21 -30 -26 -33 -7 -50 -1 -50 20 0 16
15 23 53 24 20 1 27 -4 27 -18z m-761 -25 c28 -44 27 -46 -14 -46 -38 0 -61
27 -50 60 10 31 41 24 64 -14z m515 -21 c5 -20 -1 -31 -33 -60 -51 -46 -77
-110 -105 -254 -12 -65 -31 -133 -42 -152 -18 -31 -179 -179 -195 -179 -11 0
-34 63 -23 67 107 36 165 135 184 314 11 109 31 149 118 232 67 63 87 70 96
32z m-1498 -1 c31 -9 62 -13 70 -10 27 10 33 -3 18 -39 -18 -45 -9 -80 26
-107 24 -17 27 -24 17 -39 -13 -22 4 -46 36 -51 28 -4 35 -36 10 -44 -10 -3
-25 -9 -32 -13 -8 -4 -28 -1 -43 6 -26 14 -27 16 -13 36 32 45 8 90 -35 67
-37 -20 -42 -13 -36 53 5 58 4 59 -5 19 -13 -53 -38 -54 -57 -2 l-13 35 5 -35
c4 -29 -1 -24 -31 37 -31 60 -35 74 -24 87 17 20 39 20 107 0z m1099 -13 c-3
-6 -11 -11 -17 -11 -6 0 -6 6 2 15 14 17 26 13 15 -4z m85 15 c0 -3 -4 -8 -10
-11 -5 -3 -10 -1 -10 4 0 6 5 11 10 11 6 0 10 -2 10 -4z m95 -26 c23 -25 14
-34 -47 -49 -63 -15 -78 -14 -54 4 11 8 14 15 8 15 -18 0 -15 21 6 36 25 20
66 17 87 -6z m-1000 -8 c11 -9 28 -29 37 -44 14 -22 15 -28 4 -37 -11 -9 -23
-6 -51 14 -21 14 -47 25 -59 25 -16 -1 -11 -6 20 -23 40 -22 104 -75 104 -86
0 -3 -17 -25 -39 -49 -21 -23 -34 -42 -29 -42 13 0 73 60 79 79 8 22 27 5 34
-31 13 -58 -59 -94 -142 -72 -16 4 -23 14 -23 31 0 18 -9 28 -37 40 -35 14
-36 16 -18 29 10 8 35 14 54 15 43 1 79 13 64 22 -5 4 -34 6 -64 5 -30 -1 -64
4 -77 11 -32 17 -46 58 -29 84 27 41 136 60 172 29z m358 -41 c16 -16 -9 -39
-51 -45 -20 -3 -57 -8 -81 -11 -23 -3 -47 -8 -52 -11 -5 -3 -9 -1 -9 5 0 5 21
13 48 17 l47 8 -35 6 -35 6 40 22 c42 23 106 25 128 3z m451 -17 c8 -21 9 -20
-43 -29 -34 -6 -42 -4 -39 6 5 15 45 39 64 39 7 0 15 -7 18 -16z m-1571 -12
c21 -23 48 -88 40 -96 -4 -3 -25 11 -47 31 -22 21 -34 29 -26 19 8 -11 15 -40
16 -65 0 -25 2 -53 5 -61 2 -8 0 -15 -6 -15 -5 -1 -18 -5 -28 -10 -12 -5 -31
-2 -53 8 -34 17 -49 6 -17 -12 13 -7 4 -11 -40 -16 -75 -10 -89 -3 -85 37 3
30 6 33 42 38 43 6 55 20 31 40 -27 22 -18 42 17 38 25 -2 40 -14 66 -48 19
-25 41 -49 49 -54 23 -13 -12 44 -66 107 l-44 52 48 7 c26 4 50 9 53 12 10 11
29 6 45 -12z m1757 -33 c-11 -24 -20 -54 -20 -67 0 -15 -5 -22 -12 -19 -7 2
-13 20 -13 39 0 19 -6 42 -14 52 -8 9 -12 18 -10 20 5 4 83 23 87 21 1 -1 -7
-22 -18 -46z m-1380 6 c17 -9 30 -20 30 -25 0 -19 -20 -19 -54 1 -19 11 -43
19 -53 17 -13 -3 -9 -8 18 -22 48 -23 83 -61 75 -81 -5 -13 -10 -14 -27 -4
-33 17 -79 29 -79 19 0 -4 16 -11 35 -14 51 -10 52 -24 3 -46 -52 -24 -68 -25
-94 -5 -18 14 -18 16 -1 29 21 16 21 25 2 46 -12 13 -13 23 -6 43 21 54 91 73
151 42z m740 -65 c-17 -32 -46 -33 -100 -3 -27 15 -50 31 -50 34 0 3 28 10 63
15 55 9 64 8 79 -9 13 -14 15 -24 8 -37z m480 30 c0 -26 -3 -30 -29 -30 -26 0
-38 12 -41 38 -1 7 32 19 58 21 7 1 12 -11 12 -29z m84 -15 c-1 -28 4 -43 19
-55 19 -16 19 -17 -25 -53 -25 -20 -49 -37 -54 -37 -16 1 -54 38 -54 52 0 8
-6 20 -12 26 -10 10 -10 15 2 22 22 14 33 8 55 -33 37 -68 47 -40 16 43 l-19
50 21 15 c35 25 52 15 51 -30z m-153 -50 c6 -22 16 -46 21 -53 18 -21 0 -27
-22 -7 -16 15 -20 15 -15 3 4 -9 0 -18 -9 -21 -9 -4 -16 -17 -16 -31 0 -22 -6
-26 -55 -36 -74 -15 -110 -11 -110 15 0 22 12 23 80 12 l40 -7 -55 27 c-62 32
-69 43 -39 61 18 12 24 11 43 -5 45 -40 60 -46 30 -13 -40 44 -58 80 -47 90 4
5 33 15 63 23 64 17 73 11 91 -58z m-566 40 c21 -13 55 -32 76 -42 30 -13 39
-22 37 -38 -2 -15 -10 -20 -30 -18 -19 1 -29 -4 -33 -18 -14 -42 -84 -8 -114
55 -29 62 -27 71 12 43 59 -45 85 -51 40 -10 -63 57 -55 74 12 28z m355 18 c0
-11 -76 -73 -89 -73 -17 0 -13 15 12 37 37 34 77 52 77 36z m-1206 -56 c13
-35 -15 -97 -43 -97 -17 0 -18 6 -14 43 3 31 2 38 -6 27 -6 -8 -11 -27 -11
-42 0 -14 -6 -28 -12 -31 -10 -3 -10 -9 1 -29 10 -20 10 -30 2 -47 -7 -12 -16
-19 -22 -16 -12 8 -12 78 0 91 5 5 5 30 -2 61 -12 60 -6 74 22 49 19 -17 20
-17 31 4 15 28 42 22 54 -13z m346 9 c0 -8 -7 -16 -15 -20 -15 -5 -21 14 -8
27 11 12 23 8 23 -7z m903 -7 c3 -12 0 -22 -9 -26 -20 -7 -24 -1 -17 25 7 28
19 28 26 1z m-793 5 c0 -18 -23 -44 -40 -44 -26 0 -50 -27 -50 -56 0 -16 -6
-24 -16 -24 -13 0 -15 7 -11 36 7 39 30 72 62 85 24 9 55 11 55 3z m744 -61
c-7 -64 -9 -85 -12 -159 -2 -26 -9 -34 -40 -48 -29 -13 -47 -15 -73 -8 l-34 9
1 62 c1 61 2 64 50 112 43 43 53 49 79 44 29 -6 29 -5 10 10 -20 16 -20 16 -1
31 11 8 22 14 24 14 2 0 1 -30 -4 -67z m-904 17 c0 -5 -5 -10 -11 -10 -5 0 -7
5 -4 10 3 6 8 10 11 10 2 0 4 -4 4 -10z m530 -65 c37 -19 79 -19 86 0 4 8 12
15 20 15 9 0 2 -21 -22 -65 -20 -36 -34 -68 -32 -70 2 -3 22 23 43 56 21 33
55 72 74 85 l36 24 3 -25 c2 -15 -7 -38 -21 -57 -14 -18 -35 -52 -46 -76 l-22
-44 -62 4 c-34 2 -70 8 -80 12 -13 6 -16 5 -11 -8 4 -10 1 -16 -9 -16 -16 0
-27 58 -27 150 0 65 7 78 27 50 8 -11 27 -27 43 -35z m260 46 c0 -5 -7 -11
-15 -15 -9 -3 -15 0 -15 9 0 8 7 15 15 15 8 0 15 -4 15 -9z m523 -75 c-7 -12
-11 -12 -30 4 l-22 18 27 27 27 28 3 -32 c2 -17 0 -37 -5 -45z m-1337 48 c-3
-9 -9 -28 -12 -42 -6 -26 -6 -26 9 -7 21 25 21 17 2 -29 -16 -38 -32 -46 -41
-21 -4 8 -12 15 -19 15 -6 0 -20 8 -29 19 -16 18 -15 20 31 49 55 35 68 38 59
16z m184 -29 c0 -40 -9 -44 -35 -15 -21 23 -13 50 15 50 16 0 20 -6 20 -35z
m121 19 c17 -15 17 -18 -2 -68 -11 -28 -27 -58 -36 -66 -14 -14 -15 -12 -9 20
18 88 19 103 8 97 -5 -4 -13 -26 -17 -50 -10 -67 -15 -77 -37 -77 -16 0 -19 5
-14 23 3 12 6 42 6 66 0 33 3 42 14 38 8 -3 22 3 32 14 21 23 32 24 55 3z
m159 -36 c0 -41 0 -42 -16 -20 -8 12 -24 22 -35 22 -30 0 -22 16 14 28 17 5
33 10 35 11 1 1 2 -18 2 -41z m748 30 c30 -30 -7 -64 -58 -53 -33 7 -46 40
-22 55 24 13 66 12 80 -2z m-1658 -10 c-1 -38 -16 -57 -64 -81 -29 -15 -56
-27 -59 -27 -4 0 -7 15 -7 34 0 29 4 36 31 45 18 6 43 11 55 11 15 0 24 6 24
15 0 8 5 15 10 15 6 0 10 -6 10 -12z m810 2 c0 -5 -4 -10 -10 -10 -5 0 -10 5
-10 10 0 6 5 10 10 10 6 0 10 -4 10 -10z m-637 -42 c22 -26 23 -91 1 -109 -14
-11 -20 -10 -40 14 -35 41 -29 56 8 21 l31 -29 -25 35 c-14 19 -28 50 -32 68
-5 31 -4 33 17 27 12 -4 30 -16 40 -27z m1527 22 c0 -5 -4 -10 -10 -10 -5 0
-10 5 -10 10 0 6 5 10 10 10 6 0 10 -4 10 -10z m-1105 -32 c37 -33 45 -67 20
-88 -13 -11 -19 -9 -38 7 -12 11 -32 26 -44 32 -13 6 -23 19 -23 27 0 13 35
52 48 54 1 0 18 -14 37 -32z m240 22 c3 -5 14 -10 25 -10 41 0 31 -79 -13 -94
-41 -15 -44 1 -7 39 18 19 31 38 27 41 -4 4 -24 -12 -45 -35 -22 -24 -46 -41
-60 -41 -28 0 -28 13 0 53 34 51 60 68 73 47z m914 -13 c19 -21 20 -28 10 -53
l-11 -29 -10 30 c-6 17 -17 37 -24 46 -13 14 -10 29 6 29 4 0 16 -11 29 -23z
m-1278 -69 c-31 -32 -34 -17 -9 38 l22 49 4 -32 c2 -23 -3 -39 -17 -55z m-194
32 c37 -22 70 -40 75 -40 4 0 8 -4 8 -9 0 -7 -123 -41 -149 -41 -3 0 -6 29 -6
65 0 36 1 65 3 65 2 0 33 -18 69 -40z m1336 -47 l3 -58 2 63 c1 34 4 62 6 62
2 0 11 3 20 6 19 7 31 -50 22 -101 -6 -29 -12 -36 -43 -44 -24 -7 -42 -7 -55
0 -11 6 -35 8 -54 4 -48 -9 -45 17 9 67 l42 39 -40 -25 c-43 -28 -84 -33 -103
-14 -23 23 -12 33 61 59 63 22 75 23 99 12 24 -12 27 -20 31 -70z m91 65 c19
-27 21 -89 4 -106 -25 -25 -33 -11 -33 58 0 39 3 70 7 70 4 0 14 -10 22 -22z
m-1706 -20 c-40 -63 -59 -98 -54 -98 3 0 19 21 36 46 18 25 34 43 37 40 3 -2
-6 -30 -20 -60 -27 -59 -45 -68 -81 -41 -27 21 -14 57 36 97 24 18 45 37 47
41 1 5 5 6 8 3 3 -3 -1 -16 -9 -28z m1202 -23 c0 -41 -2 -45 -25 -45 -14 0
-25 2 -25 5 0 10 40 85 45 85 3 0 5 -20 5 -45z m200 5 c0 -11 -6 -20 -14 -20
-9 0 -12 7 -9 20 3 11 9 20 14 20 5 0 9 -9 9 -20z m-480 -46 c0 -13 -8 -24
-20 -27 -26 -7 -35 9 -16 29 9 8 16 23 16 32 0 15 2 15 10 2 5 -8 10 -25 10
-36z m-828 -10 c-7 -14 -18 -24 -25 -21 -15 5 -11 48 6 59 20 12 31 -9 19 -38z
m1824 8 c-10 -30 23 -493 44 -642 11 -74 20 -156 20 -182 0 -43 -4 -50 -46
-87 -50 -44 -68 -51 -60 -23 18 59 28 128 28 207 1 50 5 95 11 102 11 15 -28
139 -47 150 -8 5 -21 24 -31 43 -32 63 -115 179 -135 190 -20 11 -28 40 -12
40 17 0 165 134 195 176 34 48 42 54 33 26z m-483 -4 c34 -17 44 -55 20 -80
-18 -18 -20 -17 -62 18 -29 26 -39 40 -32 47 8 8 21 -1 46 -29 36 -41 38 -23
3 29 -21 30 -15 33 25 15z m-891 -15 c10 -9 18 -22 18 -30 0 -23 -25 -14 -48
17 -20 26 -20 30 -6 30 10 0 26 -7 36 -17z m-411 -25 c-28 -10 -34 -7 -25 15
5 14 10 15 27 5 l21 -11 -23 -9z m319 7 c55 -29 49 -93 -12 -138 -40 -30 -45
-14 -10 34 35 47 33 59 -6 59 -59 0 -150 -37 -194 -77 l-26 -25 -7 24 c-4 12
-14 31 -23 40 -17 21 -14 23 113 58 44 12 87 26 95 31 22 12 37 11 70 -6z
m354 1 c19 -8 80 -45 137 -84 155 -103 162 -106 254 -106 67 0 91 5 152 31 78
34 85 33 117 -18 l17 -26 -49 -21 c-27 -12 -66 -25 -88 -30 -41 -9 -155 0
-220 17 -66 18 -209 85 -269 127 -53 36 -64 39 -135 43 -72 3 -79 5 -84 26 -3
13 -9 30 -12 39 -5 14 4 16 70 16 43 0 91 -6 110 -14z m306 -4 c0 -28 -10 -32
-36 -15 -28 18 -23 33 12 33 17 0 24 -6 24 -18z m88 -4 c3 -16 -42 -48 -68
-48 -9 0 -5 41 7 63 9 15 58 3 61 -15z m-138 -14 c49 -33 45 -42 -10 -20 -45
18 -64 20 -56 7 3 -5 27 -14 52 -20 45 -12 46 -13 26 -27 -19 -13 -25 -12 -64
12 -60 38 -73 59 -40 67 36 10 54 6 92 -19z m180 17 c0 -5 -7 -11 -15 -15 -9
-3 -15 0 -15 9 0 8 7 15 15 15 8 0 15 -4 15 -9z m90 -1 c0 -5 -2 -10 -4 -10
-3 0 -8 5 -11 10 -3 6 -1 10 4 10 6 0 11 -4 11 -10z m-29 -44 c11 -14 28 -28
39 -31 24 -8 26 -21 3 -29 -18 -7 -96 61 -87 76 9 14 26 9 45 -16z m-22 -80
c-16 -8 -27 -3 -57 28 -30 29 -34 38 -23 45 10 7 27 -1 57 -27 39 -34 41 -38
23 -46z m-685 58 c8 -21 -11 -45 -30 -37 -17 6 -18 25 -2 41 16 16 25 15 32
-4z m977 -7 c9 -7 21 -22 27 -33 10 -20 8 -23 -34 -39 l-46 -18 -24 29 c-13
16 -23 34 -24 41 -1 29 71 43 101 20z m-1436 -22 c54 -53 17 -136 -54 -120
-45 10 -63 36 -59 86 3 47 0 44 81 58 4 0 19 -10 32 -24z m1053 -5 c17 -16 27
-31 24 -31 -35 -6 -82 21 -82 48 0 22 27 15 58 -17z m-543 -32 c-12 -39 -40
-61 -69 -54 -33 8 -34 26 -1 26 14 0 31 10 42 25 23 31 36 32 28 3z m145 0
c25 -13 45 -30 45 -38 0 -17 -58 -39 -127 -47 -72 -9 -80 -2 -57 44 10 20 19
43 19 50 0 21 71 15 120 -9z m-265 -8 c23 -26 15 -34 -18 -19 -15 7 -23 17
-20 25 7 19 17 18 38 -6z m-20 -40 c3 -5 -5 -12 -19 -16 -20 -5 -27 -14 -32
-43 -8 -54 -14 -66 -23 -55 -17 17 -23 72 -9 80 9 6 6 10 -12 15 -24 6 -24 6
10 17 46 13 77 14 85 2z m101 -33 c8 3 14 1 14 -5 0 -16 -54 -24 -85 -12 -26
10 -27 12 -10 24 15 11 23 11 43 0 13 -7 31 -10 38 -7z m1039 4 c0 -19 -44
-30 -73 -20 -44 17 -18 39 43 36 19 -1 30 -7 30 -16z m107 -88 c90 -143 90
-144 38 -156 -21 -5 -31 0 -51 26 -35 44 -49 89 -49 158 0 33 2 59 4 59 2 0
28 -39 58 -87z m-1358 55 c11 -44 8 -50 -25 -43 -20 5 -29 3 -25 -3 3 -5 19
-12 36 -15 38 -8 38 -22 1 -35 -36 -13 -49 -1 -58 51 -4 28 -1 37 18 51 32 22
46 20 53 -6z m576 2 c0 -9 -42 -22 -48 -15 -3 3 1 11 7 19 12 14 41 12 41 -4z
m-930 -4 c0 -9 -166 -114 -203 -130 -33 -13 -39 -13 -44 -1 -13 36 1 46 162
112 48 20 85 28 85 19z m1430 -35 c0 -14 -9 -18 -37 -19 -21 -1 -51 -4 -68 -8
-33 -6 -169 -77 -198 -102 -25 -22 -37 -5 -40 59 -1 42 1 53 12 51 8 -2 53 -3
100 -4 67 0 100 5 151 24 70 26 80 26 80 -1z m74 23 c9 -3 16 -10 16 -16 0
-14 -53 -5 -58 10 -4 13 16 16 42 6z m-1005 -14 c4 0 31 -22 60 -50 67 -64 96
-65 225 -10 119 50 184 72 199 67 27 -9 -199 -107 -303 -131 l-62 -15 -36 33
c-20 17 -56 47 -79 65 -43 32 -58 59 -27 47 9 -3 19 -6 23 -6z m1131 -24 c0
-39 -19 -59 -52 -54 -19 2 -24 10 -26 40 -3 38 -3 38 66 47 7 0 12 -12 12 -33z
m-566 -11 c-4 -8 -1 -44 5 -80 10 -56 9 -69 -5 -97 -27 -53 -54 -159 -54 -216
0 -50 -2 -53 -35 -69 -19 -9 -35 -20 -35 -25 0 -8 51 -140 57 -147 1 -2 21 4
43 14 l40 18 37 -38 c54 -56 147 -112 205 -125 49 -10 88 -33 88 -51 0 -5 -18
-13 -40 -19 -23 -6 -86 -33 -142 -61 l-102 -49 -29 52 c-16 29 -60 99 -97 154
-106 156 -148 230 -192 328 -22 50 -64 132 -94 182 -30 50 -54 93 -54 96 0 3
21 11 46 17 25 7 99 33 163 60 184 76 204 81 195 56z m-702 -69 c9 -43 -36
-62 -77 -32 -26 19 -12 44 27 49 18 2 36 5 39 5 4 1 9 -9 11 -22z m1202 -70
c5 -37 6 -70 2 -73 -3 -3 -20 8 -37 25 -29 29 -30 31 -15 54 9 14 13 27 10 31
-11 10 5 39 19 35 7 -3 16 -34 21 -72z m81 42 c14 -83 24 -172 19 -180 -3 -4
-18 -8 -33 -8 l-28 0 -8 101 c-5 80 -4 104 7 110 25 16 37 9 43 -23z m-145
-13 c0 -8 -4 -15 -10 -15 -5 0 -10 7 -10 15 0 8 5 15 10 15 6 0 10 -7 10 -15z
m-1114 -24 c-17 -31 -38 -44 -61 -35 -19 8 -20 24 -1 24 8 0 24 9 37 20 34 27
42 25 25 -9z m1064 -1 c0 -26 -36 -46 -56 -29 -19 16 -18 24 9 37 33 16 47 14
47 -8z m250 -21 c0 -5 -4 -9 -10 -9 -5 0 -10 7 -10 16 0 8 5 12 10 9 6 -3 10
-10 10 -16z m-340 -14 c18 -22 8 -27 -26 -15 -23 9 -25 13 -14 20 20 13 26 12
40 -5z m449 -7 c4 -13 11 -37 14 -54 6 -30 4 -33 -36 -48 -54 -20 -57 -20 -57
3 0 10 -9 30 -20 44 -29 37 -25 44 28 60 63 20 61 20 71 -5z m-1043 -226 c58
-119 127 -248 151 -286 24 -37 42 -70 39 -73 -2 -2 -22 19 -44 49 -39 52 -272
504 -272 528 0 29 26 -16 126 -218z m721 213 c8 -23 -26 -58 -44 -44 -18 15
-16 29 5 45 23 18 31 17 39 -1z m-183 -10 c11 -8 36 -15 56 -15 29 0 39 -5 54
-31 10 -17 14 -34 10 -39 -12 -10 -204 -84 -207 -79 -43 79 -43 94 6 147 34
35 52 39 81 17z m231 -35 c9 -15 -14 -40 -36 -40 -23 0 -24 8 -2 32 18 20 29
23 38 8z m43 -62 c6 -6 34 -12 62 -12 65 0 61 -20 -4 -24 -49 -3 -102 19 -91
38 8 13 19 12 33 -2z m-81 -15 c15 -4 22 -14 25 -39 4 -33 3 -34 -34 -34 -45
0 -48 9 -10 34 15 9 19 15 10 12 -10 -3 -26 -9 -35 -12 -15 -5 -14 -3 2 11 19
16 19 16 -10 13 -27 -3 -30 -6 -27 -35 2 -24 -1 -33 -12 -33 -15 0 -36 29 -36
49 0 15 73 51 90 44 8 -3 25 -8 37 -10z m338 -4 c15 -46 -25 -309 -46 -309 -5
0 -9 10 -9 23 0 12 -7 55 -15 96 -10 48 -13 93 -9 132 6 51 10 59 33 68 37 14
39 13 46 -10z m-651 -35 c7 -18 0 -34 -15 -34 -5 0 -9 11 -9 25 0 28 15 34 24
9z m556 6 c0 -15 -33 -50 -47 -50 -20 0 -15 20 10 41 25 21 37 24 37 9z m-380
-35 c10 -31 18 -37 40 -37 3 0 15 3 28 7 14 4 22 2 22 -5 0 -12 -115 -67 -158
-76 -26 -5 -29 -2 -44 47 -18 54 -16 69 6 69 9 0 12 -9 8 -25 -2 -14 1 -32 8
-40 14 -17 75 -20 85 -5 4 6 -6 10 -22 10 -41 0 -54 16 -40 49 23 52 51 55 67
6z m235 -23 c-3 -3 -11 0 -18 7 -9 10 -8 11 6 5 10 -3 15 -9 12 -12z m-385 1
c0 -5 -7 -17 -16 -28 -12 -16 -18 -18 -34 -7 -11 7 -20 8 -20 2 0 -5 9 -14 20
-20 11 -6 20 -16 20 -22 0 -6 7 -20 16 -29 16 -17 15 -19 -12 -30 -76 -29
-162 -59 -171 -59 -5 0 -15 18 -22 41 -7 23 -14 46 -17 53 -2 6 16 22 41 34
l45 22 0 -33 c0 -57 38 -74 81 -36 21 18 21 20 4 14 -56 -20 -65 -19 -65 12 0
33 19 52 75 76 46 18 55 20 55 10z m343 -26 c3 -8 8 -38 12 -68 l6 -54 -52
-35 c-54 -37 -99 -43 -180 -27 -30 6 -38 13 -47 44 -6 21 -8 40 -4 44 4 4 53
23 109 44 56 20 110 43 120 51 23 17 30 17 36 1z m-313 -70 c0 -10 -5 -17 -12
-15 -16 6 -31 55 -23 76 6 14 10 12 21 -13 7 -16 13 -38 14 -48z m390 40 c0
-23 -25 -66 -33 -57 -2 3 -7 22 -11 43 -7 35 -5 37 19 37 19 0 25 -5 25 -23z
m434 -47 c-6 -6 -28 -13 -50 -17 -40 -6 -40 10 1 20 38 9 60 8 49 -3z m-804
-51 c0 -6 -4 -7 -10 -4 -5 3 -10 11 -10 16 0 6 5 7 10 4 6 -3 10 -11 10 -16z
m543 -174 c-5 -30 5 -93 22 -138 5 -11 -6 -19 -39 -30 -34 -12 -46 -13 -46 -4
0 11 34 153 46 190 10 31 23 18 17 -18z m-1083 15 c0 -5 -18 -19 -40 -30 -54
-28 -182 -150 -237 -227 -41 -57 -143 -247 -171 -318 -22 -57 -5 56 19 119 46
124 220 333 354 424 63 43 75 48 75 32z m780 -57 c0 -5 -4 -14 -9 -22 -8 -13
-14 -13 -38 -1 l-28 13 30 8 c43 10 45 10 45 2z m-515 -161 l40 -32 -28 0
c-47 0 -86 28 -128 92 -21 34 -39 66 -39 71 0 6 26 -14 58 -44 31 -30 75 -69
97 -87z m483 70 c-1 -4 -12 -29 -22 -55 -18 -44 -21 -48 -45 -41 -14 4 -41 10
-60 13 -66 12 -51 27 74 74 47 18 58 20 53 9z m382 -61 c0 -7 -40 -21 -107
-34 -13 -3 -23 -2 -23 3 0 4 26 15 58 23 71 19 72 19 72 8z m-560 -15 c0 -3
-4 -8 -10 -11 -5 -3 -10 -1 -10 4 0 6 5 11 10 11 6 0 10 -2 10 -4z m618 -65
c17 -28 32 -58 32 -68 -1 -17 -2 -16 -15 2 -59 81 -101 98 -151 60 -44 -33
-54 -54 -65 -129 -8 -55 3 -405 17 -553 7 -64 24 -70 24 -8 0 42 16 95 30 95
3 0 11 -12 16 -27 8 -22 9 -15 6 35 -2 34 -2 62 1 62 3 0 22 -36 43 -80 42
-89 65 -109 33 -27 -63 159 -61 145 -37 199 11 26 24 48 27 48 4 0 17 -10 29
-23 18 -19 22 -37 24 -112 l3 -90 9 73 c9 73 9 73 28 54 19 -18 19 -22 4 -108
-9 -49 -16 -105 -15 -124 0 -31 1 -33 9 -12 5 12 15 63 21 112 6 50 14 90 18
90 3 -1 26 -28 51 -61 70 -93 64 -89 141 -89 49 0 69 4 69 13 0 27 -19 37 -78
43 -46 5 -66 12 -72 25 -11 19 4 37 15 19 3 -5 13 -10 22 -10 12 0 14 7 9 32
l-6 32 22 -21 c35 -32 91 -63 114 -63 11 0 30 -11 43 -23 l22 -24 -58 -26
c-85 -37 -253 -94 -378 -127 -110 -29 -231 -47 -358 -52 l-69 -3 -24 65 c-21
57 -23 71 -13 113 6 26 15 47 20 47 5 0 9 -5 9 -10 0 -19 54 -150 62 -150 11
0 2 36 -33 135 -18 51 -25 85 -19 95 7 13 10 12 15 -5 14 -42 69 -147 72 -138
2 6 -14 52 -37 102 -27 62 -37 97 -32 108 7 11 15 -2 32 -49 24 -66 107 -238
114 -238 3 0 3 15 1 33 -3 17 -7 100 -9 182 -3 83 -11 193 -17 245 -6 52 -11
100 -11 105 0 6 19 63 43 128 34 95 45 116 59 112 9 -3 41 4 71 14 29 11 61
20 69 20 8 1 30 -21 48 -48z m-33 -61 c21 -22 36 -42 33 -46 -10 -9 -23 2 -58
46 -41 52 -25 52 25 0z m-567 19 c-2 -6 -8 -10 -13 -10 -5 0 -11 4 -13 10 -2
6 4 11 13 11 9 0 15 -5 13 -11z m508 -46 c-4 -4 -11 -1 -16 7 -16 25 -11 35 7
17 9 -9 13 -20 9 -24z m-555 -29 c-14 -49 -14 -118 0 -167 12 -43 3 -85 -14
-68 -7 7 -11 59 -11 133 -1 127 6 170 25 151 7 -7 7 -22 0 -49z m109 49 c-1
-18 -18 -35 -24 -24 -4 6 -4 16 -1 21 7 12 25 13 25 3z m410 -19 c0 -8 -7 -14
-15 -14 -17 0 -18 2 -9 24 7 18 24 12 24 -10z m-450 -18 c9 -26 3 -66 -11 -66
-11 0 -23 66 -14 79 9 16 15 14 25 -13z m520 -26 c0 -5 -4 -10 -10 -10 -5 0
-10 5 -10 10 0 6 5 10 10 10 6 0 10 -4 10 -10z m-96 -25 c-4 -8 -8 -15 -10
-15 -2 0 -4 7 -4 15 0 8 4 15 10 15 5 0 7 -7 4 -15z m-444 -36 c0 -10 -5 -30
-11 -46 l-12 -28 -10 32 c-5 17 -7 44 -3 58 6 22 9 25 21 15 8 -7 15 -21 15
-31z m487 -121 l52 -51 -20 -39 c-11 -21 -22 -38 -25 -38 -7 0 -61 119 -70
153 -3 15 -2 27 2 27 5 0 32 -23 61 -52z m-189 -23 c1 -36 -2 -65 -6 -65 -4 0
-15 11 -24 24 -16 22 -16 27 -1 65 9 23 19 41 22 41 4 0 8 -29 9 -65z m459
-32 c61 -74 86 -107 70 -94 -25 20 -43 1 -27 -29 6 -12 10 -24 7 -26 -6 -6
-133 119 -146 144 -10 19 -9 20 24 15 23 -4 35 -2 35 6 0 18 13 13 37 -16z
m-479 -43 c14 -18 22 -40 20 -54 -3 -24 -4 -24 -36 15 -19 22 -31 46 -28 54 8
21 18 18 44 -15z m177 -127 c-12 -51 -25 -20 -24 60 l1 82 15 -60 c8 -33 11
-70 8 -82z m-187 53 l43 -44 -3 -73 -3 -72 -34 84 c-19 46 -40 99 -48 117 -18
44 -6 40 45 -12z m1141 -122 c4 -4 -68 -70 -113 -105 -99 -76 -353 -217 -475
-264 -130 -50 -387 -114 -480 -120 l-76 -4 92 19 c51 10 130 30 175 44 46 13
121 34 168 45 47 11 128 39 180 64 123 57 371 220 435 286 38 39 54 50 70 45
11 -4 22 -8 24 -10z"/>
<path d="M4985 7634 l-30 -26 32 16 c17 9 35 20 38 26 11 18 -9 10 -40 -16z"/>
<path d="M5045 7569 c-22 -10 -33 -19 -24 -19 25 0 79 21 79 31 0 12 -8 10
-55 -12z"/>
<path d="M4940 7296 c0 -2 7 -9 15 -16 13 -11 14 -10 9 4 -5 14 -24 23 -24 12z"/>
<path d="M4710 7250 c0 -11 65 -32 87 -28 9 2 -7 10 -35 20 -29 9 -52 12 -52
8z"/>
<path d="M4828 7213 c7 -3 16 -2 19 1 4 3 -2 6 -13 5 -11 0 -14 -3 -6 -6z"/>
<path d="M3988 6973 c7 -3 16 -2 19 1 4 3 -2 6 -13 5 -11 0 -14 -3 -6 -6z"/>
<path d="M5498 6923 c-16 -2 -28 -8 -28 -13 0 -5 17 -4 38 2 61 17 57 21 -10
11z"/>
<path d="M4084 6695 c-9 -23 3 -45 26 -45 22 0 25 12 10 41 -13 23 -28 25 -36
4z"/>
<path d="M5542 4769 c12 -22 29 -45 37 -52 7 -6 -1 12 -19 41 -37 61 -51 70
-18 11z"/>
<path d="M5756 5794 c-3 -22 -5 -66 -5 -99 2 -70 -8 -96 -89 -236 -40 -70 -82
-166 -127 -289 -36 -102 -86 -232 -110 -290 -48 -116 -61 -165 -47 -174 5 -3
14 7 20 22 5 15 28 77 51 137 22 61 68 190 101 289 45 133 79 213 136 317 82
150 93 183 94 274 0 74 -15 105 -24 49z"/>
<path d="M7062 4340 c-62 -28 -127 -85 -165 -143 l-32 -50 -6 47 c-6 52 -14
60 -74 77 -40 11 -246 7 -329 -7 l-38 -7 4 -63 c5 -86 23 -104 100 -104 l58 0
0 -179 c0 -162 -2 -180 -17 -185 -18 -5 -30 -6 -178 -3 l-80 2 -3 40 c-1 22
-9 92 -17 155 -8 63 -17 159 -21 212 -4 54 -12 101 -18 106 -6 4 -49 5 -96 2
l-85 -5 0 -145 c0 -80 6 -244 14 -364 18 -277 7 -261 173 -252 65 4 142 12
171 18 28 6 72 11 97 10 52 -2 264 15 297 24 26 7 43 55 43 118 l0 40 33 -30
c61 -58 133 -95 198 -104 59 -8 193 1 207 14 3 3 0 6 -6 6 -6 0 -9 7 -6 15 4
10 0 15 -12 15 -18 1 -18 2 -2 13 9 7 20 25 23 40 4 15 25 42 46 62 21 19 38
38 37 42 -1 5 4 19 11 32 12 22 12 24 -8 18 -14 -3 -21 0 -21 9 0 8 -4 14 -10
14 -5 0 -10 11 -10 25 0 33 11 32 71 -7 42 -28 49 -37 49 -65 0 -56 -36 -118
-87 -149 -38 -24 -42 -30 -24 -32 59 -9 126 75 137 175 6 48 5 50 -32 82 -42
34 -103 57 -128 48 -10 -4 -16 -18 -16 -36 0 -33 -52 -86 -96 -97 -35 -9 -108
21 -138 57 -60 71 -38 237 40 298 36 28 107 28 153 0 31 -18 39 -19 77 -9 67
19 104 46 104 75 0 61 -64 126 -148 151 -68 21 -188 18 -240 -6z m228 -26 c60
-18 130 -78 130 -112 0 -33 -138 -72 -142 -39 0 6 -2 18 -2 25 -1 7 -18 27
-39 46 l-38 34 27 6 c14 4 24 10 21 13 -11 10 -59 12 -83 3 -18 -7 -22 -6 -17
5 7 20 -14 19 -25 -1 -5 -9 -11 -15 -13 -14 -2 2 -25 -7 -51 -19 -26 -11 -53
-21 -61 -21 -14 0 -43 -37 -91 -120 -33 -57 -34 -35 -2 29 32 62 127 147 186
166 61 19 135 18 200 -1z m-694 -85 c7 -11 -96 -104 -115 -104 -25 0 -29 102
-4 108 27 8 113 4 119 -4z m232 -44 c4 -44 -14 -65 -55 -65 -27 0 -31 26 -8
56 8 10 15 27 15 37 0 13 6 17 23 15 18 -2 23 -10 25 -43z m-604 -8 c3 -12 5
-47 5 -77 -1 -54 -1 -54 -11 -20 -13 48 -27 60 -35 32 -3 -14 -11 -21 -19 -18
-9 3 -22 -11 -37 -41 -13 -25 -26 -42 -29 -37 -3 5 -9 46 -12 91 l-7 82 48 3
c26 2 58 4 69 5 15 2 24 -4 28 -20z m611 -123 c-30 -116 -26 -241 9 -325 6
-14 2 -16 -34 -9 -22 4 -44 11 -48 14 -11 11 -15 149 -7 251 l7 94 41 14 c23
8 43 14 44 13 1 -1 -5 -24 -12 -52z m-574 -238 c3 -53 0 -81 -7 -83 -8 -3 -11
20 -10 74 0 43 -2 114 -6 158 l-7 80 14 -75 c7 -41 14 -111 16 -154z m550
-126 c17 0 19 -8 19 -60 0 -56 -2 -61 -26 -70 -33 -13 -57 -13 -49 0 4 6 1 18
-6 26 -9 11 -8 18 5 33 14 16 15 24 6 40 -13 25 -4 45 17 37 8 -3 23 -6 34 -6z
m-352 -30 c3 -24 2 -24 -16 -7 -11 9 -25 17 -31 17 -7 0 -12 5 -12 11 0 6 12
9 28 7 20 -2 28 -9 31 -28z m-82 14 c-3 -3 -12 -4 -19 -1 -8 3 -5 6 6 6 11 1
17 -2 13 -5z m162 -20 c-13 -14 -23 -29 -21 -32 2 -4 -1 -8 -6 -10 -9 -3 -22
29 -22 56 0 7 14 12 37 12 l36 0 -24 -26z m-79 -89 c0 -14 -7 -28 -15 -32 -22
-8 -30 4 -16 21 7 8 10 20 6 26 -3 5 1 10 9 10 10 0 16 -9 16 -25z m-310 -31
c0 -8 5 -14 11 -14 5 0 7 -4 4 -10 -18 -29 -54 3 -41 36 7 18 26 10 26 -12z"/>
<path d="M4505 4324 c-112 -26 -188 -50 -192 -61 -3 -7 -9 -13 -15 -13 -5 0
-6 6 -2 13 5 9 4 9 -6 0 -7 -6 -18 -9 -25 -7 -20 8 -21 -13 -11 -164 8 -118 7
-145 -4 -152 -12 -7 -12 -29 -2 -132 25 -251 35 -313 51 -326 13 -11 17 -8 27
20 8 25 18 34 39 38 16 3 27 7 25 10 -9 12 10 50 24 50 13 0 16 12 16 65 0 51
3 65 15 65 12 0 15 -19 15 -115 l0 -115 -25 0 c-14 0 -25 -5 -25 -11 0 -7 -10
-9 -25 -7 -14 3 -28 1 -31 -4 -3 -5 23 -8 63 -6 l68 3 5 129 5 130 107 22
c135 29 166 42 222 94 44 41 45 41 50 18 3 -12 7 -71 10 -130 6 -136 17 -158
98 -198 55 -27 75 -32 165 -35 85 -3 112 -1 147 15 52 22 112 72 132 111 41
80 73 359 55 480 -15 97 -30 111 -120 107 l-66 -3 -7 -50 c-4 -27 -12 -117
-18 -199 -12 -172 -21 -214 -52 -243 -37 -34 -70 -38 -95 -11 -51 55 -58 89
-55 293 1 105 -1 195 -5 201 -24 34 -124 46 -173 21 -23 -11 -27 -10 -49 15
-13 16 -44 41 -69 56 -41 24 -58 27 -147 29 -55 1 -109 0 -120 -3z m260 -59
c47 -27 75 -63 75 -97 0 -21 -2 -20 -32 12 -19 22 -33 30 -36 22 -5 -17 -22
-15 -22 4 0 8 -14 28 -30 43 -28 25 -31 41 -7 41 6 0 29 -11 52 -25z m-360
-15 c-12 -20 -61 -39 -76 -30 -9 6 -10 12 -4 19 19 18 90 28 80 11z m-88 -39
c9 -15 8 -23 -3 -40 -8 -11 -13 -25 -9 -30 3 -5 1 -12 -5 -16 -5 -3 -10 0 -11
7 0 7 -3 26 -5 42 -9 51 11 73 33 37z m413 -20 c5 -11 10 -26 9 -33 0 -10 -2
-10 -6 0 -2 6 -11 12 -19 12 -8 0 -14 2 -14 4 0 2 -3 11 -6 20 -9 23 23 20 36
-3z m306 2 c14 -15 16 -34 12 -143 -5 -148 -21 -197 -32 -100 -4 34 -15 77
-23 96 -17 35 -33 45 -33 21 0 -21 -37 -60 -45 -48 -3 6 -9 49 -12 95 l-6 84
29 5 c63 9 93 6 110 -10z m405 -20 c22 -22 22 -293 0 -293 -4 0 -7 8 -8 18 -2
42 -27 141 -45 180 -19 42 -21 43 -43 28 -22 -14 -23 -14 -28 13 -3 15 -3 38
0 49 5 19 11 21 60 17 31 -2 59 -7 64 -12z m-745 -26 c7 -7 15 -23 19 -37 8
-25 7 -25 -13 -7 -11 10 -35 20 -54 23 -18 2 -51 8 -73 12 l-40 9 30 7 c17 4
35 9 40 11 18 7 80 -6 91 -18z m-186 -7 c-14 -4 -32 -8 -40 -9 -13 -1 -13 0 0
9 8 5 26 9 40 9 l25 -1 -25 -8z m-60 -198 c13 -31 13 -32 -10 -32 -18 0 -20 7
-20 63 0 34 -4 79 -9 99 -6 24 -5 40 3 48 8 8 13 -10 18 -72 4 -46 12 -93 18
-106z m170 152 c43 -18 60 -39 60 -76 -1 -51 -61 -88 -145 -88 -57 0 -68 16
-69 98 -1 62 0 66 24 73 43 12 88 10 130 -7z m250 -95 c0 -48 -38 -112 -83
-139 -47 -29 -55 -24 -21 13 41 42 74 99 74 125 0 29 11 53 21 46 5 -3 9 -23
9 -45z m-377 -116 c-7 -2 -19 -2 -25 0 -7 3 -2 5 12 5 14 0 19 -2 13 -5z m568
-123 c28 -65 69 -100 117 -100 26 0 41 6 50 20 17 28 34 26 22 -4 -5 -13 -6
-26 -4 -29 10 -10 -149 -20 -165 -10 -26 16 -50 75 -51 126 0 26 2 47 5 47 2
0 14 -23 26 -50z m-37 -146 c20 -19 21 -34 2 -34 -13 0 -26 20 -26 41 0 13 6
11 24 -7z"/>
<path d="M5613 4252 c-84 -27 -90 -36 -99 -149 -4 -54 -8 -195 -8 -314 l-1
-215 28 -37 c15 -20 40 -40 55 -44 15 -3 32 -13 38 -21 9 -13 28 -14 108 -9
118 8 163 26 233 94 42 41 55 63 72 118 28 89 27 140 -3 189 -22 36 -22 42
-10 84 18 59 18 175 0 210 -24 47 -63 74 -133 93 -85 24 -209 24 -280 1z m262
-27 c113 -29 150 -79 139 -185 -3 -36 -13 -81 -21 -102 -14 -35 -13 -39 11
-81 40 -68 31 -175 -17 -216 -15 -12 -17 -11 -17 12 0 14 4 28 10 32 12 8 1
35 -15 35 -6 0 -20 9 -30 20 -9 10 -20 19 -24 18 -3 0 -21 5 -38 13 -36 14
-46 34 -13 24 20 -6 25 4 22 46 -1 16 43 43 57 35 4 -3 7 22 6 55 0 36 -4 59
-11 59 -6 0 -16 17 -23 38 -17 56 -56 96 -94 94 -18 0 -57 4 -87 10 -117 23
-140 10 -160 -87 -7 -36 -17 -65 -22 -65 -4 0 -8 47 -8 105 0 118 -3 114 92
139 70 19 170 20 243 1z m-255 -150 c0 -8 7 -15 15 -15 10 0 15 -10 15 -29 0
-70 34 -110 98 -112 24 -1 23 -2 -8 -9 -18 -5 -39 -15 -46 -24 -12 -17 -29
-23 -20 -7 4 5 1 11 -6 13 -6 2 -22 33 -34 69 -12 35 -23 55 -23 44 -1 -17 -3
-17 -11 -5 -11 17 -13 73 -3 83 11 12 23 8 23 -8z m190 5 c20 -5 45 -16 55
-24 46 -34 -31 -96 -120 -96 -51 0 -63 12 -71 73 -6 44 -6 46 22 50 53 8 79 7
114 -3z m55 -345 c32 -31 31 -40 -3 -75 -42 -41 -122 -61 -163 -40 -15 9 -19
22 -19 66 0 65 11 72 103 73 49 1 62 -3 82 -24z m-214 -138 c-4 -4 -14 0 -22
9 -9 12 -10 15 -1 10 8 -5 12 2 13 26 l1 33 8 -35 c5 -19 5 -39 1 -43z m250
26 c-18 -30 -35 -49 -56 -61 -20 -11 -20 -11 0 -12 37 0 0 -19 -48 -24 -48 -5
-64 7 -26 19 12 4 18 13 15 20 -3 8 7 17 25 24 17 6 42 19 56 31 32 25 47 26
34 3z m-202 -89 c2 -2 -12 -4 -32 -4 -20 0 -39 5 -42 11 -5 7 5 8 32 3 21 -4
40 -8 42 -10z"/>
</g>
</svg>
